<?xml version="1.0" standalone="no"?>
<!DOCTYPE svg PUBLIC "-//W3C//DTD SVG 20010904//EN"
 "http://www.w3.org/TR/2001/REC-SVG-20010904/DTD/svg10.dtd">
<svg version="1.0" xmlns="http://www.w3.org/2000/svg"
 width="5107.000000pt" height="5107.000000pt" viewBox="0 0 5107.000000 5107.000000"
 preserveAspectRatio="xMidYMid meet">
<metadata>
Created by potrace 1.14, written by Peter Selinger 2001-2017
</metadata>
<g transform="translate(0.000000,5107.000000) scale(0.100000,-0.100000)"
fill="#000000" stroke="none">
<path d="M23350 50564 c-232 -13 -437 -27 -580 -40 -2045 -189 -4219 -968
-6280 -2252 -469 -292 -1044 -695 -1390 -972 -82 -66 -106 -79 -175 -99 -157
-46 -574 -191 -775 -269 -1874 -728 -3211 -1870 -3805 -3249 l-49 -113 -133 0
c-571 0 -1309 -197 -1963 -525 -1009 -505 -1676 -1207 -1864 -1964 -45 -178
-51 -237 -51 -461 1 -204 2 -225 37 -415 52 -277 96 -610 84 -622 -2 -2 -26
10 -54 27 -254 156 -641 260 -965 260 -94 0 -369 -26 -483 -45 l-31 -5 -32
-163 c-79 -396 -160 -641 -330 -992 -104 -216 -216 -417 -454 -815 -290 -484
-406 -690 -516 -911 -187 -374 -296 -696 -347 -1021 -28 -173 -25 -492 5 -662
44 -253 141 -526 262 -738 l39 -70 -84 -89 c-207 -220 -319 -449 -362 -741
-15 -99 -16 -155 -8 -443 13 -473 9 -812 -10 -995 -36 -342 -95 -633 -211
-1042 -104 -364 -155 -607 -187 -883 -16 -144 -17 -552 0 -681 81 -635 380
-1146 851 -1454 l23 -15 -50 -200 c-248 -991 -288 -1933 -117 -2775 13 -63 21
-117 19 -119 -11 -12 -814 371 -1197 570 -611 318 -1409 772 -1877 1067 -35
23 -65 40 -66 39 -1 -1 -27 -74 -58 -162 -116 -331 -149 -525 -150 -890 -1
-265 8 -377 49 -580 95 -473 296 -893 629 -1315 l44 -55 36 -335 c155 -1409
364 -2336 657 -2911 76 -149 142 -254 289 -459 250 -350 385 -638 587 -1253
186 -567 309 -880 487 -1237 382 -763 847 -1278 1571 -1741 250 -160 495 -292
1090 -589 719 -358 1033 -531 1279 -708 139 -100 166 -128 166 -172 0 -38 1
-38 98 -94 89 -50 150 -80 220 -107 22 -9 20 -13 -57 -90 -45 -45 -111 -121
-148 -169 l-66 -88 -66 28 c-36 16 -97 42 -136 58 -38 17 -72 29 -74 27 -2 -2
40 -60 93 -129 53 -69 96 -129 96 -132 0 -4 6 -12 14 -18 7 -6 107 -135 221
-286 255 -336 403 -520 573 -710 158 -177 447 -462 602 -594 109 -93 119 -104
182 -214 37 -64 65 -118 64 -120 -2 -1 -36 5 -76 13 -41 9 -77 12 -81 8 -9
-10 -179 -429 -179 -442 0 -5 14 -18 30 -28 32 -19 39 -33 15 -33 -8 0 -63
-25 -122 -55 -231 -117 -394 -287 -509 -529 -39 -82 -56 -143 -121 -422 -41
-179 -73 -327 -71 -330 3 -2 113 63 244 145 131 82 240 148 241 147 0 0 -25
-54 -57 -118 -122 -249 -191 -547 -189 -828 0 -141 33 -817 39 -824 3 -2 102
149 220 337 239 379 288 445 446 597 338 326 741 523 1214 596 219 34 641 19
836 -29 l49 -12 6 -190 c4 -111 13 -227 23 -280 36 -189 114 -383 215 -538 28
-42 47 -77 43 -77 -13 0 -299 167 -457 267 -291 184 -658 450 -907 656 l-126
105 -179 -130 c-98 -72 -186 -138 -196 -147 -17 -17 -15 -24 57 -180 138 -296
314 -609 509 -901 439 -661 968 -1216 1621 -1702 87 -65 152 -118 145 -118 -8
1 -53 9 -102 19 -56 12 -84 14 -79 7 5 -6 120 -162 257 -346 136 -184 298
-398 360 -475 455 -567 918 -1024 1425 -1407 605 -456 1274 -790 1905 -948 72
-18 134 -36 139 -41 4 -4 -1 -60 -13 -126 -12 -65 -21 -123 -21 -130 0 -28
721 -288 1105 -398 667 -191 1217 -279 1950 -313 l150 -7 -180 -52 c-99 -29
-263 -74 -365 -100 -102 -25 -189 -50 -193 -54 -5 -4 -6 -115 -2 -247 l8 -240
106 -16 c180 -27 317 -36 551 -36 203 0 278 4 531 26 l75 6 22 -192 c12 -106
25 -196 28 -201 7 -12 523 -11 719 1 211 14 476 44 655 75 80 14 161 28 181
31 l36 6 9 -68 9 -69 45 -7 c91 -15 611 -21 765 -9 455 37 836 151 1121 336
l81 52 42 -92 c136 -296 407 -570 711 -717 70 -34 950 -362 955 -356 1 2 -97
122 -217 268 -412 498 -425 514 -488 645 -74 151 -94 223 -93 345 0 144 43
242 152 351 71 70 115 100 304 206 369 207 648 417 956 718 310 304 542 598
677 859 l62 119 61 -121 c69 -135 166 -278 306 -453 353 -440 803 -825 1280
-1095 304 -171 388 -242 457 -380 37 -75 41 -92 46 -176 6 -117 -19 -223 -82
-355 -64 -132 -90 -167 -420 -567 -163 -198 -295 -361 -293 -362 5 -6 872 317
945 351 300 142 577 418 713 711 23 49 43 91 45 93 2 2 38 -19 81 -46 288
-185 665 -297 1118 -334 149 -12 663 -7 767 7 l47 7 7 57 c3 32 10 63 14 69 5
9 43 6 151 -13 389 -68 597 -86 1047 -93 280 -4 376 -3 385 6 7 7 22 95 33
197 12 102 24 187 27 190 3 3 65 0 139 -8 211 -21 758 -18 932 6 76 10 151 22
165 25 l26 7 3 245 2 244 -156 38 c-86 21 -253 66 -372 100 l-217 62 150 7
c242 11 480 28 620 44 719 82 1485 280 2250 580 104 41 190 76 191 77 1 1 -8
61 -21 132 -13 72 -22 131 -20 133 1 1 63 19 136 38 1229 321 2391 1152 3390
2424 102 130 569 757 569 764 0 2 -39 -5 -87 -15 -121 -25 -124 -24 -59 21
847 593 1587 1438 2083 2375 70 134 219 441 226 465 1 5 -86 74 -193 154 -189
139 -196 143 -216 127 -12 -9 -97 -77 -190 -152 -206 -166 -388 -300 -639
-468 -192 -129 -494 -315 -594 -366 l-55 -27 19 28 c140 212 227 436 254 649
6 44 13 154 16 244 3 91 7 166 9 168 2 3 57 13 122 24 524 85 981 24 1420
-191 234 -114 453 -274 622 -456 118 -126 139 -155 381 -538 190 -300 221
-344 221 -315 0 19 9 212 20 430 19 401 18 510 -10 684 -29 184 -98 395 -180
552 -34 66 -43 90 -30 83 10 -5 122 -75 249 -154 127 -80 231 -143 231 -141 0
14 -144 620 -157 660 -90 279 -357 564 -625 666 -61 23 -69 32 -40 48 9 6 23
14 30 19 10 7 -8 60 -79 233 -50 123 -93 226 -94 227 -2 2 -36 -3 -77 -11 -40
-9 -75 -14 -77 -12 -1 2 27 57 65 122 60 105 76 125 148 185 232 191 521 481
759 763 169 199 198 236 755 970 66 88 120 161 118 162 -1 1 -64 -24 -141 -56
l-138 -59 -57 77 c-31 42 -95 117 -143 167 -48 51 -87 94 -87 98 0 3 6 6 13 6
17 0 162 70 248 120 67 40 69 42 69 80 0 38 4 43 77 101 257 204 582 388 1448
819 680 338 912 469 1237 697 283 199 610 499 804 738 422 521 753 1197 1044
2130 171 548 338 892 621 1280 90 123 185 278 250 408 293 582 507 1551 663
3014 l24 222 69 88 c294 370 489 776 587 1216 52 235 61 322 61 627 0 297 -9
389 -56 605 -24 107 -140 455 -152 455 -5 0 -129 -73 -276 -161 -727 -441
-1333 -776 -2001 -1108 -305 -151 -678 -328 -805 -380 l-50 -21 30 22 c535
401 924 879 1229 1510 344 709 523 1492 567 2475 21 473 -21 917 -127 1336
-41 164 -116 402 -149 472 -12 28 -35 79 -50 115 -72 171 -195 392 -323 580
-587 863 -1542 1477 -2792 1794 -74 19 -134 38 -133 43 1 4 33 78 71 163 107
239 173 448 203 645 16 102 16 319 1 411 -42 254 -137 445 -414 831 -411 572
-612 963 -805 1558 -36 110 -90 277 -120 370 -247 768 -628 1323 -1133 1655
-266 174 -594 283 -904 298 l-128 7 -67 195 c-492 1429 -1312 2514 -2387 3160
-441 265 -934 456 -1405 545 l-146 27 -84 75 c-783 695 -1671 1149 -2539 1297
-263 45 -340 51 -675 51 -342 -1 -445 -10 -707 -61 -72 -14 -132 -23 -135 -20
-9 9 -81 264 -137 482 -70 277 -128 535 -211 939 -155 757 -213 999 -306 1280
-201 605 -503 937 -934 1026 -124 26 -325 25 -479 -1 -313 -53 -642 -213 -966
-470 -133 -105 -427 -398 -556 -555 -205 -249 -396 -522 -574 -821 -55 -93
-103 -175 -107 -182 -6 -9 -41 11 -126 73 -802 583 -1817 1099 -2791 1420
-122 40 -245 78 -275 86 -45 11 -62 23 -111 77 -285 310 -433 809 -399 1340
13 211 38 341 118 615 47 161 65 240 58 242 -26 10 -472 129 -617 165 -529
132 -1062 217 -1680 266 -182 14 -984 27 -1150 18z m905 -674 c492 -26 943
-83 1395 -175 186 -38 329 -71 335 -77 2 -2 -2 -47 -10 -99 -23 -151 -37 -413
-30 -549 26 -511 145 -904 389 -1278 92 -143 153 -212 411 -467 295 -292 424
-454 621 -782 555 -920 836 -2133 811 -3493 -6 -330 -16 -503 -43 -779 -8 -84
-13 -155 -11 -157 7 -7 77 314 112 511 177 993 178 1974 4 2800 -85 405 -205
759 -370 1096 -83 169 -202 373 -281 483 -27 37 -48 69 -46 71 2 2 100 -36
218 -84 811 -330 1535 -734 2175 -1214 99 -74 197 -150 218 -168 l38 -34 -46
-100 c-215 -460 -351 -912 -412 -1365 -26 -192 -26 -678 0 -870 64 -475 225
-937 453 -1300 66 -106 186 -271 192 -265 2 2 -21 68 -51 147 -163 424 -241
826 -254 1303 -18 668 133 1408 409 2010 33 72 100 220 149 330 305 680 709
1295 1123 1711 328 327 628 502 935 544 269 37 441 -109 585 -493 80 -215 156
-522 291 -1179 169 -825 260 -1201 406 -1675 33 -107 58 -197 55 -200 -3 -3 5
-26 18 -52 13 -25 53 -125 89 -221 129 -343 286 -687 447 -977 95 -169 120
-210 350 -568 355 -553 571 -920 766 -1300 354 -691 516 -1193 563 -1740 42
-489 -51 -1001 -285 -1570 -72 -176 -253 -534 -367 -727 -48 -81 -87 -150 -87
-154 0 -7 53 60 166 211 653 871 938 1652 894 2443 -48 836 -415 1699 -1318
3102 -254 393 -373 603 -510 895 -84 179 -184 416 -178 422 11 11 293 75 413
94 177 27 555 37 740 20 278 -26 571 -90 841 -183 612 -211 1242 -610 1792
-1135 91 -87 112 -113 147 -185 258 -521 254 -1276 -13 -2124 -24 -78 -44
-146 -44 -150 0 -15 97 141 171 275 323 589 452 1200 363 1720 -14 81 -56 242
-79 303 -6 15 -2 15 52 2 915 -235 1763 -864 2359 -1749 407 -605 673 -1217
915 -2105 40 -149 42 -161 42 -300 1 -346 -100 -662 -313 -982 -102 -154 -189
-258 -345 -413 -207 -208 -495 -431 -748 -580 -53 -32 -96 -60 -94 -62 2 -2
53 13 113 33 720 237 1289 695 1556 1250 128 268 201 630 185 925 l-5 106 68
6 c259 22 562 -76 805 -258 91 -69 255 -238 334 -344 170 -230 323 -543 436
-891 29 -91 85 -264 124 -385 164 -508 374 -956 638 -1359 46 -70 148 -219
228 -330 252 -353 306 -457 328 -626 13 -109 -7 -235 -64 -404 -97 -284 -359
-782 -419 -796 -20 -5 -26 -14 -30 -47 -10 -73 -226 -341 -474 -588 -266 -266
-497 -438 -791 -590 -82 -43 -152 -80 -155 -82 -3 -3 7 -13 22 -24 62 -46 351
-279 448 -363 697 -600 1336 -1270 1799 -1886 800 -1064 1106 -1999 895 -2728
-116 -401 -368 -726 -811 -1046 -68 -48 -123 -92 -123 -97 0 -5 32 -57 71
-116 116 -174 247 -456 333 -718 121 -364 174 -682 183 -1100 7 -340 -22 -609
-97 -899 -154 -597 -632 -1186 -1480 -1823 -160 -120 -183 -134 -269 -162
-180 -60 -333 -157 -439 -278 -31 -36 -70 -81 -87 -99 -35 -39 -333 -227 -925
-582 -234 -140 -434 -263 -445 -272 -11 -10 -63 -44 -116 -77 -220 -137 -424
-324 -553 -506 l-69 -98 -62 118 c-292 557 -711 898 -1230 1000 -138 27 -441
24 -599 -5 -65 -13 -120 -21 -121 -20 -2 2 24 230 57 506 33 277 57 506 55
509 -3 3 -222 -3 -487 -12 -471 -17 -482 -17 -500 1 -38 39 -1693 2169 -1693
2179 0 6 151 225 337 489 l337 478 -242 322 -241 321 101 95 101 95 0 350 0
350 148 150 c444 452 756 981 931 1578 246 840 183 1769 -171 2552 -27 61 -50
116 -51 124 -2 14 149 145 1495 1304 l688 591 -29 31 c-15 16 -263 305 -551
640 -288 336 -526 613 -530 618 -3 4 -239 -193 -523 -438 l-518 -444 -33 37
c-18 20 -646 750 -1396 1622 -749 872 -1533 1784 -1743 2028 -209 243 -384
442 -389 442 -11 0 -1288 -1098 -1288 -1108 0 -9 113 -141 1848 -2157 681
-792 1238 -1441 1236 -1443 -1 -2 -25 8 -53 23 -68 34 -272 115 -389 154 -815
271 -1710 252 -2509 -55 -360 -138 -686 -324 -991 -566 -163 -129 -461 -427
-588 -588 -439 -554 -693 -1159 -791 -1880 -14 -106 -18 -201 -18 -445 0 -323
9 -436 56 -685 81 -427 248 -867 464 -1223 25 -42 45 -81 43 -86 -2 -5 -169
-151 -373 -326 -203 -175 -377 -324 -386 -331 -14 -13 -96 79 -737 823 -2426
2821 -2828 3287 -2837 3290 -11 3 -1290 -1093 -1290 -1106 0 -16 4657 -5426
4670 -5425 6 1 495 417 1086 925 591 508 1082 930 1092 937 14 12 24 9 74 -21
167 -101 477 -239 706 -313 l117 -38 0 -491 0 -490 278 -190 c257 -176 280
-189 317 -187 22 2 265 27 539 57 275 30 501 54 502 52 1 -1 -92 -90 -207
-197 l-209 -195 0 -330 0 -330 221 -50 c205 -46 220 -51 215 -70 -2 -11 -19
-118 -37 -238 -27 -176 -31 -222 -21 -237 7 -11 252 -311 545 -667 293 -357
764 -929 1047 -1273 282 -344 533 -648 557 -676 l44 -52 -257 -238 c-141 -130
-254 -229 -251 -218 22 72 32 180 32 344 -1 203 -14 280 -75 437 -81 213 -276
430 -476 531 -61 31 -68 20 -44 -73 35 -138 22 -271 -37 -372 -41 -70 -135
-149 -237 -198 -115 -56 -336 -115 -336 -89 0 19 80 121 134 171 76 71 164
123 257 153 l71 23 -23 18 c-40 31 -160 87 -224 104 -92 25 -301 31 -407 11
-47 -9 -105 -23 -127 -31 l-41 -14 30 45 c47 67 87 160 111 254 19 73 21 102
16 220 -6 143 -23 232 -39 208 -8 -10 -11 -10 -15 0 -3 7 -20 -18 -38 -55 -48
-100 -161 -205 -261 -243 -23 -9 -20 -4 21 44 66 78 140 205 169 294 31 92 50
220 41 271 -8 47 -28 48 -79 3 -51 -44 -172 -104 -308 -150 -139 -49 -306 -94
-321 -89 -7 2 6 21 28 44 37 37 89 63 160 78 29 7 26 9 -57 51 -314 158 -690
143 -1063 -44 -77 -38 -133 -71 -253 -150 l-23 -15 26 68 c61 164 144 301 244
408 75 79 132 123 219 167 35 18 60 36 55 40 -13 14 -172 57 -258 70 -113 18
-321 15 -440 -5 -253 -42 -510 -161 -742 -341 -45 -35 -84 -64 -86 -64 -12 0
-16 136 -6 206 12 92 47 175 92 223 38 39 120 81 161 81 l30 0 -35 36 c-50 52
-146 119 -225 156 -57 26 -84 33 -157 36 -82 4 -91 3 -152 -27 -120 -59 -194
-167 -279 -409 -29 -81 -68 -176 -86 -212 -166 -327 -471 -529 -829 -548
l-104 -5 24 44 c13 24 58 78 99 119 114 114 258 182 449 211 l81 12 -22 25
c-42 44 -195 139 -274 170 -115 44 -187 55 -316 50 -126 -6 -213 -32 -322 -95
-113 -65 -241 -180 -344 -308 l-32 -40 0 62 c0 86 31 177 89 260 52 74 148
166 218 211 24 15 43 30 43 34 0 15 -115 33 -220 33 -171 0 -279 -38 -407
-142 l-53 -43 19 48 c103 260 256 471 486 669 172 149 414 300 598 374 31 12
57 26 57 29 0 10 -195 68 -295 87 -124 24 -397 24 -517 0 -435 -87 -840 -382
-1141 -830 -38 -56 -70 -103 -71 -105 -7 -6 -99 125 -151 213 -134 227 -233
521 -291 864 -47 276 -71 674 -57 929 5 72 5 132 1 132 -10 0 -122 -156 -175
-245 -323 -542 -386 -1421 -173 -2394 16 -74 28 -136 27 -137 -2 -2 -26 17
-55 42 l-52 46 0 -119 c0 -314 -111 -613 -342 -921 -151 -201 -366 -415 -587
-583 -57 -44 -106 -78 -108 -76 -2 2 3 23 12 46 61 174 59 436 -6 656 -36 121
-158 385 -178 385 -4 0 -16 -60 -28 -133 -41 -248 -123 -483 -244 -697 -33
-58 -68 -116 -79 -130 -19 -25 -19 -24 0 60 44 198 55 307 54 550 0 190 -5
262 -22 375 -50 321 -153 646 -298 937 -64 131 -168 318 -175 318 -4 0 -9 -22
-13 -49 -8 -63 -42 -161 -49 -141 -3 8 -8 42 -11 75 -21 206 -139 468 -304
681 -76 97 -252 276 -252 256 0 -7 9 -52 19 -100 60 -268 85 -556 78 -867 -10
-431 -84 -748 -248 -1064 -76 -148 -151 -252 -314 -436 -152 -172 -223 -265
-294 -383 -65 -111 -183 -347 -261 -527 l-62 -140 6 73 c4 40 18 126 31 192
90 425 302 895 630 1395 l20 30 -60 -34 c-357 -200 -717 -577 -943 -986 -92
-167 -196 -425 -238 -588 -8 -34 -20 -79 -25 -100 l-10 -38 -47 27 c-343 198
-663 581 -826 988 -53 130 -115 378 -116 461 0 21 -92 -145 -129 -236 -78
-186 -119 -408 -107 -569 7 -87 38 -236 56 -271 6 -10 7 -19 3 -19 -23 0 -267
204 -402 335 -238 232 -387 429 -496 657 -101 212 -139 364 -139 570 -1 153 5
147 -75 74 -31 -30 -42 -36 -38 -21 19 69 63 283 87 429 114 684 86 1311 -81
1780 -69 193 -191 415 -291 530 l-35 40 5 -235 c14 -740 -130 -1376 -404
-1783 -58 -86 -93 -131 -97 -125 -36 60 -152 224 -200 284 -83 103 -270 284
-370 359 -418 311 -875 392 -1369 240 -78 -24 -112 -44 -75 -44 25 0 310 -148
402 -207 209 -137 418 -332 544 -509 57 -80 179 -312 197 -374 6 -21 1 -19
-42 19 -65 58 -134 97 -219 124 -59 18 -91 22 -200 21 -82 -1 -147 -7 -174
-15 l-45 -15 65 -46 c94 -66 209 -193 247 -270 34 -69 60 -192 48 -224 -6 -17
-13 -12 -53 36 -160 191 -351 324 -526 365 -82 19 -244 19 -326 -1 -88 -21
-250 -101 -333 -164 -38 -29 -68 -55 -68 -60 0 -4 24 -11 53 -15 184 -24 355
-98 463 -202 47 -45 124 -148 124 -165 0 -13 -134 -9 -217 7 -389 74 -653 321
-793 745 -102 306 -228 440 -414 440 -81 0 -155 -22 -239 -71 -68 -40 -187
-134 -187 -147 0 -4 22 -13 49 -19 100 -24 174 -99 209 -213 17 -57 25 -271 9
-286 -4 -4 -20 4 -35 18 -104 98 -326 233 -487 297 -306 123 -675 138 -952 41
-31 -11 -60 -20 -63 -20 -3 0 29 -19 70 -41 161 -88 289 -223 381 -402 42 -81
99 -215 99 -232 0 -2 -42 23 -93 56 -182 118 -391 204 -571 235 -67 12 -129
15 -236 11 -168 -6 -242 -23 -388 -92 -89 -42 -109 -65 -58 -65 39 0 143 -58
165 -93 11 -17 18 -33 16 -35 -6 -6 -264 65 -360 98 -128 46 -244 103 -305
151 l-53 42 5 -114 c4 -90 11 -132 33 -198 32 -93 111 -226 187 -314 45 -52
47 -56 21 -46 -130 49 -261 162 -303 261 -14 32 -28 58 -31 58 -14 0 -30 -91
-36 -201 -9 -186 31 -338 127 -478 31 -47 38 -62 24 -57 -156 60 -365 82 -511
52 -92 -18 -162 -45 -247 -94 l-59 -35 77 -28 c106 -38 177 -81 254 -153 57
-53 148 -173 139 -183 -9 -8 -183 30 -263 58 -329 115 -456 323 -379 619 9 33
18 67 22 76 9 24 -77 -22 -172 -93 -200 -148 -340 -365 -397 -615 -29 -125
-31 -395 -4 -543 50 -276 185 -623 356 -919 28 -48 49 -90 46 -93 -7 -7 -226
16 -366 38 -504 80 -809 242 -876 465 -8 26 -14 63 -14 81 0 31 -2 34 -22 28
-92 -27 -220 -147 -280 -260 -88 -169 -113 -316 -104 -609 3 -116 9 -229 12
-251 l5 -40 -36 40 c-45 51 -120 201 -142 285 -10 39 -17 107 -17 169 l-1 103
-58 -63 c-86 -93 -165 -269 -168 -374 l-1 -30 -18 40 c-96 208 -106 518 -24
759 13 38 24 70 24 72 0 1 -19 -2 -42 -8 -158 -34 -261 -168 -292 -377 l-13
-86 -55 110 c-72 142 -120 274 -150 405 -31 140 -33 436 -5 570 55 257 196
541 357 723 l52 57 -104 49 c-220 103 -428 172 -647 213 -169 32 -470 32 -621
-1 -508 -109 -919 -448 -1207 -998 l-59 -112 -67 94 c-172 242 -437 461 -742
613 -184 92 -289 129 -560 199 -137 35 -258 66 -267 69 -13 4 -16 1 -12 -10 3
-9 2 -16 -2 -16 -17 0 -239 128 -245 141 -4 8 -22 59 -39 114 -96 300 -275
519 -526 644 -97 48 -222 88 -327 104 l-80 13 -63 87 c-358 498 -625 1120
-805 1877 -7 27 -22 45 -71 80 -86 61 -356 333 -454 455 -178 224 -300 415
-435 680 -457 903 -572 1961 -343 3155 61 320 128 577 245 941 32 103 59 191
59 196 0 6 -57 25 -127 44 -452 119 -764 463 -872 962 -33 153 -44 297 -38
492 10 290 56 549 167 935 111 389 170 651 214 961 45 316 51 419 47 809 -3
201 -5 478 -5 615 0 245 1 252 27 331 64 192 222 355 537 556 104 66 106 67
205 78 172 18 545 24 725 11 786 -59 1441 -334 1938 -815 188 -182 351 -389
447 -567 54 -102 57 -87 20 98 -181 891 -871 1473 -2026 1708 -383 78 -918
112 -1122 72 -102 -21 -214 -58 -273 -93 l-42 -23 -34 57 c-66 107 -117 207
-162 319 -195 478 -143 950 176 1588 110 219 192 363 455 803 487 815 660
1167 799 1627 l42 140 59 -3 c199 -8 454 -99 609 -215 76 -57 187 -174 235
-247 20 -30 61 -103 90 -162 l54 -108 70 0 c140 0 237 41 327 139 147 158 211
396 211 786 0 282 -33 591 -100 932 -35 178 -39 420 -9 548 74 320 248 608
544 899 236 232 493 420 832 606 571 314 1299 530 1789 530 l109 0 52 -41
c237 -187 344 -645 300 -1279 -27 -386 -104 -849 -216 -1294 -25 -98 -43 -180
-41 -183 8 -7 147 150 224 252 469 625 569 1474 276 2348 l-46 138 22 120 c68
372 298 850 608 1263 645 858 1652 1571 2928 2071 182 71 335 126 335 121 0
-3 -31 -67 -69 -143 -256 -510 -410 -1112 -476 -1858 -34 -377 -36 -1055 -5
-1485 50 -696 184 -1567 325 -2110 38 -147 38 -143 1 132 -33 239 -71 614 -92
888 -21 289 -30 1091 -15 1372 62 1126 279 2074 656 2856 165 340 295 538 427
648 254 212 808 607 1221 872 2107 1351 4310 2137 6407 2287 118 8 249 16 290
18 195 8 725 6 895 -3z m21245 -17135 c563 -99 1084 -266 1525 -490 384 -196
676 -405 951 -679 169 -169 280 -304 396 -481 89 -134 238 -430 292 -575 175
-480 241 -990 206 -1595 -104 -1764 -782 -3034 -1925 -3603 -99 -49 -274 -122
-292 -122 -5 0 -27 44 -48 98 -21 53 -67 158 -102 232 l-64 135 58 49 c303
258 551 601 676 936 139 371 164 812 72 1264 -184 910 -866 1990 -1965 3110
-225 229 -502 491 -736 696 l-152 133 77 57 c271 201 563 488 788 776 36 46
73 84 82 84 9 0 82 -11 161 -25z m-10220 -2234 c400 -300 664 -689 751 -1105
24 -111 31 -343 15 -470 l-8 -70 -33 85 c-110 285 -286 505 -442 553 l-21 7
20 -53 c31 -81 94 -339 117 -478 32 -193 41 -298 41 -512 0 -376 -59 -657
-199 -943 -170 -347 -424 -607 -795 -814 l-59 -33 -86 32 c-389 147 -743 435
-976 793 -71 110 -173 323 -214 447 -141 433 -136 880 14 1309 39 111 131 303
192 398 310 489 831 828 1408 917 161 25 157 26 275 -63z m11799 -6781 c0 -3
-41 -32 -92 -66 l-92 -61 3 123 3 123 89 -57 c49 -31 89 -59 89 -62z m-42875
-128 c-1 -2 -46 26 -99 61 l-97 65 43 30 43 29 56 -91 c31 -50 55 -92 54 -94z
m-2700 -547 c489 -789 1234 -1350 2151 -1619 211 -62 308 -98 435 -161 547
-274 918 -784 1140 -1568 138 -485 205 -1129 179 -1726 -5 -134 -8 -245 -6
-247 2 -2 28 26 58 64 225 281 415 679 494 1037 59 271 69 572 28 870 l-6 45
49 0 c112 -1 269 -52 378 -125 136 -90 251 -225 336 -395 46 -92 113 -267 108
-280 -2 -3 -91 10 -198 31 -107 21 -197 35 -199 33 -3 -3 3 -61 13 -130 51
-355 211 -773 443 -1157 29 -48 53 -90 53 -92 0 -3 -24 -5 -54 -5 -29 0 -93
-7 -142 -15 -558 -97 -989 -443 -1194 -960 -17 -42 -30 -79 -30 -84 0 -4 35
-11 78 -15 221 -20 493 -99 711 -207 369 -183 642 -453 830 -819 135 -263 217
-547 257 -880 l6 -55 -38 36 c-155 145 -521 385 -944 621 -349 194 -750 397
-1260 635 -408 191 -579 285 -800 443 -340 243 -608 523 -887 925 -264 382
-443 767 -781 1680 -270 729 -397 1016 -606 1365 -311 521 -523 1100 -666
1820 -69 348 -103 602 -130 980 -29 388 -33 371 53 205 41 -77 104 -189 141
-250z m48261 45 c-78 -1085 -356 -2067 -788 -2785 -219 -365 -324 -601 -622
-1400 -230 -616 -313 -818 -456 -1110 -304 -623 -719 -1126 -1219 -1481 -214
-151 -397 -253 -745 -414 -1024 -475 -1838 -931 -2195 -1232 l-70 -59 6 43
c51 364 113 578 244 843 190 381 454 648 830 838 224 113 495 193 723 213 92
8 90 -1 27 146 -187 434 -528 735 -983 868 -121 35 -259 60 -333 60 -30 0 -54
2 -54 3 0 2 24 44 54 93 179 297 322 630 397 925 29 114 59 288 59 341 0 25
-3 27 -27 22 -16 -3 -104 -20 -198 -38 -93 -18 -171 -30 -173 -26 -1 4 12 47
29 96 65 186 184 380 296 485 140 131 338 218 497 219 l49 0 -7 -57 c-39 -313
-34 -528 19 -801 74 -380 258 -781 499 -1086 33 -42 61 -74 63 -72 2 2 0 113
-6 247 -15 387 7 810 60 1159 163 1077 590 1801 1258 2134 135 68 206 94 417
156 504 147 942 369 1319 669 411 328 778 774 992 1206 48 96 48 96 51 58 2
-21 -4 -139 -13 -263z m-27680 -513 c39 -155 57 -331 57 -562 -1 -434 -78
-886 -238 -1404 -26 -83 -53 -143 -97 -215 -202 -335 -300 -736 -268 -1105 21
-254 84 -492 193 -737 28 -63 52 -113 54 -111 2 2 -5 48 -15 103 -41 210 -55
371 -55 619 0 259 13 390 60 585 35 151 69 249 129 377 50 106 161 290 170
281 2 -2 18 -44 35 -93 67 -191 212 -440 377 -645 89 -112 304 -326 423 -422
141 -113 304 -227 453 -316 136 -82 387 -217 387 -209 0 3 -29 63 -64 133
-127 255 -193 469 -203 654 -3 58 -3 103 0 100 3 -3 22 -34 42 -70 80 -139
308 -471 410 -599 128 -159 287 -321 408 -415 61 -47 86 -73 83 -85 -2 -9 -7
-83 -11 -166 -10 -249 16 -581 71 -885 23 -131 114 -513 120 -507 1 1 -2 63
-8 137 -14 185 -14 801 1 990 27 354 67 626 131 888 53 213 107 365 190 537
60 123 139 262 140 244 0 -4 -18 -53 -41 -110 -98 -247 -164 -568 -178 -863
-18 -372 33 -749 142 -1071 l34 -100 7 120 c38 649 216 1288 459 1652 47 70
220 292 410 525 191 234 317 437 401 645 106 265 167 563 196 962 6 80 12 147
15 149 2 2 10 -18 18 -45 37 -125 42 -169 41 -383 0 -235 -16 -360 -73 -590
l-29 -115 35 40 c120 136 231 344 288 540 l23 80 35 -75 c87 -189 168 -464
202 -685 23 -141 30 -437 16 -576 -44 -418 -200 -788 -487 -1154 -70 -89 -250
-356 -341 -505 -245 -400 -400 -808 -449 -1180 -21 -161 -14 -419 15 -564 57
-280 178 -527 376 -771 68 -83 249 -269 229 -235 -5 8 -31 48 -57 88 -100 150
-215 420 -268 626 -78 303 -90 672 -33 974 92 487 332 960 717 1417 120 142
258 376 342 577 19 46 34 68 49 72 46 12 195 114 256 176 69 70 129 164 158
243 9 26 20 47 25 47 5 0 6 -30 2 -67 -20 -209 -77 -398 -195 -640 l-78 -162
101 51 c374 187 693 414 968 688 231 231 377 429 499 681 31 64 67 150 80 192
28 89 27 90 101 -26 104 -162 193 -385 237 -597 41 -194 47 -267 47 -560 -1
-290 -14 -438 -60 -650 -7 -36 -12 -66 -11 -68 8 -7 113 246 151 363 81 246
111 448 102 700 -10 319 -96 607 -267 896 -58 98 -76 141 -115 270 -231 774
-286 1472 -154 1960 12 44 24 77 27 74 3 -2 11 -57 19 -121 57 -502 240 -949
517 -1266 65 -75 201 -198 219 -198 3 0 33 51 68 113 295 529 691 883 1131
1011 80 23 218 48 226 41 2 -2 -20 -14 -50 -26 -477 -202 -772 -553 -881
-1050 -46 -206 -52 -283 -51 -634 0 -292 4 -373 34 -700 28 -311 34 -415 34
-655 1 -303 -7 -379 -56 -530 -31 -96 -58 -146 -170 -308 -185 -269 -375 -510
-584 -742 -162 -180 -208 -221 -309 -275 -735 -395 -1422 -1027 -1900 -1750
-302 -458 -561 -1029 -695 -1535 -13 -47 -24 -86 -25 -88 -2 -2 -74 13 -161
32 -338 75 -623 101 -1009 93 -333 -7 -571 -36 -853 -103 -58 -13 -107 -23
-109 -21 -1 2 -23 82 -47 178 -370 1458 -1353 2711 -2674 3412 -105 55 -120
67 -194 151 -236 270 -550 693 -623 841 -85 171 -110 319 -108 645 1 171 9
332 32 593 17 197 36 454 42 570 31 595 -58 1039 -271 1352 -145 212 -322 359
-595 491 -71 35 -116 61 -100 59 189 -27 293 -59 446 -136 352 -176 652 -485
895 -922 32 -56 58 -104 60 -106 8 -9 112 80 193 165 295 311 490 777 552
1317 14 124 18 123 54 -16z m-3927 -956 c44 -23 93 -73 116 -118 9 -18 32 -91
51 -163 58 -218 131 -367 239 -488 215 -240 496 -384 830 -423 100 -12 300 -8
314 5 4 4 7 67 7 139 0 130 -1 133 -34 202 -43 88 -139 185 -236 238 l-70 38
95 -5 c192 -9 362 -98 476 -249 55 -73 126 -217 148 -300 8 -33 16 -61 19 -63
8 -8 145 96 182 138 61 70 98 159 103 247 4 75 -2 101 -52 236 -17 44 102 -96
136 -161 47 -89 88 -230 88 -301 0 -30 -18 -197 -40 -372 -21 -174 -47 -395
-56 -491 -20 -209 -23 -582 -5 -725 49 -399 195 -738 437 -1020 41 -48 73 -89
72 -90 -2 -1 -64 17 -138 42 -361 119 -766 201 -1195 245 -170 17 -758 17
-925 0 -441 -45 -675 -90 -1080 -208 -594 -175 -1191 -479 -1693 -863 -77 -58
-144 -110 -151 -115 -9 -6 -34 6 -77 37 -145 103 -323 170 -497 186 -325 30
-627 -85 -852 -326 -177 -189 -270 -428 -270 -693 0 -273 95 -509 286 -709
l84 -89 -104 -213 c-518 -1063 -669 -2247 -435 -3414 178 -891 586 -1724 1190
-2430 140 -163 425 -446 589 -585 224 -189 468 -365 690 -499 l83 -50 -34 -5
c-285 -48 -936 -59 -1329 -22 -722 69 -1490 233 -2251 482 l-138 45 -307 322
c-169 177 -328 344 -353 371 l-46 48 40 -20 c67 -33 834 -397 1085 -514 496
-232 1016 -464 1080 -482 29 -8 6 6 -465 281 -1013 592 -1806 1035 -2215 1237
-530 262 -1003 410 -1495 467 -133 16 -477 16 -595 0 -210 -28 -368 -69 -514
-132 l-89 -38 29 31 c105 110 312 209 506 242 l71 12 -74 27 c-231 84 -470
121 -749 115 l-195 -4 90 18 c120 25 457 35 632 19 248 -23 647 -105 852 -176
41 -14 76 -24 77 -22 1 1 -159 103 -357 226 -197 124 -358 226 -356 227 1 2
36 -8 77 -22 106 -35 260 -65 365 -71 l90 -5 -95 98 c-52 55 -147 152 -210
218 -63 65 -107 116 -96 112 102 -35 366 -87 551 -108 163 -18 771 -18 968 1
81 7 145 16 142 19 -2 3 -98 24 -212 47 -969 197 -1789 549 -2410 1035 -109
86 -421 387 -442 427 -10 19 2 15 91 -27 193 -91 471 -172 773 -224 136 -23
375 -56 375 -51 0 2 -55 35 -122 75 -331 197 -594 396 -796 599 -118 120 -234
271 -207 271 2 0 48 -11 102 -25 128 -32 247 -52 390 -66 154 -15 610 -6 773
15 179 23 400 67 400 78 0 23 -142 148 -245 217 -192 129 -455 242 -775 334
-170 49 -428 109 -557 128 -46 7 -83 16 -83 20 0 45 375 195 725 291 83 22
152 43 155 46 7 7 -297 -5 -435 -18 l-120 -11 -380 68 -380 69 1 24 c0 14 8
94 17 178 32 292 19 648 -34 905 -76 377 -270 722 -516 923 l-55 44 49 0 c116
0 368 -77 548 -168 116 -58 177 -97 259 -166 l66 -56 -34 72 c-19 40 -65 138
-104 218 -162 332 -274 682 -329 1022 -18 115 -23 446 -7 512 l9 39 53 -80
c92 -140 216 -247 340 -293 74 -28 202 -45 274 -36 56 7 57 8 97 69 75 116
131 272 158 440 21 137 13 391 -17 532 -42 199 -138 444 -244 625 -20 34 -35
64 -33 66 2 3 44 -24 93 -58 130 -92 316 -281 398 -405 88 -133 125 -219 221
-516 44 -135 83 -247 86 -247 3 0 34 107 68 238 90 338 157 508 285 726 124
210 331 441 494 549 326 217 694 267 1127 152 117 -31 265 -84 265 -96 0 -5
-21 -57 -46 -116 -140 -328 -209 -618 -221 -919 -14 -399 73 -730 272 -1030
58 -86 182 -235 203 -242 9 -3 12 14 12 60 1 84 23 202 50 263 l22 50 19 -89
c38 -187 180 -413 405 -644 l113 -117 -19 65 c-30 99 -68 277 -75 350 l-7 65
58 -65 c150 -170 322 -319 431 -374 48 -24 141 -51 149 -43 2 2 -20 55 -48
118 -206 463 -247 904 -109 1204 l28 60 16 -31 c24 -46 101 -128 169 -179 229
-172 602 -283 1093 -325 144 -13 740 -14 794 -2 l34 7 -56 37 c-86 57 -226
178 -317 275 -413 435 -573 968 -459 1526 11 56 22 104 24 106 3 2 49 -38 103
-90 180 -173 372 -280 605 -337 106 -25 400 -24 515 2 l84 19 -7 36 c-9 54
-58 152 -107 217 -54 72 -141 144 -254 212 l-88 52 40 0 c114 0 368 -55 637
-138 86 -27 157 -48 157 -47 0 2 -33 41 -72 88 -151 175 -263 358 -275 446 -3
23 -3 41 0 41 3 0 57 -13 120 -29 162 -42 269 -54 431 -49 202 7 206 10 93 80
-236 144 -457 337 -511 446 -15 28 -25 52 -22 52 2 0 34 -18 72 -40 197 -115
497 -189 768 -190 l119 0 -6 59 c-10 111 -64 200 -161 263 l-61 40 89 -6 c48
-4 129 -18 180 -30 252 -65 440 -176 623 -369 75 -80 79 -87 92 -153 21 -107
86 -297 136 -395 199 -396 543 -652 1010 -753 18 -4 -11 17 -70 51 -178 104
-288 186 -418 312 -129 124 -220 246 -290 387 -75 151 -109 271 -122 434 -33
416 -135 698 -321 888 -95 96 -97 94 88 63 311 -54 532 -158 719 -338 96 -93
169 -192 209 -285 14 -32 28 -58 32 -58 11 0 86 243 109 354 11 56 23 153 26
216 8 189 -27 311 -118 402 -27 27 -42 49 -36 52 32 13 140 5 175 -13z m14926
13 c12 -5 6 -16 -29 -50 -49 -49 -86 -121 -105 -204 -17 -69 -17 -240 0 -344
13 -89 67 -291 100 -379 l22 -58 40 83 c155 321 503 547 942 613 57 8 116 15
131 15 28 0 28 0 -11 -28 -114 -84 -225 -261 -289 -464 -44 -140 -67 -265 -85
-467 -6 -68 -22 -167 -36 -220 -30 -121 -122 -308 -203 -416 -135 -178 -345
-363 -554 -485 -56 -33 -109 -64 -117 -69 -26 -16 121 19 215 51 116 40 238
101 350 176 283 190 475 471 570 832 23 90 34 113 75 165 208 260 515 433 823
464 50 5 94 8 95 6 2 -2 -13 -12 -35 -23 -51 -27 -110 -87 -138 -142 -20 -40
-45 -137 -45 -176 0 -22 67 -27 218 -15 254 20 453 70 636 160 53 26 96 44 96
41 0 -3 -14 -28 -31 -54 -66 -105 -273 -281 -483 -410 -64 -40 -92 -62 -83
-67 7 -4 61 -13 119 -20 82 -9 133 -9 220 0 105 11 312 51 365 72 29 11 29 6
2 -74 -36 -106 -121 -238 -260 -403 -90 -106 -94 -105 100 -45 240 74 451 122
601 136 l65 6 -72 -40 c-101 -56 -168 -107 -238 -182 -65 -69 -128 -179 -144
-248 -11 -50 -13 -49 129 -77 124 -23 323 -24 443 0 241 47 477 172 656 348
40 39 73 69 75 67 2 -2 11 -38 19 -79 72 -351 34 -710 -105 -1012 l-41 -87
-355 -328 c-196 -180 -479 -442 -630 -580 l-274 -253 -293 0 -293 0 -172 -189
-172 -190 -72 51 c-224 159 -457 296 -740 434 -611 297 -1246 469 -1935 523
-172 14 -627 14 -802 1 -442 -34 -886 -124 -1300 -263 l-186 -63 118 114 c336
322 512 629 593 1034 39 192 49 345 43 598 -7 255 -10 282 -74 808 l-46 382
21 88 c36 143 139 328 202 362 17 9 17 5 -5 -42 -93 -206 -23 -413 186 -548
l63 -40 22 77 c46 160 112 271 220 372 111 104 278 171 427 171 l69 0 -58 -31
c-131 -68 -219 -161 -266 -278 -18 -46 -22 -76 -23 -173 0 -83 4 -121 13 -130
23 -23 315 -16 439 11 343 72 644 275 801 538 63 105 105 210 143 361 44 171
87 240 169 276 35 15 135 21 164 10z m7471 -1764 c362 -42 677 -234 924 -565
201 -269 307 -510 426 -970 26 -99 49 -184 52 -188 3 -5 47 117 98 270 99 300
134 379 229 518 77 114 253 290 376 377 52 37 96 65 98 63 2 -2 -9 -23 -24
-47 -97 -153 -213 -446 -255 -644 -30 -139 -37 -394 -16 -531 29 -182 115
-403 187 -482 l31 -34 112 6 c156 7 265 48 380 141 61 50 156 165 190 231 l21
40 9 -45 c16 -75 12 -393 -6 -508 -57 -357 -163 -678 -359 -1086 -55 -116
-103 -215 -105 -219 -3 -4 30 20 74 55 135 109 274 184 472 252 111 39 276 76
336 76 l36 0 -64 -55 c-279 -236 -457 -588 -533 -1050 -25 -153 -30 -570 -10
-762 9 -83 19 -164 22 -180 l6 -29 -381 -68 -381 -69 -102 12 c-57 7 -179 14
-273 17 l-170 4 160 -45 c208 -59 428 -134 545 -184 104 -46 195 -100 183
-111 -4 -3 -66 -17 -138 -29 -274 -49 -631 -148 -870 -243 -130 -52 -309 -144
-410 -210 -73 -48 -245 -201 -245 -218 0 -15 336 -71 540 -89 170 -16 543 -14
693 4 140 16 300 47 390 75 31 10 57 15 57 11 0 -12 -52 -85 -116 -161 -184
-222 -519 -486 -899 -710 -132 -78 -126 -81 92 -50 384 56 711 144 949 255
l95 44 -33 -42 c-64 -82 -275 -283 -408 -390 -485 -390 -1119 -701 -1855 -912
-215 -62 -553 -141 -707 -166 -132 -22 -108 -28 201 -50 214 -15 713 -7 881
15 185 24 330 53 505 102 11 3 -77 -92 -195 -211 l-215 -217 95 5 c98 5 287
43 385 77 30 10 55 17 55 15 0 -2 -156 -101 -347 -220 -353 -221 -389 -244
-342 -226 134 50 510 138 739 172 193 29 544 37 705 15 197 -26 187 -31 -68
-31 -207 0 -259 -4 -357 -22 -124 -24 -249 -58 -345 -94 l-60 -22 72 -13 c185
-31 366 -117 493 -234 50 -46 49 -46 -65 4 -348 153 -876 185 -1385 85 -538
-106 -994 -292 -1795 -734 -646 -356 -2112 -1201 -2102 -1211 16 -17 1668 743
2302 1058 l80 40 -56 -59 c-30 -32 -197 -207 -371 -388 l-315 -330 -269 -88
c-814 -263 -1541 -418 -2274 -482 -351 -31 -906 -29 -1158 3 l-53 7 118 82
c854 592 1547 1486 1922 2476 l56 149 160 2 c195 3 278 22 440 101 491 239
705 813 494 1321 -130 312 -434 552 -771 608 l-36 7 -7 77 c-42 505 -114 873
-257 1312 -122 376 -259 675 -510 1118 l-30 53 660 667 c364 367 854 860 1089
1095 l429 428 79 -3 80 -3 -3 -35 c-12 -135 -106 -442 -187 -617 -25 -53 -43
-98 -41 -100 2 -3 32 3 67 11 134 35 312 176 523 416 l48 55 -7 -75 c-3 -41
-24 -144 -46 -229 -21 -85 -37 -156 -35 -159 3 -2 26 24 53 59 26 35 80 101
119 148 39 47 97 122 129 166 61 85 150 258 161 313 6 29 9 32 44 32 l38 0 11
-75 c6 -42 11 -100 11 -130 0 -30 4 -55 9 -55 12 0 92 89 159 178 l54 72 144
0 c109 0 144 3 144 13 0 6 25 240 57 519 l57 508 -29 30 -28 30 26 87 c62 205
87 426 68 600 -14 126 -35 232 -62 321 -10 35 -17 68 -14 72 4 7 105 23 205
33 74 8 159 6 245 -3z m-1615 -2196 c0 -15 -62 -113 -95 -149 l-36 -40 6 55
c3 30 9 74 12 98 l5 42 54 0 c30 0 54 -3 54 -6z m-19365 -1319 l130 -15 120
-123 c345 -353 641 -771 880 -1242 783 -1544 667 -3237 -337 -4910 -107 -177
-264 -416 -376 -571 l-81 -111 -83 -16 c-256 -50 -684 -72 -950 -47 -445 40
-848 153 -1253 350 -1000 487 -1720 1438 -1920 2532 -46 253 -58 415 -52 713
6 277 20 413 66 637 191 918 727 1711 1511 2235 502 336 1085 534 1710 583
149 11 471 4 635 -15z m12460 -175 c189 -18 206 -21 195 -35 -8 -10 1 -23 37
-53 144 -120 455 -497 643 -779 452 -676 708 -1357 806 -2143 26 -206 27 -791
1 -1000 -119 -974 -496 -1892 -1164 -2834 l-103 -144 -52 -11 c-115 -25 -374
-52 -548 -58 -1102 -35 -2173 463 -2866 1333 -605 759 -871 1736 -734 2694
127 894 582 1693 1290 2263 556 448 1219 709 1955 770 92 8 448 6 540 -3z
m-6118 -2744 c189 -25 486 -87 506 -106 4 -3 1 -76 -8 -161 -36 -351 -29 -797
16 -1163 11 -87 18 -160 16 -162 -2 -2 -55 7 -118 21 -555 117 -1244 109
-1779 -20 -56 -14 -103 -25 -104 -25 -2 0 6 48 16 108 59 341 84 701 73 1057
-4 138 -8 270 -9 295 l-1 45 78 22 c154 44 412 88 627 107 100 9 580 -4 687
-18z m-197 -2146 c280 -20 524 -65 766 -141 l130 -41 38 -117 c363 -1113 1107
-2101 2079 -2763 223 -151 408 -258 652 -378 647 -318 1285 -489 2020 -541
212 -15 684 -6 885 16 724 79 1400 286 1988 606 l126 69 116 -15 c410 -52
1008 -56 1524 -10 1189 108 2421 454 3670 1032 76 35 141 62 143 59 10 -9 -60
-126 -122 -203 -275 -344 -843 -685 -1587 -954 -203 -73 -204 -69 23 -89 201
-18 669 -8 874 19 795 103 1503 379 2123 825 73 52 132 92 132 89 0 -13 -191
-292 -265 -388 -868 -1116 -2264 -1994 -3924 -2470 -107 -30 -197 -57 -199
-60 -8 -7 61 -44 139 -75 302 -117 794 -119 1419 -5 101 19 186 32 187 31 5
-5 -103 -154 -198 -275 -98 -125 -454 -485 -586 -594 -1190 -979 -2664 -1305
-4360 -963 -90 18 -163 30 -163 26 0 -18 113 -155 194 -235 282 -277 686 -451
1156 -498 l125 -13 -150 -36 c-577 -142 -1163 -206 -1785 -195 -404 8 -708 38
-1040 103 -1454 287 -2535 1119 -3195 2459 -140 286 -277 628 -366 922 -24 78
-45 140 -47 138 -12 -12 59 -407 109 -610 209 -840 576 -1582 1088 -2204 151
-184 486 -513 676 -665 167 -133 428 -313 600 -411 267 -154 614 -308 945
-421 85 -29 149 -53 142 -53 -19 -1 -233 51 -405 98 -952 264 -1795 674 -2293
1118 -47 41 -87 73 -90 71 -6 -7 109 -170 196 -278 172 -212 430 -474 700
-710 94 -82 399 -331 475 -387 l30 -22 -62 -1 c-82 0 -267 25 -417 56 -275 58
-587 186 -799 328 -53 37 -100 66 -104 66 -10 0 6 -123 27 -204 26 -103 77
-208 139 -288 28 -38 49 -68 47 -68 -3 0 -42 13 -87 30 -144 52 -308 150 -475
281 -108 85 -323 304 -414 421 -41 53 -75 96 -76 95 -1 -1 12 -54 28 -117 23
-89 31 -146 35 -251 7 -158 -9 -250 -59 -349 l-30 -61 -22 63 c-34 104 -84
176 -201 294 -135 136 -256 218 -503 341 -295 146 -534 318 -789 566 -501 489
-832 1077 -967 1714 -22 106 -24 129 -16 209 28 267 -9 556 -97 744 l-34 75
-21 -40 c-94 -180 -136 -440 -117 -720 11 -157 9 -180 -31 -350 -168 -710
-602 -1377 -1215 -1870 -131 -105 -338 -235 -526 -330 -294 -149 -478 -284
-595 -438 -47 -62 -114 -192 -114 -221 0 -39 -23 -22 -51 38 -34 74 -58 189
-59 286 0 114 36 307 77 417 4 10 -38 -38 -94 -107 -171 -212 -392 -416 -588
-543 -111 -71 -335 -177 -375 -177 -6 0 10 25 34 55 25 30 56 74 71 98 57 98
112 297 103 374 l-3 32 -100 -66 c-124 -81 -365 -200 -505 -247 -214 -72 -457
-121 -665 -133 l-110 -6 120 93 c298 231 539 445 785 696 228 232 401 440 490
589 l24 40 -63 -55 c-539 -470 -1273 -840 -2211 -1115 -173 -51 -543 -145
-565 -144 -5 0 80 30 190 68 245 83 411 150 620 251 927 446 1673 1172 2177
2120 237 445 445 1025 547 1531 29 138 73 420 68 425 -1 2 -22 -61 -45 -138
-165 -546 -419 -1094 -705 -1523 -659 -990 -1619 -1626 -2822 -1870 -366 -74
-651 -104 -1070 -112 -635 -12 -1267 59 -1840 205 l-110 29 94 7 c384 29 758
160 1030 361 95 70 236 209 303 299 32 43 57 80 56 81 -2 2 -52 -8 -113 -21
-909 -194 -1824 -186 -2615 22 -947 249 -1819 813 -2411 1559 -76 96 -172 235
-167 241 3 2 38 -3 79 -11 393 -83 837 -121 1119 -96 218 19 425 73 514 133
l36 25 -188 53 c-568 161 -1070 355 -1592 617 -332 166 -538 284 -815 468
-627 415 -1151 891 -1546 1405 -118 152 -276 392 -248 374 7 -4 63 -45 126
-90 568 -415 1274 -699 2005 -809 287 -43 744 -59 1008 -34 207 19 206 16 19
83 -648 232 -1146 509 -1458 811 -141 136 -241 266 -266 344 -7 22 -5 21 52
-7 77 -39 335 -156 498 -225 854 -364 1749 -628 2595 -766 849 -139 1730 -158
2360 -52 l105 18 85 -39 c261 -121 585 -240 847 -312 987 -271 2042 -254 3018
49 1540 478 2803 1651 3391 3148 30 78 59 152 64 164 6 15 38 32 113 61 404
156 900 225 1377 192z m6127 -9036 c-3 -3 -12 -4 -19 -1 -8 3 -5 6 6 6 11 1
17 -2 13 -5z"/>
<path d="M24575 9489 c-486 -37 -861 -143 -1122 -318 -245 -164 -383 -387
-383 -618 0 -289 188 -531 505 -654 163 -63 402 -109 570 -109 72 0 88 3 105
20 25 25 40 62 40 96 l0 25 41 -23 c22 -12 75 -59 118 -103 151 -157 288 -376
395 -628 226 -533 470 -894 654 -964 43 -16 45 -16 96 9 189 93 408 422 640
963 105 244 225 438 375 606 56 62 152 139 173 139 5 0 8 -18 8 -39 0 -28 8
-49 26 -70 25 -30 29 -31 108 -31 230 0 497 63 690 163 116 60 240 170 295
261 76 127 113 298 92 422 -62 356 -392 630 -917 763 -132 33 -303 62 -484 83
-146 16 -757 16 -935 0 -92 -8 -162 -9 -240 -2 -157 14 -708 20 -850 9z m1110
-198 c653 14 1006 -12 1351 -101 320 -83 561 -227 676 -404 54 -84 91 -206 82
-271 -15 -116 -75 -214 -177 -291 -78 -58 -134 -87 -245 -124 -85 -28 -291
-75 -298 -67 -2 2 12 22 31 44 43 50 108 78 160 69 50 -10 43 1 -17 29 -286
129 -628 -27 -918 -419 -97 -132 -126 -180 -301 -498 -271 -491 -445 -786
-484 -818 -11 -9 -21 0 -52 47 -87 128 -232 379 -468 808 -208 380 -298 508
-466 670 -192 185 -371 265 -560 251 -74 -5 -174 -35 -214 -63 -19 -14 -18
-14 14 -8 53 11 113 -12 162 -61 23 -24 41 -45 38 -48 -6 -6 -151 21 -236 44
-286 81 -464 242 -480 436 -11 124 50 257 172 379 156 155 391 260 740 330
284 58 538 75 975 68 184 -3 416 -4 515 -2z"/>
</g>
</svg>
