<svg width="22" height="35" viewBox="0 0 22 35" fill="currentColor" xmlns="http://www.w3.org/2000/svg">
    <path
        d="M14.5 12.5H7.5V9C7.5 8.0717 7.8687 7.1815 8.5251 6.5251C9.1815 5.8687 10.0717 5.5 11 5.5C11.9283 5.5 12.8185 5.8687 13.4749 6.5251C14.1313 7.1815 14.5 8.0717 14.5 9V12.5ZM21 12.5H19.5V9C19.5 6.7457 18.6045 4.5836 17.0104 2.9896C15.4164 1.3955 13.2543 0.5 11 0.5C8.7457 0.5 6.5836 1.3955 4.9896 2.9896C3.3955 4.5836 2.5 6.7457 2.5 9V12.5H1H0.5V13V27V27.2831L0.742802 27.4287L10.7428 33.4287L11 33.5831L11.2572 33.4287L21.2572 27.4287L21.5 27.2831V27V13V12.5H21ZM12.648 24.6449L12.5 24.7916V25V26.5H9.5V25V24.7916L9.352 24.6449C8.351 23.6524 7.701 22.3607 7.5002 20.966C7.509 20.05 7.8768 19.1735 8.5251 18.5251C9.1815 17.8687 10.0717 17.5 11 17.5C11.9283 17.5 12.8185 17.8687 13.4749 18.5251C14.1232 19.1735 14.491 20.0501 14.4998 20.966C14.299 22.3607 13.649 23.6524 12.648 24.6449Z"
    />
    <defs>
    </defs>
</svg>
