<svg width="14" height="14" viewBox="0 0 14 14" fill="currentColor" xmlns="http://www.w3.org/2000/svg">
    <path fill-rule="evenodd" clip-rule="evenodd"
          d="M11.9 4.89995C11.9 1.39995 7.00002 0.699951 7.00002 0.699951C7.00002 0.699951 2.10002 1.39995 2.10002 4.89995C2.10002 8.39995 2.24002 8.95995 1.40002 9.79995C1.40002 9.79995 2.03002 13.3 4.90002 13.3C4.90002 13.3 3.50002 11.9 4.90002 8.39995C4.90002 8.39995 2.80002 8.39995 3.50002 5.59995C4.04811 5.5702 4.5945 5.68365 5.08544 5.92912C5.57639 6.1746 5.99497 6.54363 6.30002 6.99995V10.5L7.00002 11.2L7.70002 10.5V6.99995C7.99532 6.53405 8.41208 6.15748 8.90545 5.91079C9.39882 5.66411 9.95012 5.55664 10.5 5.59995C11.2 8.39995 9.10002 8.39995 9.10002 8.39995C10.5 11.97 9.10002 13.3 9.10002 13.3C11.97 13.3 12.6 9.79995 12.6 9.79995C11.76 8.95995 11.9 8.39995 11.9 4.89995Z"
    />
</svg>
