<svg width="27" height="25" viewBox="0 0 27 25" fill="currentColor" aria-hidden="true"
     xmlns="http://www.w3.org/2000/svg">
    <path
        d="M12.9912 11.4527L10.6113 8.73284L10.9513 7.37289L18.4309 1.93316L22.8086 2.31653L24.0218 4.04124L19.1374 7.32311L26.5202 18.0404L24.8532 19.213L17.4456 8.45982L12.9912 11.4527Z"
    />
    <path fill-rule="evenodd" clip-rule="evenodd"
          d="M4.2587 16.1978L8.14501 10.7994L14.5487 12.5991L16.7413 18.8684L12.855 24.2669L6.45127 22.4672L4.2587 16.1978ZM10.3333 13.5703L12 19.2845L7 21.5703L9.22222 18.1417L10.3333 13.5703Z"
    />
    <path d="M5.5 8L4.5 0L8 6L8.5 9L5.5 8Z"/>
    <path d="M4.5 9.5L0 8L4 11.5L5.5 10.5L4.5 9.5Z"/>
</svg>
