<svg width="14" height="14" viewBox="0 0 14 14" fill="currentColor" xmlns="http://www.w3.org/2000/svg">
    <path fill-rule="evenodd" clip-rule="evenodd"
          d="M12.5992 2.79999L9.48822 3.42469C9.48822 3.42469 8.68031 2.79999 7.00002 2.79999C5.31973 2.79999 4.51101 3.42469 4.51101 3.42469L1.40002 2.79999L2.02239 5.92516L1.40002 7.80011C2.14677 9.30023 4.26222 11.55 7.00002 11.55C9.73783 11.55 11.6045 9.55011 12.6 7.80011L11.9777 5.92516L12.5992 2.79999ZM3.26587 7.17498V6.54986C3.26587 6.54986 3.76177 5.30005 4.51017 5.30005C5.25858 5.30005 5.75447 6.54986 5.75447 6.54986V7.17498C5.60959 6.98089 5.42171 6.82335 5.2057 6.71484C4.98969 6.60634 4.75149 6.54986 4.50997 6.54986C4.26845 6.54986 4.03024 6.60634 3.81423 6.71484C3.59822 6.82335 3.41034 6.98089 3.26546 7.17498H3.26587ZM8.86587 8.42482C8.86587 8.42482 8.24351 9.67463 6.9992 9.67463C5.7549 9.67463 5.13254 8.42482 5.13254 8.42482V7.79968C5.67105 8.20538 6.32605 8.42469 6.9992 8.42469C7.67236 8.42469 8.32736 8.20538 8.86587 7.79968V8.42482ZM10.7325 7.17498C10.5996 6.96435 10.4157 6.7909 10.1982 6.67071C9.98061 6.55052 9.73633 6.48752 9.48802 6.48752C9.23972 6.48752 8.99544 6.55052 8.77787 6.67071C8.5603 6.7909 8.37649 6.96435 8.24351 7.17498V6.54986C8.24351 6.54986 8.61544 5.30005 9.48782 5.30005C10.3602 5.30005 10.7321 6.54986 10.7321 6.54986L10.7325 7.17498Z"
    />
</svg>
