<svg width="26" height="24" viewBox="0 0 26 24" fill="currentColor" xmlns="http://www.w3.org/2000/svg">
    <path
        d="M9.89598 3.43643C9.89598 3.1665 10.0029 2.92524 10.1835 2.7437C10.364 2.56455 10.604 2.45467 10.8724 2.45467H15.1299C15.3984 2.45467 15.6383 2.56216 15.8189 2.7437C15.9971 2.92524 16.1063 3.1665 16.1063 3.43643V4.20321H17.7029V3.43643C17.7029 2.72459 17.4107 2.07486 16.9474 1.60906C16.4817 1.14326 15.8355 0.851837 15.1275 0.851837H10.8724C10.1644 0.851837 9.51823 1.14326 9.05495 1.61145C8.59166 2.07725 8.29944 2.72698 8.29944 3.43882V4.20559H9.89598V3.43643Z"
    />
    <path
        d="M15.3171 15.7357C14.8657 16.0882 14.3055 16.2803 13.7268 16.2803H13.7129L12.2476 16.2736C11.6736 16.2713 11.118 16.0792 10.6713 15.7289L4.66663 11.037V20.814C4.66663 22.057 5.70829 23.0741 6.98144 23.0741H19.0185C20.2916 23.0741 21.3333 22.057 21.3333 20.814V11.037L15.3171 15.7357Z"
    />
    <path
        d="M21.3949 5.05121H4.60508C3.94936 5.05121 3.41718 5.58628 3.41718 6.24557V7.11267C3.41718 7.47576 3.58111 7.81973 3.86383 8.04427L11.5021 14.188C11.7111 14.3553 11.9701 14.4484 12.2386 14.4508L13.7424 14.458H13.7496C14.0204 14.458 14.2818 14.3648 14.4908 14.1952L22.1386 8.04427C22.4213 7.81734 22.5852 7.47576 22.5852 7.11267V6.24557C22.5828 5.58628 22.0506 5.05121 21.3949 5.05121Z"
    />
    <path
        d="M2.8148 21.2222H2.28651C1.55751 21.2222 0.962952 20.4597 0.962952 19.5301V14.3014L2.79208 11.963L2.8148 21.2222Z"
    />
    <path
        d="M23.1852 21.2222H23.7135C24.4406 21.2222 25.037 20.4621 25.037 19.5301V14.3014L23.2079 11.963L23.1852 21.2222Z"
    />
</svg>
