<svg width="192" height="192" viewBox="0 0 192 192" fill="currentColor" xmlns="http://www.w3.org/2000/svg">
    <path
        d="M9.80648 114.403C6.38884 120.01 0.110392 130.742 0.110392 137.131C0.110392 143.722 3.79201 149.467 9.20167 152.419C10.0129 158.539 11.2801 164.866 13.0609 171.389C5.88005 179.194 11.4673 191.866 22.0178 191.866H27.1442L27.2451 192C33.8068 192 165.357 192 173.901 192C184.212 192 190.313 179.669 182.464 171.35C183.055 165.053 184.125 148.44 181.039 132.269L186.847 134.434C186.847 134.434 187.624 121.666 183.501 104.4C194.042 93.888 194.345 77.2656 186.799 64.0656C189.693 60.3936 191.421 55.7664 191.421 50.7408V13.4736C191.421 6.0528 185.388 0 177.943 0H161.752C154.322 0 148.278 6.04801 148.278 13.4784V30.0816L139.672 37.1136L135.813 20.352C135.813 20.352 123.313 22.3152 118.249 27.6576C114.256 20.3136 108.025 0.00480469 108.025 0.00480469C108.025 0.00480469 88.9834 6.74882 74.0457 23.568L65.535 17.0016C65.535 17.0016 55.7957 30.5472 46.9444 41.328C22.5362 36.672 0 55.3488 0 80.1168C0 90.816 4.25765 100.512 11.1649 107.626C10.6513 109.838 10.2001 112.099 9.80648 114.403ZM17.5202 116.544C19.9106 120.288 27.2451 132.504 27.2451 137.131C27.2451 142.531 22.8243 146.856 17.5202 146.856C12.0865 146.856 7.79528 142.411 7.79528 137.131C7.79048 132.514 15.0962 120.341 17.5202 116.544ZM18.7298 176.573C30.3028 164.429 29.866 164.774 31.33 163.69C37.6084 159.038 46.5509 159.701 52.047 165.566C58.9782 172.91 55.5221 169.248 62.535 176.678C65.199 179.549 63.2599 184.19 59.2422 184.19C55.3734 184.19 27.9555 184.19 22.0178 184.19C18.1201 184.186 16.0514 179.458 18.7298 176.573ZM136.955 184.325C133.12 184.325 131.065 179.659 133.749 176.87C137.31 173.093 136.115 174.365 144.098 165.893C150.338 159.336 160.687 159.403 166.763 165.893C180.036 179.966 165.256 164.294 177.112 176.87C179.805 179.664 177.837 184.325 173.906 184.325C169.893 184.325 140.411 184.325 136.955 184.325ZM133.149 95.976C140.282 95.976 146.066 101.76 146.066 108.893C146.066 116.006 140.296 121.81 133.149 121.81C126.016 121.81 120.232 116.026 120.232 108.893C120.232 101.813 125.973 95.976 133.149 95.976ZM155.954 13.4832C155.954 10.2816 158.551 7.6848 161.752 7.6848H177.943C181.144 7.6848 183.741 10.2816 183.741 13.4832C183.741 54.1296 184.312 53.2848 182.032 57.432C175.144 69.96 155.959 65.1552 155.959 50.7504C155.959 47.1408 155.959 18.1584 155.954 13.4832ZM155.387 83.7408C155.387 76.0944 162.707 71.232 170.268 71.4192C177.223 71.592 184.312 76.1232 184.312 83.736C184.317 99.8496 155.392 99.5472 155.387 83.7408ZM69.2504 27.6576C69.2504 27.6576 72.7063 30.2832 76.2152 34.8336C91.3401 20.16 103.864 12.1104 103.864 12.1104C106.014 23.5584 109.451 33.3984 113.636 42.2112C117.088 38.328 122.104 34.248 129.342 31.0752C129.448 35.0016 130.523 43.5696 133.393 52.2C140.296 46.2528 137.306 48.8304 143.051 43.8816C143.675 45.0576 145.648 48.6096 148.408 53.04C149.037 58.968 152.07 64.1856 156.515 67.6944C149.613 72.3024 146.69 79.8096 148.014 87.1344C130.523 75.168 106.801 87.8256 106.801 108.898C106.801 129.499 129.39 142.018 146.81 131.443C157.399 125.016 162.026 112.176 158.157 100.565C164.709 104.098 172.912 104.434 179.848 101.4C177.141 104.28 173.479 106.824 168.588 107.971C172.077 111.499 174.396 115.973 175.706 120.782L168.112 118.229C176.095 137.376 176.57 152.112 174.405 162.802C172.413 160.69 166.576 153.326 155.479 153.326C149.205 153.326 143.133 155.741 137.958 161.227L128.19 171.586C125.67 174.226 124.533 177.806 124.955 181.32C116.267 182.635 106.566 183.293 96.1642 183.293C87.3321 183.293 78.98 182.755 71.2951 181.627C71.8903 177.802 70.604 174.029 68.1272 171.413L57.6486 160.315C48.5237 150.59 32.8996 150.451 23.6451 160.301L20.8514 163.234C20.1506 160.584 19.5889 157.661 19.2337 154.464C27.965 153.61 34.9347 146.222 34.9347 137.141C34.9347 128.952 24.8546 113.755 20.1793 106.445C23.9042 97.704 29.7651 88.2144 35.2708 80.4672C32.4052 80.2704 30.3891 80.5536 30.3891 80.5536C31.7859 75.1392 36.7492 71.2128 41.9332 68.5056C42.13 65.3328 43.162 61.3728 45.8548 56.6688C45.8548 56.6688 46.9397 57.432 48.5573 58.4064C50.3861 55.7424 66.8168 34.6512 69.2504 27.6576ZM11.0497 97.2048C2.00643 68.1552 22.1474 51.1296 40.426 49.2144C40.5364 49.2048 40.6468 49.1904 40.7572 49.1808C32.2755 59.4384 21.7058 80.328 16.9202 97.608C15.7154 100.21 11.8993 99.9312 11.0497 97.2048Z"
    />
    <path
        d="M71.1129 159.739C70.3017 162.206 72.1017 164.75 74.6986 164.75H118.95C121.547 164.75 123.347 162.202 122.536 159.739C118.979 148.939 108.817 141.144 96.8221 141.144C84.8267 141.144 74.6698 148.939 71.1129 159.739Z"
    />
    <path
        d="M37.1236 98.1314C29.3571 115.464 42.0341 135.245 61.1768 135.245C75.7305 135.245 87.529 123.447 87.529 108.893C87.529 94.3346 75.7209 82.541 61.1768 82.541C50.8518 82.541 41.4053 88.5794 37.1236 98.1314ZM61.1816 95.9762C68.3192 95.9762 74.0985 101.76 74.0985 108.893C74.0985 116.026 68.3144 121.81 61.1816 121.81C54.0199 121.81 48.2645 115.992 48.2645 108.893C48.2597 101.77 54.0487 95.9762 61.1816 95.9762Z"
    />
</svg>
