<svg width="14" height="14" viewBox="0 0 14 14" fill="currentColor" xmlns="http://www.w3.org/2000/svg">
    <path fill-rule="evenodd" clip-rule="evenodd"
          d="M6.99995 2.10001C4.26995 2.10001 0.699951 0.700012 0.699951 0.700012V4.20001C0.699951 11.2 6.99995 13.3 6.99995 13.3C6.99995 13.3 13.3 11.13 13.3 4.20001V0.700012C13.3 0.700012 9.72995 2.10001 6.99995 2.10001ZM2.09995 5.60001C2.09995 4.90001 3.00995 4.90001 3.49995 4.90001C3.94033 4.93491 4.36446 5.08187 4.73202 5.32692C5.09959 5.57196 5.39836 5.90693 5.59995 6.30001C5.60386 6.48494 5.57033 6.66875 5.50135 6.84037C5.43238 7.012 5.32941 7.16789 5.19862 7.29868C5.06783 7.42947 4.91192 7.53245 4.7403 7.60143C4.56868 7.6704 4.38487 7.70393 4.19995 7.70001C3.65855 7.65365 3.15092 7.41751 2.76669 7.03327C2.38246 6.64904 2.14632 6.14142 2.09995 5.60001V5.60001ZM6.99995 11.2C6.37287 11.1844 5.76623 10.9738 5.2644 10.5974C4.76258 10.221 4.39052 9.69765 4.19995 9.10001C5.04624 9.59852 6.01864 9.84162 6.99995 9.80001C7.97787 9.81068 8.9421 9.56963 9.79995 9.10001C9.60939 9.69765 9.23732 10.221 8.7355 10.5974C8.23368 10.9738 7.62704 11.1844 6.99995 11.2V11.2ZM9.79995 7.70001C9.61503 7.70393 9.43123 7.6704 9.2596 7.60143C9.08798 7.53245 8.93208 7.42947 8.80129 7.29868C8.6705 7.16789 8.56752 7.012 8.49855 6.84037C8.42958 6.66875 8.39604 6.48494 8.39995 6.30001C8.60154 5.90693 8.90032 5.57196 9.26788 5.32692C9.63544 5.08187 10.0596 4.93491 10.5 4.90001C10.99 4.90001 11.9 4.90001 11.9 5.60001C11.8536 6.14142 11.6174 6.64904 11.2332 7.03327C10.849 7.41751 10.3414 7.65365 9.79995 7.70001V7.70001Z"
    />
</svg>
