<svg xmlns="http://www.w3.org/2000/svg" viewBox="0 0 20 19" fill="currentColor">
    <g id="Layer_2" data-name="Layer 2">
        <g id="store-icon">
            <g id="Three_Coins_Final" data-name="Three Coins Final">
                <g id="Left_Final" data-name="Left Final">
                    <path class="cls-1"
                          d="M3.8,10.24h.14V8.52a3.59,3.59,0,0,1,1.3-2.7A6,6,0,0,0,3.8,5.65C1.7,5.65,0,6.68,0,8S1.7,10.24,3.8,10.24Z"/>
                    <path class="cls-1"
                          d="M3.94,13.43s0-.1,0-.14h0V12.07H3.8A6.84,6.84,0,0,1,0,11v1.46c0,1.24,1.7,2.24,3.8,2.24h.14Z"/>
                </g>
                <g id="Middle_Final" data-name="Middle Final">
                    <path class="cls-1"
                          d="M9.54,6.23a6.4,6.4,0,0,0-.77,0,5.65,5.65,0,0,0-1.36.35,3.71,3.71,0,0,0-1,.62,1.75,1.75,0,0,0-.65,1.28c0,1.27,1.71,2.3,3.81,2.3s3.8-1,3.8-2.3h0C13.34,7.26,11.64,6.23,9.54,6.23Z"/>
                    <path class="cls-1"
                          d="M9.54,15.21c2.14,0,3.75-1,3.8-1.88V11.6a6.81,6.81,0,0,1-3.8,1.05A6.87,6.87,0,0,1,5.73,11.6v1.73C5.79,14.23,7.39,15.21,9.54,15.21Z"/>
                    <path class="cls-1"
                          d="M13.34,16.33v-.26a7.31,7.31,0,0,1-3.8,1,7.34,7.34,0,0,1-3.81-1v.26C5.73,17.8,7.44,19,9.54,19S13.34,17.8,13.34,16.33Z"/>
                </g>
                <g id="Right_Final" data-name="Right Final">
                    <path class="cls-1"
                          d="M16.2,4.59c2.1,0,3.8-1,3.8-2.29a1.5,1.5,0,0,0-.08-.47C19.57.79,18,0,16.2,0s-3.37.79-3.73,1.83a1.5,1.5,0,0,0-.08.47C12.39,3.57,14.1,4.59,16.2,4.59Z"/>
                    <path class="cls-1"
                          d="M15.14,10.61V13a6,6,0,0,0,1.06.1c1.94,0,3.45-.8,3.8-1.62V9.72a7.43,7.43,0,0,1-3.8,1A9.13,9.13,0,0,1,15.14,10.61Z"/>
                    <path class="cls-1"
                          d="M14.16,6.16a3.46,3.46,0,0,1,1,2.36v.23a6,6,0,0,0,1.06.09c1.94,0,3.45-.79,3.8-1.61V5.37a6.84,6.84,0,0,1-3.8,1.06A7.8,7.8,0,0,1,14.16,6.16Z"/>
                    <path class="cls-1"
                          d="M15.14,14.9v1.43a3.71,3.71,0,0,1,0,.47,5.44,5.44,0,0,0,1.09.11c2.1,0,3.8-1.11,3.8-2.49V14a7.43,7.43,0,0,1-3.8,1A7.35,7.35,0,0,1,15.14,14.9Z"/>
                </g>
            </g>
        </g>
    </g>
</svg>
