<svg width="32" height="34" viewBox="0 0 32 34" fill="currentColor" xmlns="http://www.w3.org/2000/svg">
    <path fill-rule="evenodd" clip-rule="evenodd"
          d="M8.23077 30L2 24.8077V7.61692C2 6.51235 2.89543 5.61692 4 5.61692H4.61692L4.61692 5C4.61692 3.89543 5.51235 3 6.61692 3H7.80923C8.9138 3 9.80923 3.89543 9.80923 5V5.61692H21.0964L21.1212 4.9279C21.16 3.85209 22.0434 3 23.1199 3H24.3831C25.4876 3 26.3831 3.89543 26.3831 5V5.61692H27C28.1046 5.61692 29 6.51236 29 7.61692V9.48H2V11.64H29V30H8.23077ZM17.369 17.8088L15.5001 13.827L13.6311 17.8088L9.45215 18.4472L12.4762 21.5467L11.7623 25.923L15.5001 23.8568L19.238 25.923L18.5242 21.5467L21.5481 18.4472L17.369 17.8088Z"
    />
</svg>
