<svg width="12" height="14" viewBox="0 0 12 14" fill="currentColor" xmlns="http://www.w3.org/2000/svg">

    <path
        d="M9.14282 0H6.85711C6.85711 0.669565 6.34282 1.21739 5.71425 1.21739C5.08568 1.21739 4.57139 0.669565 4.57139 0H2.28568C1.65711 0 1.14282 0.547826 1.14282 1.21739V9.73913C1.14282 10.4087 1.65711 10.9565 2.28568 10.9565C4.47425 10.9565 10.2857 7.30435 10.2857 5.47826V1.21739C10.2857 0.547826 9.77139 0 9.14282 0ZM7.70282 5.39913L4.57139 7.26783C4.57139 7.26783 4.38854 7.30435 4.28568 7.30435C3.81711 7.30435 3.42854 6.89043 3.42854 6.3913V3.34783C3.42854 2.84261 3.81711 2.43478 4.28568 2.43478C4.38854 2.43478 4.57139 2.4713 4.57139 2.4713L7.70282 4.34C7.87997 4.43739 7.99997 4.63826 7.99997 4.86957C7.99997 5.10087 7.87997 5.30174 7.70282 5.39913Z"
    />
    <path
        d="M0 12.2348C0 14.0365 3.82857 12.7339 5.71429 11.7843C6.54857 11.3643 7.77714 10.8287 8.49143 10.3356C8.52 10.3174 8.55429 10.3235 8.57143 10.3478C8.58857 10.3721 8.58857 10.4148 8.56571 10.433C7.62286 11.8695 5.41714 12.813 4.10857 13.2148C4.06286 13.2269 4.03429 13.2756 4.04 13.3243C4.04571 13.373 4.09143 13.4095 4.13714 13.4095C7.60571 13.2939 11.4229 10.1043 11.4229 6.59215C11.4743 6.19649 11.3143 5.94693 11.0686 5.79476C11.0171 5.76432 10.9543 5.77041 10.9086 5.80693C10.8629 5.84345 10.8457 5.91041 10.8629 5.97128C11.1486 6.86606 8.71429 9.04519 5.71429 10.5608C3.57714 11.6382 1.74857 12.1008 0.971429 11.833C0.594286 11.6991 0.48 11.4069 0.605714 11.0417C0.617143 11.0052 0.605714 10.9687 0.571429 10.9504C0.537143 10.9321 0.502857 10.9443 0.48 10.9748C0.188571 11.3948 0 11.8391 0 12.2287V12.2348Z"
    />

</svg>
