<svg xmlns:xlink="http://www.w3.org/1999/xlink" class="w-auto mr-2 transition-transform h-9 hover:scale-125" alt="Heimerdinger Logo" xmlns="http://www.w3.org/2000/svg" viewBox="0 0 1225.29 1201.54" width="1225.29"  height="1201.54" >
<path d="M1225.2 595.16a57.88 57.88 0 0 0-2.57-15l-2.45-7-6.33 3.86q-3.36 2-6.64 4l-.63.38-6.12 3.59-.95.55-5.83 3.33-1 .57-5.62 3.12-1 .55-5.5 3-.83.44q-2.76 1.47-5.44 2.86l-.53.28-5 2.57-.9.45-4.81 2.39-1.23.6q-2.25 1.1-4.44 2.13l-1.4.67-4.15 1.93-1.5.69-3.92 1.76-2 .9a87.57 87.57 0 0 0 8.91-7.14c15.36-14 34-41.16 35.6-91 .47-14.63-1.61-28.17-6.17-40.27v-.68l-.64-1c-8.28-20.67-24.29-37.5-46.36-48.7a143.63 143.63 0 0 0-32.89-11.69 114.04 114.04 0 0 0 2.17-4.64c10.24-23.25 2.91-33.4-5.57-45.15-5.91-8.18-14-19.39-20.55-41.67-6.79-23.08-17.76-38.66-32.6-46.29a44.08 44.08 0 0 0-20.36-5h-.41c-14.41-45.49-39.32-68.58-58-80a101.36 101.36 0 0 0-38.1-14.21 157.92 157.92 0 0 0-18-14.26l-.39-.28h0c-24.48-16.41-46.33-19.87-60.37-19.87h-.45a88.57 88.57 0 0 0-20.13 2.38c-4-13.07-6.58-25.8-8.91-37.2-2.83-13.84-5.28-25.8-9.45-34.85-5.56-12.07-14-18.18-25.16-18.18-.71 0-1.43 0-2.16.08-26.49 1.86-46.91 31.54-56.92 49.52a250.21 250.21 0 0 0-77.88-38.64c-16.48-17-9.51-43.12-9.45-43.35l3.13-10.78-10.93-2.81A238.76 238.76 0 0 0 570.26 0a268.34 268.34 0 0 0-41.89 3.37c-28.63 4.56-58 13.71-87.25 27.2-43.57 20.09-73.51 43.49-81.16 49.74-52.84 15.77-81.29 40.57-95.87 58.68a109.54 109.54 0 0 0-17.09 29q-1 0-2 0c-25.34 0-57.37 13.43-76.15 31.94-14.68 14.47-20.75 30.85-17.56 47.35a137.5 137.5 0 0 1 2.33 16.71 47 47 0 0 0-24.64-7.16 36.84 36.84 0 0 0-4.31.24l-7.9.95-1.58 7.8c-2.95 14.55-11.22 28.29-19.22 41.58-11.85 19.7-24.1 40.07-18.81 63.21a60.11 60.11 0 0 0 6.69 16.48c-12 11.16-11.52 21.8-10.93 34 .48 10.08 1.13 23.89-5.53 46.12-6.91 23-6.22 42.08 2 56.58a44.13 44.13 0 0 0 14.7 15.49c-7.43 26.75-8.57 51.72-3.41 74.46h-.06l-2.83-1.26-2-.89-2.86-1.31-2.06-1-2.5-1.18-2.55-1.21-4.36-2.13-3.26-1.62-2.64-1.32-3-1.54-2.44-1.26-2.72-1.43-2.86-1.51-2.81-1.52-2.94-1.6-2.85-1.57-3.03-1.72-2.84-1.6-3.32-1.9-2.73-1.58-3.81-2.24-2.39-1.41q-3.13-1.86-6.34-3.81l-6.33-3.86-2.45 7c-.49 1.4-11.49 34 14.78 64.91 6.52 66.09 16.37 79.35 24.3 90 7.07 9.51 11.9 24.46 11.92 24.52 8.16 26.86 16.62 44 28.29 57.18 12.21 13.84 27.68 22.88 47.16 32.21 26.89 12.88 34.44 19.17 36.33 21.09v1.75l3 1.74a33.23 33.23 0 0 0 5.2 2.4 42.32 42.32 0 0 0-7.14 8.14l-6.89-2.93 4.88 6.44-.07.15.43.33 8.38 11 2.1 2.72.35.44q.84 1.07 1.68 2.1l.57.71 1.4 1.7.69.82 1.33 1.56.67.77 1.85 2.1 1.82 2 1.8 1.92.38.39c2.74 2.85 5.51 5.53 8.22 8 1.63 1.45 3.26 2.83 4.87 4.13l2.3 4.06q.52.93 1.05 1.8l-3.93-.78-4.46 10.9 1.78 1.18a26.64 26.64 0 0 0-17.23 18.41l-3.28 14.11 12.19-7.59c-6.82 11-6.35 23.38-6.31 24.14l.91 19 10.15-16.12a52.43 52.43 0 0 1 42.82-21.53 66 66 0 0 1 13.51 1.46l.12 6.08a35.82 35.82 0 0 0 7.14 20.34 216.18 216.18 0 0 1-36.17-25l-9.44 6.93a164.09 164.09 0 0 0 57.05 69.48l-5.17-1 9.28 12.53c18.79 25.38 39.75 43.94 62.32 55.17a119.81 119.81 0 0 0 26.89 9.7l-1.15 6.41c24.64 10.24 48.5 15.88 70.91 16.75 2 .07 3.94.11 5.89.11h.78l-3.18 1c-2.52.75-5.06 1.46-7.77 2.18-4.57 1.22-7.41 1.84-7.44 1.85l.11 11.75a73.25 73.25 0 0 0 8.23 1.09c2.4.2 4.87.29 7.53.29h.48a129.37 129.37 0 0 0 14.21-.9l1.09 9.57c2.56.13 5.15.19 7.69.19a151.31 151.31 0 0 0 30.58-3.05l.49 3.44c4.11.39 8.1.59 11.86.59 18.51 0 29.76-4.79 36.42-9.71 5.63 14.94 19.57 20.26 20.31 20.53l20.8 7.67-14.1-17.12c-.39-.47-9.43-11.63-3-20.08a17.2 17.2 0 0 1 3.18-3.13 28.12 28.12 0 0 1 4-2.51 108.42 108.42 0 0 0 39.37-36.08l.08-.14.07-.14c1-1.81 1.86-3.59 2.7-5.36.84 1.76 1.74 3.55 2.69 5.35l.08.15.09.14a108.17 108.17 0 0 0 39.38 36 27.63 27.63 0 0 1 4.16 2.67 16.08 16.08 0 0 1 3.13 3.16c6.21 8.39-2.74 19.44-3.12 19.91l-14.09 17.1 20.79-7.66c.74-.27 14.65-5.58 20.29-20.49 6.82 5.08 18.07 9.67 36.45 9.67 3.75 0 7.73-.2 11.84-.59l.49-3.44a151.34 151.34 0 0 0 30.59 3.05c2.54 0 5.13-.06 7.69-.19l1.09-9.57a129.35 129.35 0 0 0 14.2.9h.48c2.63 0 5.17-.1 7.51-.29a72.66 72.66 0 0 0 8.23-1.09l.14-11.75s-2.87-.63-7.45-1.85c-2.69-.71-5.23-1.43-7.77-2.18l-3.18-1h.79c2 0 3.93 0 5.88-.11 22.42-.87 46.28-6.51 70.92-16.75l-1.15-6.41a120 120 0 0 0 26.89-9.7c22.56-11.23 43.53-29.79 62.32-55.17l9.28-12.53-5.23 1a164.13 164.13 0 0 0 57.11-69.49l-9.43-6.94a217.71 217.71 0 0 1-36.15 25 35.8 35.8 0 0 0 7.11-20.31l.12-6.08a65.83 65.83 0 0 1 13.5-1.45c28.64 0 42.28 20.67 42.83 21.52l10.15 16.07.91-19c0-.76.51-13.16-6.32-24.15l12.21 7.61-3.29-14.12a26.7 26.7 0 0 0-17.24-18.41l1.79-1.18-4.46-10.9-3.93.78q.53-.87 1.05-1.8l2.31-4.08 1.67-1.37-.54-.64.06-.09.57.65a112.61 112.61 0 0 0 2.24-1.93l.11-.09c.69-.6 1.38-1.22 2.08-1.87l.11-.08.22-.22 2.31-2.18.13-.12a151.62 151.62 0 0 0 4.88-4.94l.29-.3c.45-.47.89-1 1.33-1.42l.58-.64 1.06-1.16 1.71-1.93.7-.82 1-1.2 1.78-2.12 1-1.18.83-1 1.8-2.27 1.81-2.35 8.39-11.07.41-.3s0-.07-.07-.14l4.89-6.44-6.9 2.92a42 42 0 0 0-7.14-8.14 32.34 32.34 0 0 0 5.2-2.4l3-1.73v-1.77c1.89-1.91 9.43-8.2 36.32-21.08 30.87-14.78 49.14-27.67 63.3-57.09a224.07 224.07 0 0 0 12.12-32.21c0-.15 4.89-15.1 12-24.61 7.93-10.68 17.78-23.94 24.3-90a76.21 76.21 0 0 0 10.62-16.28 69.26 69.26 0 0 0 2.47-5.83c.73-1.97 1.31-3.77 1.84-5.68a68.17 68.17 0 0 0 1.73-8.12c.25-1.66.44-3.36.57-5a69.69 69.69 0 0 0 .21-4.7c.02-1.55-.06-2.91-.13-4.33z"></path>
<path d="M154.7 716.78s-22.3-12.7-25.39-27.73-3.76-22.71-8.16-26.78-28.78-20-27.69-41-7.66-43-7-45.35L97.7 537.8l-17.7-15s-10.21-17.71-8.51-27.58 6.81-34.38 8.51-41.19 4.77-9.87 4.08-21.11 5.58-33.63 7.49-36.63 6.8-10.36 3.8-15.81-16-10.55-8.85-27.92 24.77-49 26.51-53.1 14.34-30.64 14.34-30.64 13.28.68 16.68 3.06 14.32 12.26 14.32 12.26 5.78-10.56 5.78-15.32-5.1-32-2-38.13 24.85-32.68 26.9-33.7 32.26-10.32 33.32-11.27 29.27-5.75 29.27-5.75 17.71-27.58 18.73-30.64 35.4-34 35.4-34l27.24-12.94 34-11.94 45.62-33s56.21-25 61.13-28.35 45.08-12.82 51.21-13.85 61.27-1.71 61.27-1.71l41.87 5.11s-1.36 12.93 0 20.76 9.88 24.51 11.92 28.26 10.18 14.44 10.18 14.44 4.91-3.09 5.16-2.8 75.07 38.6 75.07 38.6 17.25-24.94 18-27.46 27.82-21.93 27.82-21.93 15.32-2 16.6-1.28 15.07 17.11 15.58 20.17 1.53 19.15 3.57 27.07 13.3 43.75 13.3 43.75 2.42-6.48 16.14-6.48 38.22 7.79 49.45 12.58 38.38 21.43 38.38 21.43 42.37 16 50.51 26.25 22.43 34.21 25 37.27 14.58 33.39 14.58 33.39 17.74-1.79 24 4 22 23.36 22.85 29.74 4 17.49 5 19.66 15.45 26.68 16.47 28.09 7.4 16.21 9.06 22.21 1.15 11.11 0 13.92-9.23 21.51-9.23 21.51 43.28 17.65 55.14 20.41 34 34.35 34 34.35-1.25 26.92 0 35.13-3.63 30.77-8 40.38 4 27.74-5.65 29-15.51 20.74-20.38 19.21-30.74 16.59-30.74 16.59 6.32.06 8.52 24-16.3 54.15-17 55.61-5.11 16-13.79 20.27-34.85 26.25-37.08 26.25-21.7 2.49-21.7 2.49a98.15 98.15 0 0 0-16.32 8.62c-7.94 5.3-19.88 17.88-19.88 17.88L277.91 824.8l-60.21-24.58s-4.74-42.24-12-47.31-20.21-10.93-23.63-14.83-27.37-21.3-27.37-21.3z" fill="#FEA84A"></path>
<path d="M235.64 893.05l.61-1.58c-10.77-11.69-39.31-15.61-39.31-15.61 3.89-3.81 22-8.24 22-8.24a86 86 0 0 0-13.35.83h0l-19-3.36c1.69-10.41 3.78-36.51-14.13-49.86 5-.2 17 3.61 22.44 9.68l-3.37-7c-.17-.25-11.08-21.67-7.89-38.14 2.9 5.51 7.89 10.52 15.59 10l1.63-.11 1-1.33c.54-.76 11.4-16.45-3.5-40.48 6.09 3.73 12.88 9.77 15.91 19l3.64 11.1 3-11.29c0-.15 3.74-13.54 13.64-22.51l-2.83-6.74c-7.24 5.82-11.83 13.58-14.49 19.38a43.52 43.52 0 0 0-11.36-12.27c-1.9 1.53-3.38 2.42-3.38 2.6 0 .51-13.78-1.54-18.38-2.56s-28.09-19.4-32.17-23.25-12.68-15.55-13.7-19.64-6.13-19.4-9.19-27.06-15.63-18.67-18.38-20.94c-.86-.71-2.86-4.47-5.19-9.3a61.29 61.29 0 0 0-2.17-.87s.57-.14 1.59-.32c-2.44-5.12-5.18-11.19-7.35-16.11-22.89-8.71-52.69-22.63-89.19-44.87 0 0-11 31.35 14.91 60.43 6.26 65.12 15.67 78.63 23.33 88.94 7.77 10.46 12.84 26.36 12.84 26.36 7.79 25.64 15.88 42.3 27.05 55s25.29 21.21 45.25 30.77c39.46 18.9 39.74 24.63 39.74 24.79 6.67 3.85 14.38 4.18 20.78 3.4-17.23 6.54-22.28 18.36-22.28 18.36 16.73-13.74 49.89-3 49.89-3h-35c5.6 12.88 14.35 17.32 15.42 17.82L178 895.61q4.26 5.61 8.3 10.25a155.66 155.66 0 0 0 13.78 14.09 46.57 46.57 0 0 0 8 .75c-10.21-7.41-14.37-13.44-14.37-13.44 9.84 5.75 26.12 7.63 29.76 8l.24-.22a128.08 128.08 0 0 1-13.82-9c-10.8-8.2-13.2-13.62-13.2-13.62 15.62 4.95 33.53 1.79 38.95.63z" fill="#C55827"></path>
<path d="M1154.07 789.36c-13.19 27.4-30.15 39.76-60.49 54.29-39.44 18.89-39.73 24.62-39.73 24.79-6.68 3.84-14.39 4.18-20.79 3.4 17.23 6.54 22.28 18.36 22.28 18.36-16.72-13.74-49.89-3-49.89-3h35c-5.61 12.88-14.36 17.32-15.43 17.82l22.3-9.46c-19.36 25.53-35.69 35.46-43.49 39l13-5c-6.48 11.47-13.45 14.34-13.45 14.34l22.71-4.48-18.38 12.11c26.44-7 31.29 13.85 31.29 13.85-10.09-6.29-21-2.66-21-2.66 19.35 8.36 18.23 31.67 18.23 31.67s-24.28-38.42-76.38-18.69l-22.48 22.14a307.82 307.82 0 0 0 31.31-14.28c-.45 23.31-30.92 36.3-30.92 36.3 28.46-.44 69.26-35.74 69.9-36.29-30 68.37-92 86-93.93 86.54l33.44-6.73c-62 83.7-126.74 63-128.33 62.45 12 5.66 42.79 6.86 42.79 6.86-26.94 11.2-50 15.56-68.85 16.29-3 .12-5.91.14-8.71.08-33-.66-51.31-12.38-53.47-13.83 17 13.1 41.42 21.87 57.21 26.58l7.94 2.23c4.8 1.28 7.72 1.91 7.72 1.91a68.13 68.13 0 0 1-7.56 1c-2.46.2-5 .28-7.5.27-24.42-.11-50.43-9-51.24-9.23 13.14 11.55 35.63 17.91 35.63 17.91-37.18 1.77-60.44-10.32-61.24-10.74 5.92 4.9 22.2 11.34 22.2 11.34-30.2 2.84-43.09-5.83-48.23-11.66a15.9 15.9 0 0 1-3.15-4.87c0 21.18-18.14 28.07-18.71 28.28.42-.51 12.37-15 3.32-27.29a22 22 0 0 0-4.27-4.32 33.24 33.24 0 0 0-5-3.24 102.85 102.85 0 0 1-37.05-33.86 118.35 118.35 0 0 1-8-18.46 118.63 118.63 0 0 1-8 18.46 102.87 102.87 0 0 1-37 33.86 33.68 33.68 0 0 0-4.82 3.06 22.92 22.92 0 0 0-4.31 4.26c-9.38 12.3 2.72 27 3.14 27.53-.57-.21-18.71-7.1-18.71-28.28a11.26 11.26 0 0 1-1 2h0c-3.15 5.12-14.66 17.83-50.35 14.47 0 0 16.29-6.44 22.21-11.34-.8.42-24.06 12.51-61.24 10.74 0 0 22.48-6.36 35.63-17.91-.81.27-26.83 9.12-51.25 9.23-2.53 0-5-.07-7.49-.27a65.72 65.72 0 0 1-7.57-1c0 0 2.93-.63 7.73-1.91l7.93-2.23c15.79-4.71 40.22-13.48 57.22-26.58-2.16 1.45-20.45 13.17-53.47 13.83-2.8.06-5.7 0-8.71-.08-18.89-.73-41.91-5.09-68.85-16.29 0 0 30.82-1.2 42.79-6.86-1.59.52-66.37 21.25-128.33-62.45l33.44 6.73c-1.94-.54-63.94-18.17-93.93-86.54.63.55 41.44 35.85 69.9 36.29 0 0-30.47-13-30.92-36.3a313.32 313.32 0 0 0 34.82 15.65l-22.4-22c-54.55-22.92-79.94 17.26-79.94 17.26s-1.12-23.31 18.22-31.67c0 0-10.88-3.63-21 2.66 0 0 4.84-20.85 31.28-13.85l-18.37-12.11 22.7 4.48s-7-2.87-13.44-14.34l13 5c-7.8-3.59-24.12-13.52-43.47-39l22.29 9.46c-1.07-.5-9.82-4.94-15.42-17.82h35s-33.16-10.76-49.89 3c0 0 5-11.82 22.28-18.36-6.4.78-14.11.45-20.78-3.4 0-.16-.28-5.89-39.74-24.79-20-9.56-34.14-18.18-45.25-30.77.91-3 1.9-5 3-5.48a85.65 85.65 0 0 0 30.64 23c50.19 23 58 33.14 58 33.14l1.85.33c1.69-9.93 3.9-36.76-18.21-47l-7-3.25 7.06-3.1a30.45 30.45 0 0 1 20.72-.79c-5.19-11.58-10.15-29-1.24-41.64l4.92-7 1.37 8.43c0 .12 2.1 12.06 9.59 13.25 2.11-4.39 6.28-17.91-9-37.44 5.87 1 14.41 2.2 14.41 1.8 0-.18 1.48-1.07 3.38-2.6a43.52 43.52 0 0 1 11.28 12.24c3.56-7.76 10.58-19 22.79-24.48 11.61-5.17 25.19-3.89 40.35 3.83a33.69 33.69 0 0 0-4.36 5.6c-4.83 7.56-10.62 22.07-.08 39.43 0 0-.29-10.56 8.1-11.55 0 0-4.82 10.49.49 21a16.42 16.42 0 0 1 5.45-11.3 17.36 17.36 0 0 0 4.9 14.57c-4-25.67 9.06-28.21 9.06-28.21-.42 13.89 30.57 14.83 30.57 14.83-25.41-42.35 3.15-54.39 3.78-54.64-6.36 16.94 15 18.4 15 18.4a16.79 16.79 0 0 0-11.35-8.77c9.28-6.74 19.91-1.69 20.31-1.5a19.21 19.21 0 0 1-3.58-18.28c1.73 6.2 8.61 8.14 9 8.25-8.54-8.35-6.75-16.51-6.75-16.51 3 4.13 17.23 7.13 17.23 7.13-.9-3.19-5.48-3.49-5.48-3.49 13.63-8.4 27.61-.22 33.52 4.18-2-6.14-5.82-13.51-13.4-16.52 0 0 17.72-8.47 36.94 8.36 0 0 2.29-11.85-6.57-12.75 0 0 13.84-15 20.12 5.18s24.49 18.33 24.49 18.33-2.85-8.21-15.6-9.21c0 0 15.56-16.21 31.37 4.88 0 0 2.19-7.07-8.47-13.74 0 0 10-3.57 16.7 4.31-6.45-20-28.25-27.51-28.25-27.51 31.37-11.8 48.7 20.61 48.7 20.61 15.08-17.77 11.85-51.68 11.85-51.68 17.26 20 10.73 54.5 7.47 67.37a33.82 33.82 0 0 1 3-2.64c-2.68 23 25.2 41.08 25.2 41.08-5.5-13.3 3.86-26.68 3.86-26.68a41.47 41.47 0 0 0 4.26 14.54 50.32 50.32 0 0 0 4 6.69 59.46 59.46 0 0 0 6.33 7.59l.06.06a45.56 45.56 0 0 0 9.2 6.65 65.39 65.39 0 0 1 13.21-27.34c1.28-1.55 2.56-3 3.82-4.25a62.12 62.12 0 0 1 5.93-5.33c.74-.59 1.46-1.13 2.13-1.61a41.37 41.37 0 0 1 5.31-3.3c-1.13 1.68-2.19 3.31-3.17 4.91l-2.13 3.61c-1.39 2.42-2.6 4.73-3.66 6.93s-1.91 4.16-2.68 6.06c-4.92 12.24-4.79 19.52-4.79 19.52a131.52 131.52 0 0 1 7.62-16 45.25 45.25 0 0 1 3.51-5.27c1.23-1.61 2.42-2.92 3.65-4.26.85-.93 1.72-1.89 2.65-3 .62-.73 1.21-1.47 1.76-2.22 15.93-21.66 6.81-54.44 6.81-54.44 14 12.15 13.59 25.3 13.59 25.3a14.75 14.75 0 0 0 1.5-5.51c13.76 22.8 13.55 41.82 9.94 55.09a50.82 50.82 0 0 0 9-24.39c0 0 9.37 13.35 3.89 26.64 0 0 27.88-18.08 25.19-41.08a33.82 33.82 0 0 1 3 2.64c-3.26-12.87-9.78-47.4 7.48-67.37 0 0-3.24 33.91 11.85 51.68 0 0 17.33-32.41 48.7-20.61 0 0-21.79 7.55-28.25 27.49 6.67-7.85 16.69-4.29 16.69-4.29-10.65 6.67-8.46 13.74-8.46 13.74 15.81-21.09 31.37-4.88 31.37-4.88-12.75 1-15.64 9.27-15.64 9.27s18.23 1.89 24.5-18.33 20.12-5.18 20.12-5.18c-8.87.9-6.58 12.75-6.58 12.75 19.22-16.83 37-8.36 37-8.36-7.58 3-11.44 10.37-13.39 16.5 5.93-4.4 19.9-12.55 33.51-4.15 0 0-4.59.3-5.48 3.48 0 0 14.24-3 17.23-7.13 0 0 1.79 8.16-6.75 16.5.43-.1 7.3-2 9-8.24a19.24 19.24 0 0 1-3.58 18.28c.41-.19 11-5.25 20.31 1.51a16.75 16.75 0 0 0-11.36 8.76c0 0 21.41-1.46 15-18.4a17.9 17.9 0 0 1 2.27 1.2l11.17 15.38a29.68 29.68 0 0 1 .82 7.54l-2.82 1.63-12 29 8 3 15-4 12-4 4-5 4 13-2 16 11-9 2 3 6-13 4 6 6-11v-22l-5-14-1-2.14 3.31-1.38 10.26-3.66.77-3a37.23 37.23 0 0 1 20 2.79c12.21 5.43 19.23 16.72 22.79 24.48a43.75 43.75 0 0 1 12.4-13l10.42 5 9.56-7.35-.09.1c-18.91 21.57-14.33 36.56-12.09 41.22 7.5-1.18 9.57-13.12 9.6-13.25l1.36-8.42 4.92 7c8.91 12.65 3.95 30.06-1.24 41.64a30.39 30.39 0 0 1 20.72.79l7.06 3.09-7 3.25c-22.18 10.32-19.88 37.29-18.19 47.13l2.38-.42s7.77-10.09 58-33.14c24.81-11.39 37.21-29 45.86-47.81.93 2.3 1.93 4.55 2.9 6.77z" fill="#E5F0F4"></path>
<path d="M671.9 1008.06v1.11c-1.25 18.33-27.49 17.61-27.49 17.61a3 3 0 0 1-1.59-3.53c-5.08 1.74-11.95 14.38-11.95 14.38-8.76 22.42-15.5 26.44-17.75 27.14a4 4 0 0 1-.4.12h0a3.35 3.35 0 0 1-.4-.12c-2.26-.7-9-4.72-17.76-27.14 0 0-6.87-12.64-12-14.38a3 3 0 0 1-1.59 3.53c0 0-27.28.75-27.54-18.72a9.57 9.57 0 0 1 .17-1.85h0c.59-3.38 3.21-10.67 14.51-15.56 8.69-3.76 22.53-6.11 44.56-4.17 15.94-1.4 27.59-.56 36.11 1.43h0c23.75 5.58 23.12 20.15 23.12 20.15z" fill="#F7727F"></path>
<path d="M888.51 945.67l-1.56.07c-.56 0-1.22 0-1.83-.09h0a18.67 18.67 0 0 1-5.22-1.29l-.86 2.81-.94 2.77h0a123.4 123.4 0 0 1-34.33 51.39l-21.83-23.17a91.09 91.09 0 0 0 31.14-68v-.72a90.8 90.8 0 0 0-11-43.41l13.59-11-5.52-5.33-11.66 10.32a91.54 91.54 0 0 0-19.35-21.58h0l8.92-9.71-5.4-3.65-8 10h0a91.35 91.35 0 0 0-94.597-6.855c-30.341 15.546-49.501 46.694-49.693 80.785v.48a91.38 91.38 0 0 0 132.31 81.66l12.59 29.28a122.79 122.79 0 0 1-30.17 10c7.76 1.31 13.37 2 14.88 1.78h.18l1-.29a129.34 129.34 0 0 0 16.28-6.5l1.08-.53 1.22-.6.2-.11 1.7-.89.18-.09.6-.31h0l3-1.69h0c1.47.22 3.25.46 5.34.68 1.41.15 2.95.29 4.63.41h0c4.48-1.49 8.83-3.1 12.69-4.78a140.89 140.89 0 0 1-8.73-.26q-3.35-.19-6.65-.57h.06a126 126 0 0 0 10.42-7.69q2.16-1.77 4.23-3.63a128.48 128.48 0 0 0 35.86-53.94 24.17 24.17 0 0 0 3.64.28 23.36 23.36 0 0 0 2.52-.13c-.22-1.68-.55-3.64-.92-5.9zm-49 59.29a123.42 123.42 0 0 1-19.23 12.89l-12.65-29.39a92.57 92.57 0 0 0 10-6.74l21.9 23.24zm-288.14-96.73c-1.595 44.961-35.685 82.069-80.35 87.463s-86.609-22.533-98.86-65.823l-8.51 3-.79-5.62 8-2.76h0a90.68 90.68 0 0 1-1.78-11.92l-7.74-.12-.46-5.58 7.92.12h0c-.88-43.088 28.462-80.935 70.41-90.82h0l-2-12.57 5.68.23 1.8 11.09v.17a91.38 91.38 0 0 1 29.15-.28l2.08-9.62 5.66.23-2.21 10.3c43.233 9.337 73.563 48.308 72 92.51z" fill="#0683EA"></path>
<path d="M1007.46 756.79l-.33-.7c-.83 4.72-1.68 9.09-2.66 13.15l2.34 8.71 3.64-11.1c3-9.23 9.82-15.26 15.91-19 0 0-1.81-2.15-4.3-5.55a44.9 44.9 0 0 0-14.6 14.49zm209.51-174.59c-41.87 25.52-74.9 40.08-98.83 48.39l1.23 12.21c2.49.35 4 .7 4 .7-1.31.5-2.56 1-3.77 1.57.34 4.87.45 9 0 10.58-1.4 5.17-12.12 33.4-12.12 33.4l-81.11 58.8c-14.9 24-4 39.73-3.5 40.48l1 1.34 1.64.1c7.69.5 12.68-4.5 15.58-10 3.19 16.46-7.72 37.88-7.89 38.14l-3.37 7c5.46-6.06 17.48-9.87 22.44-9.67-18 13.39-15.8 39.62-14.12 50l-9 1.58 3.3 4.86.1.15 8.33 12.23h0a31 31 0 0 1 14.46 6.19s-5-11.82-22.28-18.36c6.4.78 14.11.44 20.79-3.4 0-.17.29-5.9 39.73-24.79 30.34-14.53 47.3-26.89 60.49-54.29a218.8 218.8 0 0 0 11.81-31.43s5.08-15.9 12.85-26.36c7.66-10.31 17.07-23.82 23.33-88.94 25.91-29.13 14.91-60.48 14.91-60.48z" fill="#C55827"></path>
<g fill="#FF8A4B">
<path d="M596.85 740.67s-31.37-32.7-20.31-56.87c0 0-22.81 2.72-27.32 25.19 0 0 28.51-54.47-34.47-93.28 0 0 6.13 27.58-9.53 41.87 0 0-29.28-23.48-76.94-.68 0 0 22.22 3.18 25.79 21.29 0 0-23-23.5-37.27-12.78 0 0 8.68.52 7.66 11s-35.55-15.06-64.25 4.09c0 0 16.76 1.9 18 9.37s-29.84 9.5-32.9-18.33c0 0-8.68 15.14 0 38.72 0 0-20.17 3.41-20.94-10.12 0 0-19.91 18.81-12.26 45.66 0 0-13.53-1.49-13.53-15 0 0-8.42 4.75-6.89 22.8 0 0-11.35-15.06-.19-29.27 0 0-24.25 13.35-24.07 35.11l1.92 14.25c.13.51 3.83 8.94 4.47 10s5-2.05 5-2.05l4.21 11.37 6-3.45 7.91 7.91.13-19.14c.25-.76 4.72-7.42 4.72-7.42l6.64 6.65 23.18 6h7.33l-8.68-16.34-1.27-15.82-.51-11.37 4.34-4.73 9.06 7.66 14.3 3.45-5.81-9.38.77-1.91 13.66 1-3.07-12.13 7.41 1.15-4-10.09-.13-2.29 9.07 3.7c.39.26 9.83 2 9.83 2l-2.86-6.79 8.17-1.15s12.26 3.57 12.64 4 6.64 3.57 6.64 3.57.13-4.47 0-5.11-6.64-11.87-6.64-11.87l5.51-1.74 13 4.6 11 5.7s1.08-5.87.79-6.89-4-9.45-4-9.45l6.25-2.3 6.51 7.66s4.16 7.34 4.76 8.78 8.9 8.71 8.9 9.1 14.94 4.7 14.94 4.7.38-6.49-.26-7.64-8.55-6.16-8.55-6.16 6.64-2.14 7-2.14 13 6.26 13 6.26l2.81 6.38s3.69-5.11 3.57-5.49l-2.55-8 8.24 3 1.34-7.88s-11.24-14.56-12-14.56-11.2-8.37-11.2-8.37l8.9-1 17.66 8.17 12.76 13.53 2.3 2.55 7.15-10.83 7.91-21.85.77-2.81s4.6 9.17 4.6 9.82 1.53 14.47.76 14.84-3.07 27.58-3.07 27.58l7.92 17.65 15.79 17.12 7.92 4.58-2.05-17.91h3.13l16.87 21.31 8.87 5.42 3.39-12.87z" fill="#FF8A4B"></path>
<path d="M585.69 726.37s10.08-15.76 33.06-24.7v7.4s10.81-26-6.09-58.46c0 0 25.5 6.89 32.65 25.78l1.55-12.25s11.25 11.23 12.13 30.64l1.89-20.57a52.26 52.26 0 0 1 11.23 39.06s8.17-22.91 3.58-31.56l4.34 4.13s-8.17-43.66 29.87-52.85c0 0-4.59 30.89 7.66 37.28 0 0 38.19-21.84 70.21 2.29 0 0-17.36 0-20.68 11 0 0 25.37-10.8 46.77-1.83 0 0-9.75 3.9-6.94 7.34s19.92-8.83 38.56 6c0 0-3.92 2.55-3.24 6 0 0 6.13-1 13.45 3.23 0 0 12.35-2.21 10.94-8.85 0 0 5.06 4.26 3.7 13.45l3.23-4.94s3.92 6.33-.68 17.43c0 0 4.09-1.49 8.51 2.71 0 0 3.75-7.83 0-10.75 0 0 6.3-3.72 10.55 0s29.45 29.25 28.94 29.93-24.68 24.17-24.68 24.17l.68-23.49c0-.49-4.77-7.68-4.77-7.68a26.71 26.71 0 0 1-8.85 7c-5.61 2.73-12.42 3.72-13.61 4s-1.71-1.78-.68-3.14l5.78-7.59a5.86 5.86 0 0 0-5.44-1.43c-3.24.85-6.09 1-6.79 1.43s-.62-1.6-.66-2.45.66-8 .66-8a37 37 0 0 0-5 0c-3.22.17.33-2.27 0-3.35s2.39-9.39 2.39-9.39-6.29 3.55-9 3.72-9-2.89-9-2.89 1.87-2.39.17-3.07-13.61 1.75-14.13 2.24-12.08 7.12-11.91 6.61 4.6-16.51 4.6-16.51l3.06-1.53-2.89-2.38-14.64 3.74-11.8 8.76s-1.53-6.47-1.36-7.83a22.31 22.31 0 0 1 1.53-5.78c.68-1.2 2-3.75 2-3.75l-3.58-4.25s-3.74 1.36-4.59 2.21a23.72 23.72 0 0 0-3.24 5.28c-1.19 2.38-1.53 6.8-2.72 8.34s-4.77 8.79-6.3 9.5-9.7 5.44-12.94 5.54-8.17-1.77-8.17-2.28.85-5.05 1.37-5.76 7.48-5 7.48-5-1.12-2.21-2.26-2.21-11.18.85-12.54 2.38-6.81 9.7-6.81 9.7-2.73-6.14-2.73-7.92.17-5.53.17-5.53l-7.49 4.43s.22-8.64.47-10.43 12.26-13.78 13.53-15.44 8.43-7.15 8.43-7.15-11.62.89-16.21 3.06-18.9 11.49-20.68 14.17a59.69 59.69 0 0 1-6 6.81l-5.75-10c-.39-.89-8.81-27.06-8.81-27.06a33.76 33.76 0 0 0-3.83 9.19c-1.53 5.74-1.66 23-1 24.51s3.32 19.53 3.32 19.53-4.29 11.62-6 14.17-12.72 16-16.68 18.77-9.07 5.87-9.07 5.87 2.3-9.7 2.43-11.49-3.19-7.4-3.19-7.4-2.77 8.93-4.19 10.21-8.58 4.85-8.58 4.85 5.87-6.26 3.07-19.53-7.89-30.09-7.89-30.09l-4.85 5.84s1.17-7.63-1.2-12.73a24.17 24.17 0 0 0-5.33-7.66s-.32 14.29-1 15.06-3.53 16.87-6.57 21.84-5.77 10.65-8.61 13.55-11.78 16.7-13 19.5-6.28 11.75-6.28 11.75 1.22-18.13 1.83-19.92 4.7-14.62 4.7-14.62-12.73 17.56-13.19 19.3-6.37-27.21-6.37-27.21zm388.18-15.49s27.18 6.11 33.31 24.15c0 0 18.85-12.47 40-2l-9.72 6-20.56 12.27-8.86 10.07s-4.92-6.25-5.43-7.27-9.2-13.15-9.2-13.15-13.27-8-13.78-7.87-14.94-.56-15.7-.63 9.94-21.57 9.94-21.57zm-452.76-36.27s92.63-146.83-13.74-282.47-95.13-161.71-95.13-161.71-21.87 59.44 64.34 192.59c0 0-35.06 12.18-69.54-48.41 0 0-17.24 73.88 40.08 103.89s84.14 107.58 73.99 196.11zm-165.16-31.03s-25-35.13-76.09-28.54c0 0 26.55 8.12 31.66 24.46 0 0-60.25 13.27-54.64-62.3 0 0 76.09-11.24 99.07 66.38zm-57.16-413.52s63.83 19.92 32.68 87.83-14.81 102.39-14.81 102.39-30.12-24.26-2-106c-.04.04 18.85-41.33-15.87-84.22zm411.85-2.8s-41.76 35.09 3.07 76.39 43.4 72.37 43.4 72.37 15-27.74-31.84-80.37c0 .02-27.25-25.17-14.63-68.39z" fill="#FF8A4B"></path>
</g>
<path d="M574.51 160.43s15.8-16.93 7.41-42.35c0 0 11.37 6.81 16.39 27.34 0 0 34.75-15.74 28.5-51.63 0 0 50.08 43.81 44.75 114.83 0 0-8.49-44.52-33.16-65.06 0 0-8.8 25.63-55.58 43.69 0 0 7.2-9.37 6.33-30 0 0-4.84 5.42-14.64 3.18z" fill="#FDFEB8"></path>
<g fill="#C4CCCE">
<path d="M587.94 906.05s23.26-16 46.78 0l1.4-13.9-18.39-2.78h-18.89l-13.62 2.78zm-12.93 53.83s39.44-18.41 68.74.67l-1.67-12.07-2.5-5.76s-3.12.37-3.46 0-14-2.5-14.56-2.5-17-.17-18.55 0-23.49 4.17-23.49 4.17zm-260.73 65.06a62.1 62.1 0 0 1-27.37 5.92s37.55 27.75 107.33 38.64c0 0-8.51 13.07-35.4 16.4 0 0 34.33 19.34 97.33 11.86 0 0-1.33 12.25-14.61 21.44 0 0 66 13.6 103.54-56.9 0 0-3.11 19.46-10.94 30.35s-29.28 33-31.66 35.06-22.47 10.9-27.92 11.92-43.57 7.07-43.57 7.07l-40.51-8.43-9.19-4.59 19.74-3.92 9.53-4.77h-15c-1 0-25.53.68-36.42-3.75l-30-12.25-26.21-23.09-13.28-16.74 29.62 4.42-30.64-17c-3.75-1.69-23.49-18.7-25.19-18.54s-24.17-22-24.85-23-9.19-16.61-9.19-16.61l21.1 12.76 26.9 10zm294.96 49.33a62.21 62.21 0 0 1-5.3 14.31c-4.08 8.15-13.32 40.15-43.09 49 0 0-1-7.82 3.26-11.74 0 0-15.83 1.53-21.1 10.89l2.09-11.06s-2.43 1.7-7 7.15l2.56-24.34s-3.41 1.36-8.17 6.13 2.08-16.84 2.08-16.84-6.17 5.77-9.23 11.05-33.2 31.15-35.24 33.19-35.91 17.36-35.91 17.36 5.44 3.07 6.47 2.9 32.51-8.34 32.51-8.34l-6 15 33-8-3.06 9.2 21.61-10.56 5.11-4.42 3.23 10.89 7.66-5.45s4.26-5.61 6.47-7.83 18.21-11.57 19.06-12.42 20.09-16.51 21.79-20.09 10.48-34.55 10.77-35.06-.18-15.66-.18-15.66zm301.54-49.33a62.1 62.1 0 0 0 27.37 5.92s-37.54 27.75-107.33 38.64c0 0 8.51 13.07 35.41 16.4 0 0-34.34 19.34-97.34 11.86 0 0 1.34 12.25 14.61 21.44 0 0-66 13.6-103.54-56.9 0 0 3.12 19.46 11 30.35s29.27 33 31.66 35.06 22.46 10.9 27.91 11.92 43.58 7.07 43.58 7.07l40.51-8.43 9.19-4.59-19.75-3.92-9.53-4.77h15c1 0 25.53.68 36.43-3.75l30-12.25 26.22-23.09 13.27-16.74-29.61 4.42 30.63-17c3.74-1.69 23.49-18.7 25.2-18.54s24.17-22 24.85-23 9.19-16.61 9.19-16.61l-21.11 12.76-26.89 10z" fill="#C4CCCE"></path>
<path d="M615.82 1074.27a62.21 62.21 0 0 0 5.3 14.31c4.08 8.15 13.33 40.15 43.09 49 0 0 1-7.82-3.26-11.74 0 0 15.83 1.53 21.11 10.89l-2.1-11.06s2.44 1.7 7 7.15l-2.55-24.34s3.4 1.36 8.17 6.13-2.08-16.84-2.08-16.84 6.16 5.77 9.23 11.05 33.19 31.15 35.23 33.19 35.92 17.36 35.92 17.36-5.45 3.07-6.47 2.9-32.51-8.34-32.51-8.34l6 15-33-8 3.07 9.2-21.62-10.56-5.11-4.42-3.23 10.89-7.66-5.45s-4.25-5.61-6.47-7.83-18.21-11.57-19.06-12.42-20.09-16.51-21.79-20.09-10.48-34.55-10.77-35.06.18-15.66.18-15.66z" fill="#C4CCCE"></path>
</g>
<path d="M626.37 993.09s27.92-3.65 35.41 17.06c.04 0-6.41-12.48-35.41-17.06z" fill="#FFCFD6"></path>
<g fill="#C4CCCE">
<path d="M897.83 949.08s-10.87 47.91-51.1 70.72l-18.45-1.92 17.71-15.61 15.83-15.83c.17-.51 9.7-14.13 9.7-14.13l10.38-23.23z" fill="#C4CCCE"></path>
<path d="M922.46 928.76c0 17.27-12.37 31.27-27.63 31.27a24.69 24.69 0 0 1-10.46-2.36 25.88 25.88 0 0 1-4.68-2.8c.5-1.3 1-2.6 1.44-3.92h0c.33-.92.64-1.85.94-2.77s.58.13.86-.81c1.64.67 3.4-.89 5.22-.71h0c.61 0 1.21.09 1.83.09s1.05 0 1.56-.07a18.71 18.71 0 0 0 7.13-35.21c-1.66-.88-3.46-3.51-5.36-3.85a18.33 18.33 0 0 0-3.33-.29 17.36 17.36 0 0 0-2 .12c0-2-.08-1.92-.18-3.86-.09-1.66-.22-3.32-.37-5a24.56 24.56 0 0 1 5.29-1.06c.73-.07 1.45-.1 2.19-.1 15.18.05 27.55 14.05 27.55 31.33zM511.31 782.41s69.07 16.28 87.38 93l-13.47 4.58-14-33-19.79-28.78-24.89-20.73-12.89-9.26zm90.85 113.3l-1.54 32.68-15.4 3.81 1.92-32.26 15.02-4.23zm-3.47 54.64s-20.82 41-51.87 49.58l15.64-21.66 12.55-22 4.51-11.85 19.17-3.44z" fill="#C4CCCE"></path>
</g>
<path d="M472.5 820.95s80.38 69.71 2.76 170.28l24.38-8 28.22-22.65c1.02-.5 17.24-27 17.24-27s2.1-32.27 4.12-33.58-6.16-33.43-7.34-35.71-28.32-30.3-28.32-30.3l-34.29-17.94zm300.6 5s80.39 69.71 2.77 170.28l24.38-8 28.21-22.65c1.02-.5 17.25-27 17.25-27s2.09-32.27 4.12-33.58-6.17-33.43-7.35-35.71-28.31-30.3-28.31-30.3l-34.3-17.94z" fill="#006CB5"></path>
<path d="M404.59 847.97s-45.44 45.66-9.35 101.13c0 0-19.66-47.98 9.35-101.13zm301.46 5.52s-45.44 45.66-9.35 101.13c0 .05-19.66-47.95 9.35-101.13zM31.37 662.27s9.36 34.29 21.62 53.19 29.2 82 29.2 82-9.36-10.21-25.41-55.4c0 0-7.62-12-8.9-14.69s-9.21-12.42-10.51-17.79-10.53-25.69-6-47.31zm1162.07 0s-9.36 34.29-21.61 53.19-29.21 82-29.21 82 9.36-10.21 25.41-55.4c0 0 7.63-12 8.91-14.69s9.19-12.37 10.46-17.74 10.55-25.74 6.04-47.36z" fill="#FDFEB8"></path>
<path d="M632.37 842.76l-.25.4 1.57 1.48c-.03.03-.55-.65-1.32-1.88zm257.73 59.91a128.12 128.12 0 0 0-14.13-52.21 19.3 19.3 0 0 1-8.5-7.74c-16-28.7-37.31-38.09-37.31-38.09l-3.31-6a128.6 128.6 0 0 0-111-9.27h0c8.18-6.75 13-13.68 15.77-20.92l-8.44 1.36a172.79 172.79 0 0 1-20.57 25.51h0a128.69 128.69 0 0 0-65.44 82.54c-1.15-.32-2.31-.62-3.49-.89a99.71 99.71 0 0 0-22.16-2.43 98.06 98.06 0 0 0-25.11 3.15l-.56.17a128.84 128.84 0 0 0-67.91-87.75h0 0a170.89 170.89 0 0 1-14.22-18.11l-10.1-4.1a45.63 45.63 0 0 0 10.26 16.2h0a128.9 128.9 0 0 0-65-5.85v-.16q-2.75.51-5.46 1.15v.06h0a127.75 127.75 0 0 0-54.86 26.38c-9.875-8.468-24.642-7.762-33.665 1.608s-9.17 24.153-.335 33.702a22 22 0 0 0 2.63 2.49h0a128.58 128.58 0 0 0-15.62 62.85v.73 1.69a.66.66 0 0 0 0 .14q0 .79.06 1.59a.14.14 0 0 0 0 .09 1.62 1.62 0 0 0 0 .31v1h0a128.32 128.32 0 0 0 3.74 24.74h0q.69 2.7 1.49 5.38a128.92 128.92 0 0 0 58.58 74.15h0a139.76 139.76 0 0 1-24.25 1.11q2.9 2.74 5.75 5.28a134 134 0 0 0 26.44-2.13h0a128.7 128.7 0 0 0 173.3-61.63c.83-1.8 1.6-3.61 2.35-5.43a105.89 105.89 0 0 0 2.1-5.56c1.47-.66 3-1.28 4.64-1.83a78.42 78.42 0 0 1 25.49-4 80.59 80.59 0 0 1 22.3 3q2.55.75 4.91 1.63c.88 3 1.86 5.84 3 8.69a160.71 160.71 0 0 0 2.12 5.19 128.67 128.67 0 0 0 173.68 64.82l1.08-.53 1.22-.6.2-.11 1.7-.89.18-.09.6-.31h0l3-1.69h0c1.47.22 3.25.46 5.34.68l8.6-4.63q-3.35-.19-6.65-.57h.06a126 126 0 0 0 10.42-7.69q2.16-1.77 4.23-3.63a128.48 128.48 0 0 0 35.86-53.94 24.17 24.17 0 0 0 3.64.28c12.93-.029 23.624-10.078 24.455-22.981s-8.485-24.242-21.305-25.929zm-345.06 5.48c-1.623 41.826-33.454 76.245-75.026 81.125s-80.509-21.232-91.774-61.545l-.19-.67-.18-.68-.34-1.36c-.1-.46-.21-.87-.31-1.31l-.31-1.42a86.9 86.9 0 0 1-1.42-9.72l-.12-1.4q-.11-1.39-.15-2.79v-1.4h0c-.939-40.011 26.161-75.257 65.07-84.63h0 0 .08.1.08a85.23 85.23 0 0 1 32-1.38h0c1.83.27 3.67.6 5.49 1 40.293 8.701 68.535 45.057 67 86.25zm88.59 20.76a99.11 99.11 0 0 0-22.16-2.44 97.6 97.6 0 0 0-25.1 3.2h-.07a132.37 132.37 0 0 0 1.88-13.29c.16-1.86.28-3.73.36-5.6 0-.78.06-1.56.08-2.34a128.25 128.25 0 0 0-.45-15 83.66 83.66 0 0 1 45.61-.3l.45.14a127.69 127.69 0 0 0-1 15.5v.73.64c0 1.78 0 3.56.14 5.32a124.54 124.54 0 0 0 1.37 13.75zm213.09-18.78a84.76 84.76 0 0 1-29.15 63.38c-.7.62-1.42 1.22-2.14 1.81l-1.2 1-1 .76h0a85.38 85.38 0 0 1-8.15 5.49l-1.21.71-2.45 1.35-1.24.65h0a85 85 0 0 1-123.41-75.81v-.44a85 85 0 0 1 134.26-68.79c1.52 1.08 3 2.2 4.43 3.38h0a85.74 85.74 0 0 1 20.53 24.49c.06.1.11.21.16.31a84.49 84.49 0 0 1 10.56 41c.02.3.02.52.01.75zm137.95-177.82l-.16-.07-.44 7.55 1.54.91.77-7.56h0l-1.71-.83z" fill="#931026"></path>
<path d="M880.37 687.67s16 17 13 38l4.46 21.52-.41 15.23-11.05 18.25 12.71 1.74 27.29-11.74 2.58 9.2-.58 19.8 9-9 3 2 6-12 8 3 4-27-9-22 25.57-5.12s-61.57-102.88-129.57-108.88c0 0 29.5 16.5 32.5 38.5 0 0-22-21-71-5 0 0 56 3 73.5 33.5zm-66.24-238.23s-60-66-146-64c0 0 95 42 70 120 0 0-5-60-46-70 0 0 44 60 24 126 0 0 48 2 64-46l50.36 95.86 20.64-36.86zm74.47-157.85s6 24-6 33c0 0 15 2 21-3 0 0 1 26-50 33 0 0 59 8 81-40l-14 3s8-39-16-72c0 0 10 29-1 46 0 0-8-9-15 0zm-239.71 53.77s-30.52-26.07-23.17-49.29c0 0-21.72 11.5-24.94 23.77 0 0-25.83-33.44 35-90.77 0 0-85.55 45-69.39 129.25l15.68-17.17s26.19 59.11 89 80.12c0 0-40.56-28.92-42-61.77-.01 0 19.05 4.36 19.82-14.14z" fill="#FF8A4B"></path>
<path d="M748.49 781.67s131.22-24.41 154.55 118.31l-15.67 3.69-4-24-11.51-31.78-14.31-19.94-28.58-25.44s-33.37-19.93-80.48-20.84zm116.88 219s83-49 129-37l-39 12-15 16-17 15-45 11-38.84 3.47z" fill="#C4CCCE"></path>
<path d="M1215.37 587.8l-51.56 27.87-45.26 18.59.24 2.27 11.23 7.4-10.19 6.86a20.25 20.25 0 0 1-.27 4.82c-1.4 5.17-12.12 33.4-12.12 33.4l-76.55 55.51a32.71 32.71 0 0 1-.61 4.22c-.77 1.66-5.49 13.15-6.26 16.72a58.41 58.41 0 0 0-.89 10.6c0 2.17 3.32 9.31 3.32 9.83s5.36-1.92 5.36-1.92l9.83-9.83s4.59 12.51 4.47 13.63-6.13 24.16-6.13 24.16l18.25 1.53-11.23 12.51s-4.6 12.89-5 17.87-.25 13.66-.25 14.17 2.81 8.17 2.81 8.17l3.08-2.67c4.45-47.31 45.26-47.67 45.26-47.67-8.86-25.87-34.32-25.53-34.32-25.53 12.32-19.4 12.41-33.2 12.41-33.2l-9.75 1.88c6.12-21.45 21.44-19.7 21.44-19.7-5.1 28.64 13.62 48.48 13.62 48.48s-7.83-75.42 39.94-88.35 60.55-53.75 60.55-53.75c15.37-22 20.89-40.26 20.89-43.83s-2.31-14.04-2.31-14.04zM195.43 748.78a16.41 16.41 0 0 1-.39-2.38c-4-.57-8.56-1.33-10.84-1.84-4.6-1-28.09-19.4-32.17-23.25s-12.77-15.55-13.79-19.64-6.13-19.4-9.19-27.06c-2.53-6.34-11.57-15-16.17-19l-17.19-11.6 7.32-4.82-3.68-8.06-37.43-15.46-51.53-27.87s-2.3 10.47-2.3 14 5.49 21.87 20.85 43.87c0 0 12.75 40.85 60.53 53.79s39.92 88.35 39.92 88.35 18.72-19.84 13.62-48.48c0 0 15.32-1.75 21.45 19.7l-9.76-1.88s.09 13.8 12.41 33.2c0 0-25.46-.34-34.31 25.53 0 0 40.8.36 45.25 47.67l3.09 2.67s2.8-7.66 2.8-8.17.13-9.19-.25-14.17-5-17.87-5-17.87l-11.23-12.51 18.25-1.53-6.13-24.16c-.13-1.16 4.47-13.63 4.47-13.63l9.83 9.83s5.36 2.43 5.36 1.92 3.32-7.66 3.32-9.83a57.52 57.52 0 0 0-.89-10.6c-.73-3.57-5.45-15.06-6.22-16.72z" fill="#7C2706"></path>
<path d="M623.55 22.35s-227.09 1.7-275.52 216.17c0 0-25-92.84 13.35-141.91s151.39-78.73 151.39-78.73 86.47-20.21 110.78 4.47zm34.49 62.39s51.44 29.53 57.56 72.08l14.84-38.95s-59.84-43.93-72.4-33.13zm175.53 86.12s83.72-6.76 90.71 72.71l10-20.68-9-37.47s-15-16.74-17.51-18.4-32.19-12.75-35.25-13.26-29.36-2-29.36-2l-17.79 6.43zm-106.85 38.86c1 1.29 11.28-139.68 75-116.21 0 0 2.07-5.8 1.39-8.86s-7.08-14.15-7.08-14.15-7.9-5.26-10.28-5.26-11-.56-12.59 3.07-11.91 7.77-19.7 17.35-23.29 33-27.5 44-16.03 57.39.76 80.06zm209.18-4.65s58.17 31.41 58.51 74.3-.27 48.65-14.6 62.62c0 0 41.11-17 38.24-54.11s-53.57-106.73-86.44-98.13c0 0-5.24 7.07 4.29 15.32z" fill="#FDFEB8"></path>
<path d="M1087.51 426.85s89.62 62.89 70.09 148.94c0 0-.94 8.48-2.85 10.93s-36.9 38.88-37.93 33.19-5.82-24.64-5.82-24.64 17.37-26.37 16.86-29.43 6.55-26-9-43.86-32.2-50.41-48.83-60-7.58-14.48-7.58-14.48zM247.86 251.46s7.25-28-11.61-30.3-33.16 13-33.67 34.47 8 49.47-5.45 69.54-31.82 8.57-31.82 8.57 102.63 51 55.91 145c0 0-15.54-27.78-48.37-27s3.34 22.69-2.87 56.54-20.76 36-7 53.3 39.83 16.89 48.25 40.46-8 42.56 6.32 60.26 55.22 15.68 81 26.78 54.94 7 54.94 7-2.85 20.09-6.94 22.13-20.08 4.34-24.51 11-5.1 18.87-6.47 22.14-1.7 6.67-17 7.35-22.47 1.36-22.47 0 1-19.74-2.72-21.45-6.38-8.51-18-5.44-22.51 8.85-24.89 11.23-14.64 19.07-14.64 19.07-7.63-14.37-13.28-16.69-17.13-4-19.37-6.17-8.35-3.89-11-5.84a59.82 59.82 0 0 1-7.16-6.08c-.48-.71.52-7.56-10.35-12.88s-11.07-5.4-12.74-6.93-6.42-25.1-9.66-29-7.34-9.17-9.72-16.24-28.14-25.78-28.59-34.3-8.75-47.83-7.5-52.09 8.51-40.44 8.51-40.44-14.19-10.67-16.55-15.61-10-22.5-5.91-30.2 9.46-28.13 9.32-30.85.21-38.81 2.94-51.07A63.58 63.58 0 0 1 93.45 387s-5.6-23-5.26-34.66 11.91-34.15 13.62-37.21 16.88-28 18.12-30.61 8.69-15.61 8.69-15.61 24.25 3 29.36 12.17 7.15-18.72 6.81-21.1-6.42-24.18-3.42-32.69 21.77-28.26 21.77-28.26l29.28-12.25 29.63-6.81h9.53s20.45 30.98-3.72 71.49z" fill="#FF8A4B"></path>
<path d="M340.08 170.09s-11.88-22.42-10.35-35.23c0 0-21.48 3.43-70.92 51 0 0-13.68-54.43 97-91.5zm72.73-57.22a279.14 279.14 0 0 0-13.12 56.71s30.64-65.35 96.51-86.55c0 0-4.22-4.59-16.39-9.45 0 0 111.09-64.22 160.76 5.17 0 0-16.88-40.57-12.46-60.14 0 0-152.64-7.94-215.3 94.26z" fill="#FDFEB8"></path>
<path d="M460.12 610.11s29.56-13.78-4-48.56-38.84-21.32-77.89-49.88-63.56-53.26-63.56-53.26 7.27 47.16 38.87 70.4-25.85 11.75-25.85 11.75 17.85 19.77 41.48 21 27.46-16.75 48.14-3.93 48.87 10.19 42.81 52.48zm524.25-269.44s31.66.51 45.45-13.79c0 0-6.13 15.27 5.1 33.42s23 23.26 9.71 40.62-52.09 11.37-52.09 11.37 48.23 52.63 30.24 89.06-43 46.64-50.14 49.19-41.5 11-41.5 11l-25 25.17s103-38.15 109.22 3.42-62.89-2.34-62.89-2.34-6.72 13.57 3.37 34.87-44.39 8.85-44.39 8.85l-16.03 24.16 39.63 54.52 20.84.71s11.16 15.12 14.18 15.41 25.53 12.54 29.62 14.38 16.65 5 22.37 1.63 47.06-21 47.08-23.27 28-22.52 28-22.52 24.07-32.63 25.09-37.22-.38-34.34 0-36.62-11.24-27.4-11.24-27.4l21-29.43-21-87.11c-1-2.25-31.41-42.44-31.41-42.44l15.77-32.83c1.18-2.83 0-21.33-.76-23.27S1056 300.36 1056 300.36l-26.71-17.81h-12s12.02 31.03-32.92 58.12z" fill="#FF8A4B"></path>
<path d="M1102.51 427.79s69.17 29.64 68.07 110.27c0 0 39.61-79.8-68.07-110.27z" fill="#FDFEB8"></path>
<g fill="#FF8A4B">
<path d="M852.07 331.17s15.36-60.82-14.38-98.82-32.44 7.73-46.41 44.61c0 0 13-43.55-5.06-71.89s19.15-94.66 19.15-94.66 18.24 54.07 45.26 94.66 37.14 79.09 1.44 126.1zm93.97 139.03s23.29 62.58-11.44 125.07l15.26 44.58-27.4 5.68s-22-15.91-22.9-18.43-20.06-35-19.07-39.3 16.71-11.1 25.7-29.94 10.19-43 8.35-59.51-6.06-18.51-5.88-21.81 37.38-6.34 37.38-6.34zm-129.7-109.92l-28.41 7.94 76.78 75.68 36.53 12.55-84.9-96.17zm-86.22 187.18s-13.9 32-9.78 33.63 55.33 40.14 55.33 40.14l8.84-44.6s-8-23.08-11.41-26.11-11.35-12.46-11.35-12.46z" fill="#FF8A4B"></path>
<path d="M748.37 649.25l89.5-11.84-.39-30.67-33.23-11.85H788.6zm34.45-221.46l85.5-8.63 11.51 33.36-36.35 5.89h-40.25l-20.41-30.62z" fill="#FF8A4B"></path>
<path d="M667.31 492.18l-66.79 19.49 140.2 150.68 33.45-19.33-106.86-150.84zM472.16 143.8s66.93 4.4 43.19 71.9-49.79-1.6-88.85 0c0 0 45.19-26.6 61.27-6s20.23-16.36 7.43-23.91-40.36 3.2-40.36 3.2 10.12-20.46 25-19.44-7.68-25.75-7.68-25.75z" fill="#FF8A4B"></path>
</g>
<path d="M644.11 519.71l22.13-18.38 86.04 96.51 23.39-20.56 20.89 23.77-47.55 40.97-104.9-122.31zM820.2 360.82l22.12-18.39 86.04 96.51 23.39-20.55 20.89 23.76-47.55 40.98L820.2 360.82z" fill="#931026"></path>
<path d="M880.49 927.06a6.43 6.43 0 0 1 4.11-6 6.34 6.34 0 0 1 2.35-.45 6.46 6.46 0 0 1 0 12.92 3 3 0 0 1-.42 0 6.44 6.44 0 0 1-6.04-6.47z" fill="#C4CCCE"></path>
<path d="M669.37 867.61a7.5 7.5 0 0 1-7.51 7.5 7.26 7.26 0 0 1-2.34-.38l2.34-3a4.07 4.07 0 0 0 4.06-4.07 4 4 0 0 0-.34-1.62l2.11-3.1a7.45 7.45 0 0 1 1.68 4.67zm211.12 59.45a6.43 6.43 0 0 1 4.11-6l1.93 12.45a6.44 6.44 0 0 1-6.04-6.45zm-319.96-52.2a7.3 7.3 0 0 1-3.62-2.19 7.5 7.5 0 0 1 .28-10.39l1.28 4.46 1 3.59 1.06 4.53z" fill="#FF0000"></path>
<path d="M578.05 956.24l-1.16 2.63a129 129 0 0 1-42.79 51.28l-2.32-4.93a125.64 125.64 0 0 0 11.42-9.26 122.68 122.68 0 0 0 28.87-39.52l5.98-.2zm36.62 115.64c1.22 3.94 1.94 9.41 1 16.7h0c-1.79-.18-3.77-.42-5.75-.69h-.23a38.07 38.07 0 0 1 1-16 23.36 23.36 0 0 1 2-4.71 24 24 0 0 1 1.98 4.7zm62.76-18.56q1.25 4.42 2.66 8.56l-1.19 1.13a88.16 88.16 0 0 1-1.47-9.69zm20.61-32.18a129 129 0 0 1-52.23-56.09l6.64 1.26a123.64 123.64 0 0 0 44.09 47.68 186.21 186.21 0 0 1 1.5 7.15zm-129.93-30.47l-14.51 15.56c.59-3.41 3.21-10.7 14.51-15.56z" fill="#FFFF00"></path>
<path d="M172.07 751.34c-.83-8.77-2.61-15.38-5-20.31l3.65-3.71c3.8 11.43 1.35 24.02 1.35 24.02zm917.04-41.74s3.39-6 12.18-13.09l5.42 6.36a190.88 190.88 0 0 0-16.71 17s-32.27-16-36.74 31.42c0 .05-9.26-47.51 35.85-41.69z" fill="#FF00FF"></path>
<path d="M652.57 749.09l-1.74 5.41a50.66 50.66 0 0 1-8.65 15.17l-2.67 3.29q-2.46 3.16-4.47 6.25c-20.48 31.48-7.19 56.66-2.7 63.56.8 1.23 1.32 1.88 1.32 1.88-.54-.49-1.06-1-1.57-1.48-17.23-16.73-16.89-36.38-7.29-56.36a96.3 96.3 0 0 1 3.67-6.91c1.72-3 3.64-6 5.71-8.93l4.47-6.12.09-.11c21.36-27.78 4.33-58.4 4.33-58.4-1.64 9.11-8.21 16-8.21 16 5.37-19.41.89-27.63.89-27.63-.83 20.39-5.21 30-11.21 38.22-1.73 2.38-3.59 4.64-5.54 7l-2.83 3.47c-1.15 1.44-2.32 2.95-3.5 4.57l-.37.5c-8.46 11.71-11 29.48-11.78 38.34-.29 3.35-.32 5.42-.32 5.42a69.69 69.69 0 0 1-3.35-12.34c-4-22.62 4.71-39.42 5-39.93-6 8.05-9.15 19.65-10.68 31-.38 2.78-.66 5.54-.87 8.24a185.79 185.79 0 0 0 .14 29.25c-3.94-13.59-5.16-25.37-4.6-35.5q.07-1.47.21-2.88c.16-1.8.37-3.54.65-5.23s.55-3.12.89-4.61a65.39 65.39 0 0 1 13.21-27.34c1.28-1.55 2.56-3 3.82-4.25a62.12 62.12 0 0 1 5.93-5.33c.74-.59 1.46-1.13 2.13-1.61a41.37 41.37 0 0 1 5.31-3.3c-1.13 1.68-2.19 3.31-3.17 4.91l-2.13 3.61c-1.39 2.42-2.6 4.73-3.66 6.93s-1.91 4.16-2.68 6.06c-4.92 12.24-4.79 19.52-4.79 19.52a131.52 131.52 0 0 1 7.62-16 45.25 45.25 0 0 1 3.51-5.27c1.23-1.61 2.42-2.92 3.65-4.26.85-.93 1.72-1.89 2.65-3 .62-.73 1.21-1.47 1.76-2.22 15.93-21.66 6.81-54.44 6.81-54.44 14 12.15 13.59 25.3 13.59 25.3a14.75 14.75 0 0 0 1.5-5.51c13.72 22.77 13.53 41.79 9.92 55.06z"></path>
<path d="M702.45 771.09c.23-.92 7.46-29.55-6.8-47.91 0 0-4.88 23.92-40.23 40.75 0 0 7.47-12.45 6.57-21.71 0 0-1.34 8.24-11.16 12.28a26.86 26.86 0 0 1-4 1.27 39.46 39.46 0 0 0 5.71-6.68 50.82 50.82 0 0 0 9-24.39s9.37 13.35 3.89 26.64c0 0 27.88-18.08 25.19-41.08a33.82 33.82 0 0 1 3 2.64 53.6 53.6 0 0 1 7.09 8.53h0c6.99 10.41 13.13 27.61 1.74 49.66z"></path>
<path d="M733.43 704.09a37.91 37.91 0 0 0-1.68 14.49c0 .73.11 1.47.2 2.23 2.11 17.74 5.07 33.3-.35 47.66-2.73 7.24-7.59 14.17-15.77 20.92a109.41 109.41 0 0 1-20.77 13.12c.2-.17 3.16-2.7 7.5-7.14h0a172.79 172.79 0 0 0 20.57-25.51 10.21 10.21 0 0 0 .28-.42c13.14-20.22-17.45-74.37 25.89-90.82 0 0-20.12-.6-34.66 28.08 0 0-15.93-9.76-18.12-38.64 0 0-7.76 17 4.19 53.4h0l.79 3.06-6.48-6.57s-.6-1.86-1.4-5c-3.26-12.87-9.78-47.4 7.48-67.37 0 0-3.24 33.91 11.85 51.68 0 0 17.33-32.41 48.7-20.61.03-.05-21.76 7.5-28.22 27.44z"></path>
<path d="M832.37 698.81c-7.58 3-11.44 10.37-13.39 16.5h0a45.83 45.83 0 0 0-1.9 9.15h0v.42c-4.78 26.09-28.48 28.68-28.48 28.68s21.21-9.46 22.41-28.48 10.12-23.41 10.12-23.41c-23.41 1.6-27.59 17.23-27.59 17.23-8.06-21.21.95-24.7.95-24.7s-6.72-2.88-8.52 5.88-6.27 13.05-6.27 13.05c-11.35 12.44-27.09 9.75-27.09 9.75-2.79-11.45 8.47-14.93 8.47-14.93-15.94-.8-18.13 14.93-18.13 14.93-11.75-6.47-5.17-15.73-5.17-15.73-4 2.83-5.46 8-6 11.41a25.69 25.69 0 0 0-.35 3.43 22.27 22.27 0 0 1 0-14.94 18.25 18.25 0 0 1 2-3c6.67-7.85 16.69-4.29 16.69-4.29-10.65 6.67-8.46 13.74-8.46 13.74 15.81-21.09 31.37-4.88 31.37-4.88-12.75 1-15.64 9.27-15.64 9.27s18.23 1.89 24.5-18.33 20.12-5.18 20.12-5.18c-8.87.9-6.58 12.75-6.58 12.75 19.22-16.79 36.94-8.32 36.94-8.32z"></path>
<path d="M899.75 760.27a76 76 0 0 1-8.06 18.68h0l-8.57 7.91c-3.07 0-6.36-.11-9.9-.33a48.63 48.63 0 0 0 15.73-16.29h0c4.42-7.65 7.21-18 3.77-30.88a31.14 31.14 0 0 1-18.42 10.89 29 29 0 0 1-12.85-.83s.33-5.87 8.12-10.68a28.58 28.58 0 0 1 3.14-1.68 17.63 17.63 0 0 0-3.73.24 91.6 91.6 0 0 0-16.78 4.34s8.84-9.33 8.66-14.14c0 0-9.56 3.69-17.92 1.6 0 0 13.54-7.47 15.23-13.64 0 0-7.77 6.27-23.1 5.87a8.59 8.59 0 0 1 5.67-8.66s-13.49-1.14-23.66 11.82h0a38.14 38.14 0 0 0-3.21 4.8l2.18-11.56a35.82 35.82 0 0 1 2.94-2.4h0c5.93-4.4 19.9-12.55 33.51-4.15 0 0-4.59.3-5.48 3.48a77.32 77.32 0 0 0 11.32-3.4c2.6-1.07 4.9-2.34 5.91-3.73 0 0 1.14 5.19-2.73 11.52h0a25.94 25.94 0 0 1-4 5 15.51 15.51 0 0 0 5-2.52 11 11 0 0 0 4-5.72 19.44 19.44 0 0 1-.73 13.78 19 19 0 0 1-2.85 4.5 22 22 0 0 1 4.13-1.39 19.51 19.51 0 0 1 16.18 2.9 16.75 16.75 0 0 0-11.36 8.76s21.41-1.46 15-18.4c.58.16 19.75 8.25 12.86 34.31zM671.9 1008.06v1.11c-1.25 18.33-27.49 17.61-27.49 17.61a3 3 0 0 1-1.59-3.53c-5.08 1.74-11.95 14.38-11.95 14.38-8.76 22.42-15.5 26.44-17.75 27.14a4 4 0 0 1-.4.12h0a3.35 3.35 0 0 1-.4-.12v-5c0 .08 0 .24.41-.17.93-1 4-5.57 14-23.92 14.94-27.48 28.48-17.32 28.48-17.32-3.93-1.35-5.78 2.68-5.78 2.68 19.82-2.58 17.53-13.54 17.53-13.54a14 14 0 0 0-1.93-4.72h0a18.56 18.56 0 0 0-6.25-5.75h0c-14.33-8.5-41.68-6.25-41.68-6.25h-4.72v-4.26h.41c15.94-1.4 27.59-.56 36.11 1.43h0c23.63 5.54 23 20.11 23 20.11zm241.86 62.05l33.44-6.73c-62 83.7-126.74 63-128.33 62.45 12 5.66 42.79 6.86 42.79 6.86-26.94 11.2-50 15.56-68.85 16.29-3 .12-5.91.14-8.71.08-33-.66-51.31-12.38-53.47-13.83 17 13.1 41.42 21.87 57.21 26.58l7.94 2.23c4.8 1.28 7.72 1.91 7.72 1.91a68.13 68.13 0 0 1-7.56 1c-2.46.2-5 .28-7.5.27-24.42-.11-50.43-9-51.24-9.23 13.14 11.55 35.63 17.91 35.63 17.91-37.18 1.77-60.44-10.32-61.24-10.74 5.92 4.9 22.2 11.34 22.2 11.34-30.2 2.84-43.09-5.83-48.23-11.66a15.9 15.9 0 0 1-3.15-4.87c0 21.18-18.14 28.07-18.71 28.28.42-.51 12.37-15 3.32-27.29a22 22 0 0 0-4.27-4.32 33.24 33.24 0 0 0-5-3.24 102.85 102.85 0 0 1-37.05-33.86 118.35 118.35 0 0 1-8-18.46 70.13 70.13 0 0 1-2.95-12.4c0-.28-.07-.55-.1-.82a38.07 38.07 0 0 1 1-16 23.36 23.36 0 0 1 2-4.71 24 24 0 0 1 2 4.71 75.3 75.3 0 0 0 .93 16.7.28.28 0 0 0 0 .09c5.21 30.87 28.63 51.21 42.4 57.56 17.25 8 17.63 17 17.63 17 5.15-7 .77-18.64.6-19.11a71.69 71.69 0 0 0 7.62 8.86c9.76 9.59 17.85 11.34 18.35 11.44-5.9-5.6-5.66-13.74-5.66-13.74 14.94 11.35 33.46 11 33.46 11-26.47-20-33.93-33.62-34.15-34 25.15 23.78 69.92 32 71.45 32.24-66.15-17.74-83.89-74.16-88.41-97a88.16 88.16 0 0 1-1.47-9.69q1.25 4.42 2.66 8.56c37.41 110.28 155.87 73.6 155.87 73.6-26.68-1-35.84-17.93-35.84-17.93 89.82 20.32 127.66-43.41 127.66-43.41-33.46 7.16-42.22-1-42.22-1 79.89-21 105.84-70.36 105.84-70.36-38.65 30.08-80.27 22.31-80.27 22.31 41-13.74 45.61-29.67 45.61-29.67-55.88 26.84-99.57 28.49-121.23 27h0c-1.68-.12-3.22-.26-4.63-.41-2.09-.22-3.87-.46-5.34-.68h0c-1.88-.29-3.25-.55-4.07-.73-.6-.12-.91-.2-.91-.2l.65-.39 6.57-3.88a120.62 120.62 0 0 0 5.06.68q3.3.38 6.65.57a140.89 140.89 0 0 0 8.73.26c26.36 0 53.35-6.81 75.1-14.34 5-1.75 9.78-3.53 14.18-5.27a307.82 307.82 0 0 0 31.31-14.28c-.45 23.31-30.92 36.3-30.92 36.3 28.46-.44 69.26-35.74 69.9-36.29-30.06 68.29-92.07 85.92-94 86.46zm-75.22-210.08a91.54 91.54 0 0 0-19.35-21.58h0l-.27.38-1.29 1.81-2.15 3h0a85.74 85.74 0 0 1 20.53 24.49q-1.22-2.35-2.56-4.57l4.23-2.78h0l.94-.61zm3.59 6.05l-.62-1.13-2.88-4.78-.09-.14a91.54 91.54 0 0 0-19.35-21.58h0l-4.44-3.38h0c-27.786-19.81-64.297-22.482-94.671-6.927a91.35 91.35 0 0 0-49.709 80.867v.48a91.38 91.38 0 0 0 132.31 81.66c1.66-.84 3.31-1.72 4.92-2.66a92.57 92.57 0 0 0 10-6.74 81.15 81.15 0 0 0 4.3-3.56h0a91.09 91.09 0 0 0 31.14-68v-.72a90.8 90.8 0 0 0-10.91-43.39zm4.59 44.09a84.76 84.76 0 0 1-29.15 63.38c-.7.62-1.42 1.22-2.14 1.81l-1.2 1-1 .77h0a85.38 85.38 0 0 1-8.15 5.49l-1.21.71-2.45 1.35-1.24.65h0a85 85 0 0 1-123.41-75.81v-.44a85 85 0 0 1 134.26-68.79c1.52 1.08 3 2.2 4.43 3.38h0a85.74 85.74 0 0 1 20.53 24.49c.06.1.11.21.16.31a84.49 84.49 0 0 1 10.56 41 5.5 5.5 0 0 1 .01.7zm-27.53-71.72h0l-.27.38-1.29 1.81-2.14 3a85.74 85.74 0 0 1 20.53 24.49q-1.22-2.35-2.56-4.57l4.23-2.78h0l.85-.75a91.54 91.54 0 0 0-19.35-21.58zm0 0h0l-.27.38-1.29 1.81-2.15 3h0a85.74 85.74 0 0 1 20.53 24.49q-1.22-2.35-2.56-4.57l4.23-2.78h0l.85-.75a91.54 91.54 0 0 0-19.34-21.58zm85.93 72.1a24.55 24.55 0 0 0-15-7.84 23.47 23.47 0 0 0-3.15-.21l-2.23.11.18 5.86a17.36 17.36 0 0 1 2-.12 18.41 18.41 0 0 1 8.69 2.14 18.71 18.71 0 0 1-7.13 35.21l-1.56.07s-1.22 0-1.83-.09h0a18.67 18.67 0 0 1-5.22-1.29l-.86 2.81-.94 2.77h0a23.92 23.92 0 0 0 5.21 1.37 24.17 24.17 0 0 0 3.64.28 23.36 23.36 0 0 0 2.52-.13 24.56 24.56 0 0 0 15.65-40.94zm-11.75 16.51a6.46 6.46 0 0 1-6.45 6.46 3 3 0 0 1-.42 0 6.45 6.45 0 0 1-1.93-12.45 6.34 6.34 0 0 1 2.35-.45 6.46 6.46 0 0 1 6.45 6.44z"></path>
<path d="M822.37 1022.83h0l-.6.31-.18.09-1.7.89-1.42.71-1.08.53-2.13-4.94-12.59-29.28-2.52-5.85 1.24-.65 2.45-1.35 1.21-.71 2.54 5.9 12.65 29.39.83 1.94.26.59zm25.08-17.55q-2.07 1.86-4.23 3.63l-3.69-3.92-21.9-23.24-4.38-4.65h0l1-.76 1.2-1 2.14-1.81 4.37 4.64 21.83 23.17zm-2.92-194.13l-3 3-.8.88-12.63 13.73-8.92 9.71-.27.38-1.29 1.81-2.14 3h0l-4.43-3.38 2.49-5.12 1.2-.07h0l8-10 11.82-14.81.08-.1 3.41-4.17.47.36.09.06.18.14.29.22.41.32h0l2.3 1.81 1.2 1 .71.57zm28.21 33.35h0l-5.51 1.3-1.47 1.08-10 8.12-13.59 11-.6.49v.59l-5.36 1.29c0-.1-.1-.21-.16-.31q-1.22-2.35-2.56-4.57l4.23-2.78h0l.85-.75 11.66-10.32 12.37-11 7.19 1v.06c.2.26 1 1.35 1.38 2l1.57 2.8zm-205.02 18.39a7.5 7.5 0 1 0-8.17 11.84 7.26 7.26 0 0 0 2.34.38 7.49 7.49 0 0 0 5.83-12.22zm-5.83 8.79a4.07 4.07 0 1 1 3.72-5.69 4 4 0 0 1 .34 1.62 4.07 4.07 0 0 1-4.06 4.06zm25.76 111.91a7.51 7.51 0 1 0 .32 2.17 7.48 7.48 0 0 0-.32-2.17zm-7.17 6.24a4.07 4.07 0 1 1 4.06-4.07 4.07 4.07 0 0 1-4.06 4.07zm323.31-55.16l13-5c-6.48 11.47-13.45 14.34-13.45 14.34l22.71-4.48-18.38 12.11c26.44-7 31.29 13.85 31.29 13.85-10.09-6.29-21-2.66-21-2.66 19.35 8.36 18.23 31.67 18.23 31.67s-24.28-38.42-76.38-18.69q-4.55 1.71-9.37 4.05l-9.35 4.52c-47 22.65-57 26.42-58.06 26.81 2.48-1.49 50-29.51 66.82-37.61 41.82-20.11 63.53-6 63.53-6-6-6.77-14.94-7.17-14.94-7.17a46.8 46.8 0 0 1 26.64-2.73c-17.1-5.45-41.09 3-42.23 3.41l18.32-11.42a38.89 38.89 0 0 1-13.64 2.79l10.36-10.55c-17.73 5.77-41.21 2.33-41.21 2.33 42.53-7.3 63.63-24.86 71.31-32.87a37.48 37.48 0 0 0 3.53-4.12 47.14 47.14 0 0 1-9.73 4.08 110.2 110.2 0 0 1-20.77 4q3.69-2.1 6.76-4.07c17.3-11 20.75-18.85 20.75-18.85-18.52 6-40.48.3-40.48.3 9.86-12.62 40.33-16.81 40.33-16.81-3.88-3.81-22-8.24-22-8.24a85.57 85.57 0 0 1 13.31.82h0a62.77 62.77 0 0 1 12.76 3.17l.61.22c17.23 6.54 22.28 18.36 22.28 18.36a31 31 0 0 0-14.46-6.19h0c-16.47-2.93-35.43 3.22-35.43 3.22h35c-5.61 12.88-14.36 17.32-15.43 17.82l22.3-9.46a188.52 188.52 0 0 1-13.34 15.81c-13.41 14.08-24.26 20.47-30.19 23.24zm110.71-302.84q4.59-1.53 9.66-3.39c23.34-8.6 54.35-22.8 92.81-46.24 0 0 11 31.35-14.91 60.43a82.6 82.6 0 0 1-7.27 7.2 104 104 0 0 1-14.57 10.64c-42 25.65-54.43 25.62-73.51 42.4-2 1.79-4.16 3.78-6.39 6-3.16 3.15-6.56 6.78-10.32 11a29.34 29.34 0 0 0-11.22-2.59c-7.56-.18-17.08 3-22.26 17.84a65.89 65.89 0 0 0-3 14l-.23 2.16s-.13-.67-.28-1.83a59.55 59.55 0 0 1-.37-11.68c.92-13.19 7.08-30.95 34.11-28.49a54.36 54.36 0 0 1 2.39.26s3.39-6 12.18-13.09a84.33 84.33 0 0 1 12.7-8.46 102.78 102.78 0 0 1 9.77-4.68c25.89-10.75 96.4-39.44 89.23-91.42 0 0-37.38 25.42-88.09 42.89l-1 .35q-4.35 1.49-8.82 2.88z"></path>
<path d="M1202.37 639.85l-.27 2.78c-6.26 65.12-15.67 78.63-23.33 88.94-7.77 10.46-12.85 26.36-12.85 26.36a218.8 218.8 0 0 1-11.81 31.43c-13.19 27.4-30.15 39.76-60.49 54.29-39.44 18.89-39.73 24.62-39.73 24.79-6.68 3.84-14.39 4.18-20.79 3.4l-.51-.07a53.38 53.38 0 0 1-12.86-3.32h0l9.49-1.68 9-1.58 6.8-1.21 2.38-.42s7.77-10.09 58-33.14c24.81-11.39 37.21-29 45.86-47.81 8.85-19.26 13.77-39.85 24-56.52 16.65-27 19.25-63.82 19.65-76.25.09-2.74.07-4.3.07-4.3zM596.85 779.87l3.67 6.92-.32 5.42a69.69 69.69 0 0 1-3.35-12.34zm19.32-36.49l-3.5 4.57-3.51-4.57a45.25 45.25 0 0 1 3.51-5.27 49 49 0 0 1 3.5 5.27zm-1.37-20.07l-2.13 3.61-2.14-3.61 2.13-1.61c.71.48 1.39 1.02 2.14 1.61zm9.74 9.58l-5.54 7-2.68-6.06 2.65-3 1.76-2.22 3.81 4.28zm.26 53.91l3.67-6.91a70 70 0 0 1-3.35 12.32s-.03-2.07-.32-5.41zm14.71-13.85q-2.46 3.16-4.47 6.25l-.86-8.24 4.47-6.12a77.84 77.84 0 0 1 .86 8.11zm-76.14-30.72c-.88 9.12 6.36 21.33 6.57 21.7-35.35-16.83-40.23-40.75-40.23-40.75-14.25 18.35-7 47-6.79 47.91-11.4-22-5.25-39.26 1.71-49.66h0a54.48 54.48 0 0 1 7.08-8.52 33.82 33.82 0 0 1 3-2.64c-2.68 23 25.2 41.08 25.2 41.08-5.54-13.3 3.82-26.68 3.82-26.68a41.47 41.47 0 0 0 4.26 14.54 50.32 50.32 0 0 0 4 6.69 59.46 59.46 0 0 0 6.33 7.59l.06.06c1.14 1.15 2.13 2.07 2.89 2.73q.3.6.63 1.2a16.69 16.69 0 0 1-7.16-2.41c-5.14-3.08-8.73-8.28-10.38-11l-.44-.78c-.28-.47-.45-.81-.53-1z"></path>
<path d="M531.67 712.9l-1.4 5-6.47 6.57.79-3.07h0c11.95-36.42 4.19-53.39 4.19-53.39-2.19 28.9-18.13 38.66-18.13 38.66-14.53-28.68-34.65-28.08-34.65-28.08 43.34 16.45 12.75 70.6 25.89 90.82a97.96 97.96 0 0 0 1.74 2.6 170.89 170.89 0 0 0 14.22 18.11h0 0a142.07 142.07 0 0 0 12.37 12.35c-12-6-20.48-12.12-26.47-18.4a45.63 45.63 0 0 1-10.26-16.2c-5.15-14.2-2.24-29.59-.15-47.1a33.61 33.61 0 0 0 .2-2.19 37.65 37.65 0 0 0-1.68-14.51c-6.45-20-28.25-27.51-28.25-27.51 31.37-11.8 48.7 20.61 48.7 20.61 15.08-17.77 11.85-51.68 11.85-51.68 17.3 20.01 10.77 54.54 7.51 67.41z"></path>
<path d="M493.92 722.01a24 24 0 0 0-.34-3.39c-.56-3.43-2.06-8.61-6-11.45 0 0 6.57 9.26-5.18 15.73 0 0-2.19-15.73-18.12-14.93 0 0 11.25 3.48 8.46 14.93 0 0-15.73 2.69-27.08-9.75 0 0-4.48-4.29-6.28-13.05s-8.51-5.88-8.51-5.88 9 3.49.94 24.7c0 0-4.18-15.63-27.58-17.23 0 0 9 4.39 10.16 23.41s22.4 28.48 22.4 28.48-23.7-2.59-28.48-28.68v-.44a45.18 45.18 0 0 0-1.89-9.13c-2-6.14-5.82-13.51-13.4-16.52 0 0 17.72-8.47 36.94 8.36 0 0 2.29-11.85-6.57-12.75 0 0 13.84-15 20.12 5.18S468 717.93 468 717.93s-2.95-8.26-15.7-9.26c0 0 15.56-16.21 31.37 4.88 0 0 2.19-7.07-8.47-13.74 0 0 10-3.57 16.7 4.31a17.83 17.83 0 0 1 2 3 22.27 22.27 0 0 1 .02 14.89z"></path>
<path d="M411.47 729.28a38.48 38.48 0 0 0-3.23-4.82c-10.17-12.95-23.66-11.79-23.66-11.79a8.59 8.59 0 0 1 5.68 8.66c-15.34.4-23.1-5.87-23.1-5.87 1.69 6.17 15.23 13.64 15.23 13.64-8.36 2.09-17.92-1.59-17.92-1.59-.18 4.8 8.66 14.14 8.66 14.14-15.24-5.18-20.51-4.58-20.51-4.58 10.85 5 11.25 12.34 11.25 12.34-19.62 5.58-31.27-10.05-31.27-10.05-8.27 31.07 19.52 47.2 19.52 47.2-45.21 2.77-50.69-12.89-50.69-12.89-7.67 13.15 3.19 33.09 3.19 33.09-5.78.53-15.44-11.68-15.44-11.68 0 3.87 2.23 11.2 2.37 11.66-.36-.4-.7-.8-1-1.2-4.73-5.79-6.09-10.82-5.91-14.88h0a16.42 16.42 0 0 1 5.45-11.3 17.36 17.36 0 0 0 4.9 14.57c-4-25.67 9.06-28.21 9.06-28.21-.42 13.89 30.57 14.83 30.57 14.83-25.41-42.35 3.15-54.39 3.78-54.64-6.36 16.94 15 18.4 15 18.4a16.79 16.79 0 0 0-11.35-8.77c9.28-6.74 19.91-1.69 20.31-1.5a19.21 19.21 0 0 1-3.58-18.28c1.73 6.2 8.61 8.14 9 8.25-8.54-8.35-6.75-16.51-6.75-16.51 3 4.13 17.23 7.13 17.23 7.13-.9-3.19-5.48-3.49-5.48-3.49 13.63-8.4 27.61-.22 33.52 4.18a34.38 34.38 0 0 1 2.93 2.4zm403.04 0a38.48 38.48 0 0 1 3.23-4.82c10.17-12.95 23.63-11.79 23.63-11.79a8.59 8.59 0 0 0-5.68 8.66c15.34.4 23.1-5.87 23.1-5.87-1.69 6.17-15.23 13.64-15.23 13.64 8.36 2.09 17.92-1.59 17.92-1.59.18 4.8-8.66 14.14-8.66 14.14 15.24-5.18 20.51-4.58 20.51-4.58-10.85 5-11.25 12.34-11.25 12.34 19.62 5.58 31.27-10.05 31.27-10.05 8.27 31.07-19.52 47.2-19.52 47.2 45.21 2.79 50.69-12.85 50.69-12.85 7.67 13.15-3.19 33.09-3.19 33.09 5.78.53 15.44-11.68 15.44-11.68 0 3.87-2.23 11.2-2.37 11.66.36-.4.7-.8 1-1.2 4.73-5.79 6.09-10.82 5.91-14.88h0a16.42 16.42 0 0 0-5.45-11.3 17.36 17.36 0 0 1-4.9 14.57c4-25.67-9.06-28.21-9.06-28.21.47 13.91-30.53 14.8-30.53 14.8 25.41-42.35-3.15-54.39-3.78-54.64 6.36 16.94-15 18.4-15 18.4a16.79 16.79 0 0 1 11.35-8.77c-9.28-6.74-19.91-1.69-20.31-1.5a19.21 19.21 0 0 0 3.58-18.28c-1.73 6.2-8.61 8.14-9 8.25 8.54-8.35 6.75-16.51 6.75-16.51-3 4.13-17.23 7.13-17.23 7.13.9-3.19 5.48-3.49 5.48-3.49-13.63-8.4-27.61-.22-33.52 4.18a34.38 34.38 0 0 0-2.93 2.4zm-256.05 278.23s-2.3 11 17.52 13.54c0 0-1.84-4-5.78-2.68 0 0 13.55-10.16 28.48 17.32 10 18.35 13 22.92 14 23.92.37.41.4.25.4.17v5a4 4 0 0 1-.4.12h0a3.35 3.35 0 0 1-.4-.12c-2.26-.7-9-4.72-17.76-27.14 0 0-6.87-12.64-12-14.38a3 3 0 0 1-1.59 3.53s-27.28.75-27.54-18.72a9.57 9.57 0 0 1 .17-1.85h0c.59-3.38 3.21-10.67 14.51-15.56 8.69-3.76 22.53-6.11 44.56-4.17h.4v4.26h-4.66s-45.63-3.75-49.91 16.76zm57.16 81.07v.09a70.8 70.8 0 0 1-2.94 12.41 118.63 118.63 0 0 1-8 18.46 102.87 102.87 0 0 1-37 33.86 33.68 33.68 0 0 0-4.82 3.06 22.92 22.92 0 0 0-4.31 4.26c-9.38 12.3 2.72 27 3.14 27.53-.57-.21-18.71-7.1-18.71-28.28a11.26 11.26 0 0 1-1 2h0c-3.15 5.12-14.66 17.83-50.35 14.47 0 0 16.29-6.44 22.21-11.34-.8.42-24.06 12.51-61.24 10.74 0 0 22.48-6.36 35.63-17.91-.81.27-26.83 9.12-51.25 9.23-2.53 0-5-.07-7.49-.27a65.72 65.72 0 0 1-7.57-1s2.93-.63 7.73-1.91l7.93-2.23c15.79-4.71 40.22-13.48 57.22-26.58-2.16 1.45-20.45 13.17-53.47 13.83-2.8.06-5.7 0-8.71-.08-18.89-.73-41.91-5.09-68.85-16.29 0 0 30.82-1.2 42.79-6.86-1.59.52-66.37 21.25-128.33-62.45l33.44 6.73c-1.94-.54-63.94-18.17-93.93-86.54.63.55 41.44 35.85 69.9 36.29 0 0-30.47-13-30.92-36.3a313.32 313.32 0 0 0 34.82 15.65c4.32 1.66 8.94 3.33 13.8 5 19.54 6.54 42.92 12.33 66.14 13.18a139.76 139.76 0 0 0 24.25-1.11l2-.3 7.23 4.27s-.44.11-1.28.29h0a134 134 0 0 1-26.44 2.13c-24-.14-62-5-108.46-27.36 0 0 4.58 15.93 45.61 29.67 0 0-41.63 7.77-80.27-22.31 0 0 25.9 49.4 105.76 70.51 0 0-8.76 8.16-42.22 1 0 0 37.84 63.73 127.66 43.41 0 0-9.16 16.93-35.85 17.93 0 0 124.48 38.54 158.54-82.16 0 0-6.28 84.22-89.89 106.64 1.53-.27 46.3-8.46 71.46-32.24-.22.42-7.68 14-34.15 34 0 0 18.52.3 33.46-11 0 0 .24 8.16-5.68 13.75 0 0 9.4-1.76 20.35-13.49a73.14 73.14 0 0 0 5.64-6.82c-.18.47-4.55 12.07.6 19.11 0 0 .38-9.08 17.63-17 13.77-6.35 37.19-26.69 42.4-57.55 0-.26.09-.52.13-.79a76.23 76.23 0 0 0 .8-16 23.36 23.36 0 0 1 2-4.71 24 24 0 0 1 2 4.71c1.13 3.91 1.85 9.38.86 16.67zm-88.05-245.16a90.92 90.92 0 0 0-48.24-27.7q-2.73-.6-5.49-1a91.38 91.38 0 0 0-29.15.28h0q-2.74.45-5.46 1.1h0c-41.948 9.885-71.29 47.732-70.41 90.82v.11c0 1.83.13 3.65.28 5.47h0a90.68 90.68 0 0 0 1.78 11.92h0a93.14 93.14 0 0 0 1.34 5.42h0c10.273 36.316 41.821 62.576 79.399 66.089s73.446-16.445 90.272-50.228 11.143-74.435-14.301-102.31zm17.47 64.77c-1.623 41.826-33.454 76.245-75.026 81.125s-80.509-21.232-91.774-61.545l-.19-.67-.18-.68-.34-1.36c-.1-.46-.21-.87-.31-1.31l-.31-1.42a86.9 86.9 0 0 1-1.42-9.72l-.12-1.4q-.11-1.39-.15-2.79c0-.45 0-.9-.05-1.35v-.05c-.939-40.011 26.161-75.257 65.07-84.63h.1.1.08a85.23 85.23 0 0 1 32-1.38h0c1.83.27 3.67.6 5.49 1 40.293 8.701 68.535 45.057 67 86.25z"></path>
<path d="M588.16 893.42l-.63-5.51-.68-4.53-1.05-5.47a128.84 128.84 0 0 0-67.91-87.75h0 0a133.32 133.32 0 0 0-14.05-6h0a128.9 128.9 0 0 0-65-5.85h0l-5.47 1h0a127.75 127.75 0 0 0-54.81 26.36 159.8 159.8 0 0 0-4.5 3.88 10.39 10.39 0 0 1 .65.51l1.23 1.13a11.26 11.26 0 0 1 .59.61 19.48 19.48 0 0 1 1.29 1.59l2.21-1.94 1.45-1.22.79-.65a122.49 122.49 0 0 1 51.84-25h0q2.73-.59 5.47-1.05h0a123.29 123.29 0 0 1 41 0l5.49 1c47.47 10.23 84.505 47.387 94.58 94.89.41 1.92.77 3.86 1.08 5.8a97.62 97.62 0 0 1 .58 4.08 135.98 135.98 0 0 1 .61 5.87 123.29 123.29 0 0 1 .34 13.17c0 1.36-.1 2.71-.18 4.06q-.19 3.12-.54 6.21a123.1 123.1 0 0 1-7.83 31.58c-.8 2-1.65 4-2.56 6l-.07.14a122.68 122.68 0 0 1-28.87 39.52 125.64 125.64 0 0 1-11.42 9.26 123.27 123.27 0 0 1-189.69-64.9h0q-.79-2.67-1.47-5.38h0a123.68 123.68 0 0 1-3.47-22.89l-.16-5.2v-.38a123.09 123.09 0 0 1 14.79-60l.39-.72 1-1.85 1.48-2.51a18.77 18.77 0 0 1-4.47-3l-3 5.15h0a128.58 128.58 0 0 0-15.62 62.85v.73 1.69a.66.66 0 0 0 0 .14q0 .79.06 1.59a.14.14 0 0 0 0 .09 1.62 1.62 0 0 0 0 .31v1h0a128.32 128.32 0 0 0 3.74 24.74h0q.69 2.7 1.49 5.38a128.92 128.92 0 0 0 58.58 74.15h0q3.88 2.28 7.93 4.25h0c42.137 20.598 92.146 16.632 130.51-10.35a129 129 0 0 0 42.79-51.28c.4-.87.79-1.75 1.16-2.63l1.19-2.8c.74-1.84 1.45-3.69 2.1-5.56q1.21-3.45 2.22-7a96.26 96.26 0 0 0 1.34-5c.52-2.08 1-4.18 1.39-6.28a132.37 132.37 0 0 0 1.88-13.29c.16-1.86.28-3.73.36-5.6 0-.78.06-1.56.08-2.34a128.25 128.25 0 0 0-.23-14.8z"></path>
<path d="M380.85 807.89a27.83 27.83 0 0 0-2.29-2.2c-9.875-8.468-24.642-7.762-33.665 1.608s-9.17 24.153-.335 33.702a22 22 0 0 0 2.63 2.49h0a24.15 24.15 0 0 0 4.53 2.93c.13-.25.27-.48.4-.72l1-1.85 1.48-2.51a18.77 18.77 0 0 1-4.47-3 15.55 15.55 0 0 1-1.3-1.27c-6.543-7.149-6.544-18.111-.002-25.261s17.46-8.122 25.162-2.239a10.39 10.39 0 0 1 .65.51c.43.36.83.74 1.23 1.13a11.26 11.26 0 0 1 .59.61 19.48 19.48 0 0 1 1.29 1.59c.73-.66 1.47-1.3 2.21-1.94.48-.42 1-.82 1.45-1.22.26-.23.53-.44.79-.66-.37-.58-.83-1.16-1.35-1.7z"></path>
<circle cx="362.71" cy="824.44" r="6.46"></circle>
<path d="M378.23 927.78l-6 2.09h0l-8.51 3-21.6 7.49-5.08 1.76q-.79-2.69-1.49-5.38l5.1-1.77 22.28-7.72 8-2.76h0l6-2.1.31 1.42.31 1.31.34 1.36.18.68zm-2.75-15.17l-6.4-.1-7.74-.12-24.19-.37-5.37-.09h0v-1a1.62 1.62 0 0 1 0-.31.14.14 0 0 1 0-.09q0-.8-.06-1.59a.66.66 0 0 1 0-.14v-1.69-.73l5.38.09 23.9.37 7.92.12 6.37.09h0v1.4q0 1.39.15 2.79c-.07.43 0 .91.04 1.37zm111.65-132.94l-1.07 5-.06.26-4.42 20.44-2.21 10.35-.06.27-1.28 5.95-5.49-1 1.24-5.78.1-.45 2.08-9.62 4.57-21.14.08-.37 1.06-4.89q2.7.42 5.46.98zm-41.45 41.45l-5.16 1.21h-.08-.1-.05 0 0l-1-6.29h0l-2-12.57h0l-3-18.88v-.07l-.85-5.25v-.06q2.72-.65 5.46-1.15v.16l.83 5.15v.17l3.26 20.16 1.8 11.09v.17zm122.31 41.44a7.5 7.5 0 0 0-10.6-.49 1.29 1.29 0 0 0-.2.21 7.5 7.5 0 0 0-.28 10.39 7.3 7.3 0 0 0 3.62 2.19 7.49 7.49 0 0 0 7.46-12.3zm-2.79 8.06a4.08 4.08 0 0 1-5.75-.27h0a4.07 4.07 0 1 1 5.77.29zm-222.9 140.56c-.78-.27-9.79-3.61-54.18-24.94l-13.28-6.41c-2-1-3.9-1.83-5.8-2.62-54.55-22.92-79.94 17.26-79.94 17.26s-1.12-23.31 18.22-31.67c0 0-10.88-3.63-21 2.66 0 0 4.84-20.85 31.28-13.85l-18.37-12.11 22.7 4.48s-7-2.87-13.44-14.34l13 5c-4.57-2.1-12.07-6.38-21.39-14.7a155.66 155.66 0 0 1-13.73-14.11q-4-4.65-8.3-10.25l22.29 9.46c-1.07-.5-9.82-4.94-15.42-17.82h35s-33.16-10.76-49.89 3c0 0 5-11.82 22.28-18.36h0a62.37 62.37 0 0 1 13.33-3.39h0a86 86 0 0 1 13.35-.83s-18.15 4.43-22 8.24c0 0 28.54 3.92 39.31 15.61q.54.59 1 1.2s-.58.15-1.63.38c-5.42 1.16-23.33 4.32-38.85-.68 0 0 2.4 5.42 13.2 13.62a128.08 128.08 0 0 0 13.82 9l.5.29-.74-.07c-3.64-.36-19.92-2.24-29.76-8 0 0 4.16 6 14.37 13.44 11.52 8.35 30.77 18.45 60.47 23.55 0 0-23.48 3.44-41.21-2.33l10.36 10.55a39 39 0 0 1-13.65-2.79l18.29 11.44c-1.14-.4-25.14-8.86-42.23-3.41a46.76 46.76 0 0 1 26.63 2.73s-9 .4-14.93 7.17c0 0 21.7-14.14 63.53 6 16.88 8.09 64.88 36.43 66.81 37.6zM172.84 742.6a54.82 54.82 0 0 1-.77 8.74 81.89 81.89 0 0 0-1.51-9.89 48.51 48.51 0 0 0-3.45-10.42 28.51 28.51 0 0 0-4.43-6.82 20.55 20.55 0 0 0-4.12-3.59c-5.56-3.69-11.7-3.68-16.28-2.85a28.54 28.54 0 0 0-7 2.15c-31.38-35.55-37.35-27.19-90.22-59.45a104 104 0 0 1-14.57-10.63h0a83.84 83.84 0 0 1-7.26-7.2C-2.63 613.55 8.37 582.2 8.37 582.2c32.55 19.83 59.77 33.05 81.51 41.86a393.05 393.05 0 0 0 12.64 4.87c.23.53.47 1 .71 1.57a94.39 94.39 0 0 0 3.29 6.37l-4.65-1.54c-3-1-5.94-2.06-8.84-3.14a411.57 411.57 0 0 1-80.66-40.24c-7.17 52 63.34 80.67 89.22 91.42s34.66 26.23 34.66 26.23h.14a49.61 49.61 0 0 1 12.1-.19c13.25 1.56 19.5 9.42 22.3 17.93.35 1.06.64 2.13.89 3.2a50 50 0 0 1 1.16 12.06z"></path>
<path d="M205.66 868.44h0a53.43 53.43 0 0 1-13.33 3.39h0c-6.4.78-14.11.45-20.78-3.4 0-.16-.28-5.89-39.74-24.79-20-9.56-34.14-18.18-45.25-30.77s-19.26-29.31-27.05-55c0 0-5.07-15.9-12.84-26.36-7.66-10.31-17.07-23.82-23.33-88.94l-.27-2.78 7.47 5.68s0 1.56.07 4.31c.4 12.44 3 49.24 19.64 76.24 14.91 24.19 18.56 56.65 39.27 81.32a85.65 85.65 0 0 0 30.64 23c50.19 23 58 33.14 58 33.14l1.85.33 6.79 1.2zm384.09-107.15l-1.08 5.68-2.64 3.1c-10.18-6.95-18.8-21-21.68-26l-.44-.78-.53-1v-.1l4.66-3a45.66 45.66 0 0 0 10.32 14.28l.06.06a45.56 45.56 0 0 0 9.2 6.65c1.31.78 2.13 1.11 2.13 1.11zm49.62 179.63l-2.44-.7-.37-.1-2.91-.72a99.11 99.11 0 0 0-22.16-2.44 98 98 0 0 0-25.11 3.17 68.58 68.58 0 0 0-2.8.8l-3 1-.57 6.56 1.34-.6 4.64-1.83a78.42 78.42 0 0 1 25.49-4 80.59 80.59 0 0 1 22.3 3l4.07 1.33.84.3.9.35q-.22-3.05-.22-6.12zm0-10.45l-3.1-.87-1.53-.4-1.09-.25a99.11 99.11 0 0 0-22.16-2.44 97.6 97.6 0 0 0-25.12 3.16h-.07a70.93 70.93 0 0 0-5.72 1.76l-.57 6.57c1.55-.74 3.18-1.43 4.9-2l1.08-.39a78.7 78.7 0 0 1 25.49-4 81 81 0 0 1 22.3 3l2 .62.36.12 3.43 1.25q-.2-3.06-.2-6.13z"></path>
<path d="M639.37 889l-4.33-1.19-1.39-.33a101.55 101.55 0 0 0-46.1.43l-1.17.3-4.06 1.19a135.98 135.98 0 0 1 .61 5.87l3.07-1.14a46.34 46.34 0 0 1 2.18-.71 83.66 83.66 0 0 1 45.61-.3l.45.14 5.2 1.78c0-.29.07-.57.1-.86a80.74 80.74 0 0 1-.17-5.18zm0-10.46l-2.23-.63-3.49-.89a99.71 99.71 0 0 0-22.16-2.43 98.06 98.06 0 0 0-25.11 3.15l-.56.17-5.16 1.61 1.08 5.8a57.24 57.24 0 0 1 4.26-1.65l.87-.29a79 79 0 0 1 24.6-3.71 81 81 0 0 1 22.3 3l2.1.65 3.71 1.34a94.48 94.48 0 0 1-.21-6.12zm-358.91-142.4a33.69 33.69 0 0 0-4.36 5.6l-.61-.29-3.58-1.59c-11-4.48-20.71-4.88-29-1.19a31.26 31.26 0 0 0-8.3 5.48c-9.9 9-13.59 22.36-13.64 22.51l-3 11.29-3.6-11.1c-3-9.22-9.82-15.26-15.91-19 13.61 21.94 5.73 36.93 3.85 39.95a9.59 9.59 0 0 1-.35.53l-1 1.33-1.63.11c-5.67.37-9.86-2.25-12.84-5.85a25 25 0 0 1-2.75-4.17 27.18 27.18 0 0 0-.45 3.38c-1.32 15.87 8.18 34.53 8.34 34.76l3.37 7c-5.46-6.07-17.48-9.88-22.44-9.68 17.91 13.35 15.82 39.45 14.13 49.86-.44 2.73-.85 4.39-.87 4.45l-3.35-1-3.34-1c.07-.23.41-1.58.77-3.73 1.69-9.93 3.9-36.76-18.21-47l-7-3.25 7.06-3.1a30.45 30.45 0 0 1 20.72-.79c-3.51-7.84-6.92-18.34-6-28.24a27.31 27.31 0 0 1 4.75-13.4l4.92-7 1.37 8.43c0 .12 2.1 12.06 9.59 13.25 2.24-4.67 6.82-19.66-12.09-41.23l-7.45-8.48 10.93 2.81c.14 0 .72.19 1.62.48a56.8 56.8 0 0 1 9.93 4.37 46.35 46.35 0 0 1 17.33 16.15c2.66-5.8 7.25-13.56 14.49-19.38a37.9 37.9 0 0 1 8.3-5.1c11.15-5 24.12-4 38.55 2.94.55.29 1.15.58 1.75.89z"></path>
<path d="M290.52 805.56c-.15-.19-11.44-10.07-11.64-19.25 0 0-2.17 2.36-1.88 9.28 0 0-22.8-18.39-5.09-55.73.44-1 .93-1.93 1.44-2.92l7.11-.8a33.69 33.69 0 0 0-4.36 5.6c-4.83 7.56-10.62 22.07-.08 39.43 0 0-.29-10.56 8.1-11.55 0 0-4.82 10.49.49 21h0a24.56 24.56 0 0 0 1.48 2.54l4.43 12.4zm644.18 0c.15-.19 11.44-10.07 11.64-19.25 0 0 2.17 2.36 1.88 9.28 0 0 22.8-18.39 5.09-55.73-.44-1-.93-1.93-1.44-2.92l-7.11-.8a33.69 33.69 0 0 1 4.36 5.6c4.83 7.56 10.62 22.07.08 39.43 0 0 .29-10.56-8.1-11.55 0 0 4.82 10.49-.49 21h0a24.56 24.56 0 0 1-1.48 2.54l-4.43 12.4z"></path>
<path d="M1070.08 813.59l-7 3.25c-22.18 10.32-19.88 37.29-18.19 47.13.36 2.09.69 3.41.76 3.63l-3.35 1-3.35 1c0-.07-.43-1.68-.86-4.35-1.68-10.34-3.85-36.57 14.12-50-5-.2-17 3.61-22.44 9.67l3.37-7c.17-.26 11.08-21.68 7.89-38.14-2.9 5.51-7.89 10.51-15.58 10l-1.64-.1-1-1.34c-.54-.75-11.4-16.45 3.5-40.48-6.09 3.74-12.88 9.77-15.91 19l-3.64 11.1-2.34-8.71-.69-2.58c-.06-.18-4.85-17.55-18.17-26a27.27 27.27 0 0 0-3.77-2 30.91 30.91 0 0 0-17.59-2 46.76 46.76 0 0 0-8.06 2l-.31.1c-1 .35-2 .72-3 1.14a63.14 63.14 0 0 0-4.19 1.88c-.14-.22-.28-.44-.43-.65l-.41-.62-.41-.58c-.24-.34-.5-.67-.73-1l-.66-.84 1.2-1.62 1.93-2.59h0a60.21 60.21 0 0 1 12-3.79c8.51-1.67 16.35-.93 23.46 2.24a33.59 33.59 0 0 1 1.71.82h0c10.81 5.49 17.28 15.6 20.75 22.95.12.23.22.47.33.7 5.15-8.51 12.86-13.86 19-17a50.83 50.83 0 0 1 9.8-3.92h.15l10.78-2.77-7.45 8.48c-18.91 21.57-14.33 36.56-12.09 41.22 7.5-1.18 9.57-13.12 9.6-13.25l1.36-8.42 4.92 7c8.91 12.65 3.95 30.06-1.24 41.64a30.39 30.39 0 0 1 20.72.79z"></path>
<path d="M953.69 741.67l-2.86 3.86-2.15-3.78-.43-.65-.41-.62-.41-.58-.73-1-.66-.84 1.2-1.62 4.19.48 1.44 2.92.82 1.83zm6.16 234.11l-22.45 22.06-3.05 3-13.14 4.37 2.01-2.1 17.91-18.76 5.36-5.61 10.77-3.95 2.59.99zm-653.62 29.43l-13.13-4.37-1.66-1.63-22.4-22-1.45-1.43 2.6-.99 10.77 3.95 7.16 7.5 17.12 17.93.99 1.04z"></path>
<circle cx="840.88" cy="837.33" r="3.4"></circle>
<path d="M964 745.58l-2.63-.91-5-14 2.68-.82 2.82-23.9-23.44.82-41.19-52.84 16.33-23.26-6.31-8.45-5.17-6.93 4.87-4.84v-16.78h0c30.161-27.258 38.09-71.455 19.285-107.498s-59.59-54.824-99.202-45.681-68.039 43.9-69.144 84.539 25.393 76.888 64.45 88.169v23.58l13.43 9.17 26.15-2.83-10.3 9.68v15.64l10.56 2.42-1.82 11.65 53 64.39-11 10.17-1 5.6-11 10-11 8s-.75-.25-1.92-.68l-17.71 16.33h-14l-9.68 10.69c-.46-.34-.94-.66-1.41-1l2.72 5.66 26 32 6.94-2 52.75-53h1.45l4.53.09 3.26.06 6 .13h1l4.41.1h1.1 0l7 .14 8.53.17 2.84-25.05-1.41-1.35a39.45 39.45 0 0 0 2.23-17.38zM847 575.79a48.38 48.38 0 0 1-34.22-82.59 48.38 48.38 0 0 1 82.59 34.22c0 26.694-21.626 48.342-48.32 48.37z" fill="#931026"></path>
<circle cx="847.05" cy="527.41" r="51.68" fill="#0683EA"></circle>
<path d="M843.48 479.04s26 15.29 21.15 41.84c0 0-3.79-13.1-11.79-15.66 0 0 19.26 49.06-23 68.94 0 0 6.81 8 10.55 6.81s17.67-1.12 20.56-2.9 18.76-8.68 20.8-10.55 19.13-22.37 17.71-27.06-2.56-22.81-2.56-22.81-5.1-19.07-5.78-20.09-13.28-12.08-14.64-13.78-19.64-7.13-20.3-7.24-12.7 2.5-12.7 2.5z" fill="#006CB5"></path>
<path d="M813.82 492.27s-14.91 36.42-1 69.28c0 0-10.16-2.34-11.43-10s-6-24.13-6-24.13 6-14.44 6-19.29 7.9-15.07 12.43-15.86z" fill="#FFFFFF"></path>
<path d="M847.05 470.2c-30.8 0-55.77 25.62-55.77 57.22s25 57.22 55.77 57.22 55.78-25.61 55.78-57.22-24.97-57.22-55.78-57.22zm0 105.59a48.38 48.38 0 1 1 48.37-48.37c0 26.714-21.656 48.37-48.37 48.37zm115.2 161.82a33.3 33.3 0 0 0-3-6.54l-.26-.42 2.92-24.7-23.44.82-41.19-52.84 16.29-23.26-6.31-8.45-5.17-6.93 4.87-4.84v-16.78h0c30.161-27.258 38.09-71.455 19.285-107.498s-59.59-54.824-99.202-45.681-68.039 43.9-69.144 84.539 25.393 76.888 64.45 88.169v23.58l13.43 9.17 26.15-2.83-10.3 9.68v15.64l10.56 2.42-1.82 11.65 53 64.39-15.59 14.37-10.8 9.95h0l-27.2 25.07h-14l-9.68 10.69-.22.24-1.87 2.06.12.12 2.72 2.46 3.15 2.86h0l.14.11 2.47-2.72 6.84-7.56h13.6l18.14-16.72 8.57-7.91h0l29.47-27.16 18.18-1.85 15.19 14.63 2 1.89-1.52 13.51-5.43-.1h0-.82l-6-.11-7.17-.16h-.21l-4.53-.09-4.68-.09-4.4-.1-55.26 55.6-3.85 3.87a99.71 99.71 0 0 1 2.69 4l-2.25 1.47 2.71 2.71 1.47-1.08 3.91-3.94.09-.09 53.71-54.16h1.45l4.53.09 3.26.06 6 .13h1l4.41.1h1.1 0l7 .14 8.53.17 2.84-25.05-1.41-1.35a37.91 37.91 0 0 0 .48-25.35zm-195.1-210.19c.003-43.621 34.991-79.178 78.606-79.885s79.737 33.699 81.152 77.297-32.398 80.274-75.968 82.398c-1.29.06-2.59.09-3.89.09a79.83 79.83 0 0 1-79.9-79.9zm70.72 110l-7.29-5v-17.25a88.87 88.87 0 0 0 68.1-14.92v6.8l-9.12 9.06-17.19 17.13-1.67.62zm106.17 101.67l-3 4-.77-.74-18.5 1.88-52.72-64.09 2.39-15.58-11.63-2.67v-5.47l15.74-14.75h.06l1-1 2-1.85v-.09l17.64-17.5 7.18 9.63-16.41 23.33 47.56 61 18-.64-1.85 15.58-3.49 4.72h0l-1.93 2.59zm11.56 14.39h0a29.45 29.45 0 0 1-.55 3l-3.73-3.58-4.22-4.08 1.73-2.33 2.86-3.86 2.19-2.94.23-.31a.9.9 0 0 0 .08.21 28.42 28.42 0 0 1 1.41 13.88z"></path>
<circle cx="842.11" cy="627.09" r="4.43"></circle>
<circle cx="931.13" cy="766.33" r="3.91"></circle>
<path d="M935.05 730.2a3.92 3.92 0 0 1-6.692 2.782 3.92 3.92 0 0 1 2.782-6.692 3.92 3.92 0 0 1 3.91 3.91z"></path>
<circle cx="869.86" cy="655.64" r="3.91"></circle>
<circle cx="847.05" cy="458.41" r="3.57"></circle>
<circle cx="847.05" cy="595.26" r="3.57"></circle>
<circle cx="914.54" cy="527.41" r="3.57"></circle>
<circle cx="779.24" cy="527.41" r="3.57"></circle>
<circle cx="654.34" cy="520.27" r="1.71"></circle>
<circle cx="666.05" cy="509.96" r="1.71"></circle>
<path d="M639.42 895.04c0-.29.07-.57.1-.86a123.19 123.19 0 0 1 72.711-97.422c39.688-17.421 85.611-12.704 120.929 12.422l1.44 1c1 .74 2 1.51 3 2.3h0l3.09 2.53a122.48 122.48 0 0 1 21.84 23.74 99.71 99.71 0 0 1 2.69 4c.66 1 1.31 2 1.93 3.1l1 1.66a122.3 122.3 0 0 1 16.22 50.16c.15 1.65.28 3.31.37 5 .1 1.94.17 3.88.18 5.86a17.36 17.36 0 0 1 2-.12 18.33 18.33 0 0 1 3.33.29 104.7 104.7 0 0 0-.18-5.93c-.11-1.93-.26-4.1-.46-6.13a127.9 127.9 0 0 0-16.94-52h0c-.51-.89-1-1.76-1.59-2.63-.42-.68-.86-1.38-1.29-2v-.06h0q-1.61-2.49-3.33-4.9a129.39 129.39 0 0 0-21.89-23.73l-.86-.71-.71-.57a18.66 18.66 0 0 1-1.2-1c-.76-.65-1.53-1.23-2.3-1.81h0l-.41-.32-.29-.22-.09-.08-.09-.06-.09-.06-.47-.36a128.63 128.63 0 0 0-122.15-16.62h0a128.15 128.15 0 0 0-13.24 5.95h0A128.69 128.69 0 0 0 637.23 878a117.78 117.78 0 0 0-1.25 5.4l-.85 4.5c-.3 1.8-.57 3.61-.8 5.45a127.69 127.69 0 0 0-1 15.5v.73.64c0 1.78 0 3.56.14 5.32a124.54 124.54 0 0 0 1.37 13.75 104.83 104.83 0 0 0 1.07 6l.47 2.21a67.27 67.27 0 0 0 .65 2.81c.52 2.17 1.12 4.33 1.77 6.45.88 3 1.86 5.84 3 8.69a160.71 160.71 0 0 0 2.12 5.19c.66 1.52 1.34 3 2.06 4.5 27.624 57.538 93.257 86.123 154.2 67.16h.18l1-.29a129.34 129.34 0 0 0 16.28-6.5l1.08-.53 1.22-.6.2-.11 1.7-.89.18-.09.6-.32 3-1.69h0c2.48-1.42 4.88-2.92 7.26-4.51h.06a126 126 0 0 0 10.42-7.69q2.16-1.77 4.23-3.63a128.65 128.65 0 0 0 33.78-48.78c.69-1.76 1.35-3.55 2-5.35s1.26-3.75 1.81-5.66h0a18.67 18.67 0 0 1-5.22-1.29l-.86 2.81c-.29.93-.6 1.85-.93 2.77a130.81 130.81 0 0 1-1.44 3.92 123.48 123.48 0 0 1-32.89 47.47h0c-1.39 1.26-2.79 2.44-4.23 3.63h0a123.42 123.42 0 0 1-19.23 12.89q-2.46 1.32-5 2.55h0c-59.995 28.847-132.056 4.899-162.85-54.12q-2-3.9-3.78-8c-.8-1.84-1.56-3.72-2.27-5.61a123 123 0 0 1-7.57-35.42c0-.55-.07-1.1-.09-1.65a93.47 93.47 0 0 1-.13-4.12v-2.07-.69a127.39 127.39 0 0 1 .73-13.69zm113.3-303.52l-85.41-99.34-31 26.7 112.06 130.37 55.88-48.05-26.69-31zm39.46 8.77l-42.9 36.89-100.91-117.39 18-15.53 85.42 99.33 24.83-21.35zm136.1-167.22l-85.41-99.33-31 26.69 112.1 130.37 55.88-48-26.69-31zm39.45 8.78l-42.89 36.88L823.9 361.34l18.06-15.53 85.41 99.33 24.84-21.35z"></path>
<circle cx="775.88" cy="588.43" r="1.71"></circle>
<circle cx="786.22" cy="600.3" r="1.71"></circle>
<circle cx="951.68" cy="429.5" r="1.71"></circle>
<circle cx="962.48" cy="442.18" r="1.71"></circle>
<circle cx="829.19" cy="361.99" r="1.71"></circle>
<circle cx="841.46" cy="351.46" r="1.71"></circle>
<path d="M1030.28 748.78l-5.15-8.58c40-24 80.94-47.63 88-78.47 8-35.47-9.44-62.52-9.62-62.79l-2.64-4 3.89-2.81c13.32-9.58 19.93-21 20.23-35 1-47.12-70.76-104.19-71.49-104.76l-6.13-4.7 6.86-3.58c.22-.12 23.16-12.48 36.06-41.77 6.54-14.86 3.7-18.8-3.9-29.33-6.59-9.13-15.61-21.62-22.93-46.53-5.47-18.6-13.68-30.87-24.38-36.48a27.23 27.23 0 0 0-20-2.41l-5 1.66-1.4-5.11c-9.76-36.5-28.11-64-53.09-79.48-18.87-11.71-35.1-12.6-35.26-12.61l-1.86-.09-1.37-1.28c-54.15-51.48-99.34-26.51-99.79-26.25l-5-8.68c.54-.3 13.44-7.57 33.78-7.67 18.25-.09 46.2 5.82 76.6 34.14 5.25.57 20.36 3.05 37.62 13.61 18.55 11.36 43.17 34.62 56.74 81.19a38.21 38.21 0 0 1 22.39 4c13.32 6.86 23.27 21.21 29.58 42.65 6.84 23.26 15.28 35 21.45 43.5 8.3 11.51 13.79 19.11 4.94 39.21a103.77 103.77 0 0 1-34.4 42.7c17.54 14.9 70.86 63.92 69.9 108.38-.34 15.71-7.32 29.18-20.78 40.1a97.8 97.8 0 0 1 8.67 66.45c-7.61 33.56-50.12 59.34-92.52 84.79z"></path>
<path d="M1116.82 619.91l-1.77-9.84c.12 0 13.93-2.74 27.83-15.62 18.48-17.13 28.83-44.54 30-79.27s-13.75-60.18-44.16-75.72c-23.24-11.88-47.31-13.29-47.55-13.3l.52-10a141.66 141.66 0 0 1 51.29 14.24c23.62 12 51.45 36.48 49.89 85.09-1.53 47.73-19.14 73.51-33.64 86.74-16.05 14.6-31.75 17.56-32.41 17.68zM1011.58 280.1s17.22 32.46-33.34 62.34c0 0 54.78-13.51 42.84-65.48zm-89.1-88.2s13.59 17.52 0 57.34c0 0 27.52-38.16 4.24-67.08zM368.5 94.02s-36.22 42.71-20.47 144.5c0 0-29.2-107.13 14.8-152.8zM641.51 79.6s43.12 34.58 33.16 125.47c0 0 25.13-89.65-28.29-134.57zm91.43 49.38s-23 42.2-3.89 86.72c0 0-36.74-40.22.27-102.83zm-474.13 56.84s17 38.06-11 65.64c0 0 16.34-56.4-2.38-67.52l3.06-4zm-61.68 553.85l-.57 10c-.51 0-10.62-.68-23.72-7.07-.75-.36-1.51-.75-2.28-1.15a88.57 88.57 0 0 1-6.48-3.79 91.76 91.76 0 0 1-21.8-19.89c-2-2.51-4-5.24-5.92-8.19-7.06-10.78-13.44-24.61-17.83-42.34-4.1-3.34-15.41-13.66-24.1-31.93q-.72-1.51-1.41-3.12c-1.11-2.52-2.17-5.23-3.15-8.13-6.85-20-10.32-49.26 1.33-87.75a38.29 38.29 0 0 1-16.58-15.56c-7.42-13-7.92-30.48-1.5-51.89 7-23.23 6.27-37.63 5.77-48.15-.62-12.92-1-21.84 12.79-32.4 1.35-1 2.84-2.08 4.47-3.15 1.28-.83 2.55-1.63 3.82-2.38a84 84 0 0 0 6.13 8q-2.24 1.29-4.49 2.76a66.48 66.48 0 0 0-3.92 2.74c-9.62 7.28-9.37 12.39-8.82 24 .54 11.24 1.28 26.64-6.18 51.5-5.57 18.57-5.39 33.33.51 43.87a27.25 27.25 0 0 0 15.41 12.92l5.13 1.35-1.62 5c-11.52 35.21-11.38 67.67.39 94 .23.53.47 1 .71 1.57a94.39 94.39 0 0 0 3.29 6.37c8.91 15.77 19.26 23.35 19.38 23.44l1.51 1.08.44 1.82c4.82 20.29 12.31 35.22 20.62 46.18a87.13 87.13 0 0 0 10.1 11.29 87.27 87.27 0 0 0 4.12 3.59 78 78 0 0 0 9 6.31c13.81 8.27 25.21 9.1 25.45 9.1z"></path>
<path d="M852.07 331.17c30.34-49.76 21.41-78.05-16.62-136.28-18.64-28.54-25-59.56-30.08-84.48-5.51-27-8.89-41-20-40.2-22.6 1.59-43.59 38.51-49.77 52.6l-2.7 6.17-5.12-4.37c-39-33.3-84.62-44.61-85.08-44.72l-1.23-.29-.94-.85c-20.93-18.86-19-45.4-17-56.4-67.92-16.66-132.71 2.95-175.49 22.63-47.71 22-79.24 48.77-79.56 49l-.82.71-1 .3c-49.83 14.43-76.25 37-89.64 53.43-14.43 17.68-17.24 32.18-17.26 32.33l-.93 5-5-1c-20.58-4.3-55 8.09-73.73 26.51-7.45 7.34-15.77 19-13.08 32.9 4.24 21.9 3.68 35.8-1.73 42.5a9.3 9.3 0 0 1-6.85 3.82l-3.24.08-1.42-2.89c-5.91-12.49-17.93-14.57-23.82-14.81-4 15.61-12.26 29.39-20.3 42.76-11.15 18.53-20.78 34.54-16.92 51.39a48.24 48.24 0 0 0 7.23 15.77 84 84 0 0 0 6.13 8q-2.24 1.29-4.49 2.76a66.48 66.48 0 0 0-3.92 2.74 95.43 95.43 0 0 1-6-8A58 58 0 0 1 83 369.21c-4.75-20.78 6.35-39.24 18.1-58.78 8.27-13.74 16.81-28 20-43.48l.72-3.55 3.59-.43c7.92-.95 23.78 1.1 33.56 13.95 1.07-4.29 1.67-13.15-1.76-30.84-2.84-14.41 2.65-28.91 15.83-41.91 19.75-19.46 54.26-32.41 78.1-29.9 2-6.26 6.76-18 17.61-31.52 14.18-17.6 42-41.73 94.08-57 5.45-4.54 35.67-28.9 80.79-49.7 28.77-13.26 57.6-22.25 85.68-26.72 35.23-5.6 69.37-4.06 101.47 4.59l4.92 1.32-1.42 4.9c-.09.3-8.5 30.77 12.11 50.39 7.69 2 46.72 13.38 82.94 42.37 7.37-14.56 28.33-50.73 55.38-52.64 9.59-.67 16.6 4.11 21.45 14.63 3.87 8.4 6.26 20.05 9 33.54 4.92 24.09 11.06 54.08 28.66 81 38.56 58.99 48.21 91.72 8.26 141.74z"></path>
<path d="M110.17 378.67s66.87-3 73 47.36c0 0-20.66-46.76-89.65-32.8-.01.04-1.88-12.74 16.65-14.56z"></path>
</svg>
